<svg width="36" height="38" viewBox="0 0 36 38" fill="none" xmlns="http://www.w3.org/2000/svg">
<ellipse cx="18" cy="18.7714" rx="18" ry="18.7714" fill="#D9D9D9" fill-opacity="0.25"/>
<path d="M17.9996 11.6354C19.024 11.6354 20.023 11.97 20.8541 12.5915C21.6853 13.213 22.3064 14.0907 22.6305 15.0993C22.9545 16.1079 22.9653 17.1968 22.6598 18.2116C22.3543 19.2264 21.748 20.1158 20.9283 20.7536L20.9127 20.7663L20.9313 20.7741C22.5806 21.4688 23.957 22.7192 24.8385 24.3239V24.3249C24.9317 24.5055 24.9541 24.7166 24.9 24.9137C24.8458 25.111 24.7194 25.279 24.5485 25.3815C24.3776 25.4838 24.1753 25.5132 23.984 25.4635C23.8405 25.4263 23.7114 25.3468 23.6119 25.236L23.5231 25.1149C22.3543 23.0196 20.2894 21.7682 17.9996 21.7682C15.8531 21.7684 13.9048 22.8677 12.7067 24.7321L12.4772 25.1149V25.1159C12.4291 25.209 12.363 25.2908 12.2838 25.3571C12.2045 25.4234 12.1131 25.4726 12.0153 25.5016C11.9174 25.5306 11.8145 25.539 11.7135 25.526C11.6124 25.5131 11.5146 25.4793 11.4264 25.4264C11.3381 25.3735 11.2603 25.3029 11.1989 25.2184C11.1375 25.1339 11.0937 25.037 11.069 24.9342C11.0442 24.8315 11.0395 24.7244 11.0553 24.6198C11.0711 24.5154 11.107 24.4155 11.1608 24.3258V24.3249C12.0423 22.7196 13.4193 21.469 15.069 20.7741L15.0875 20.7663L15.0709 20.7536C14.2514 20.1158 13.646 19.2263 13.3405 18.2116C13.0349 17.1968 13.0448 16.1079 13.3688 15.0993C13.6928 14.0906 14.315 13.213 15.1461 12.5915C15.9771 11.9701 16.9754 11.6355 17.9996 11.6354ZM18.6559 13.2839C18.004 13.1493 17.3276 13.2182 16.7135 13.4821C16.0996 13.746 15.5748 14.1931 15.2057 14.7663C14.8366 15.3395 14.6393 16.0135 14.6393 16.7028C14.6403 17.6268 14.9949 18.5131 15.6246 19.1667C16.2545 19.8202 17.1087 20.188 17.9996 20.1891C18.6643 20.1891 19.3142 19.9843 19.8668 19.6012C20.4194 19.2181 20.8498 18.6737 21.1041 18.0368C21.3584 17.3999 21.4252 16.6992 21.2955 16.0231C21.1659 15.347 20.8465 14.7255 20.3766 14.238C19.9067 13.7504 19.3077 13.4184 18.6559 13.2839Z" fill="#424C5A" stroke="#475569" stroke-width="0.0241071"/>
</svg>
