<svg xmlns="http://www.w3.org/2000/svg" viewBox="0 0 133 141" preserveAspectRatio="xMidYMid meet"><path fill="#0802c5" d="m26.242 7.498 2.69-.016c2.91-.013 5.818.004 8.728.022q3.053 0 6.104-.005 6.381 0 12.762.034c5.442.029 10.885.026 16.328.013 4.197-.007 8.395.001 12.593.014q3.01.006 6.02 0c2.807-.002 5.613.014 8.42.036l2.492-.014c7.514.097 13.373 2.371 18.93 7.555 5.167 5.692 6.284 12.585 6.209 20.004l.02 2.62c.018 2.83.007 5.659-.007 8.489q.005 2.975.012 5.95.008 6.218-.022 12.437c-.022 5.296-.01 10.59.015 15.886.014 4.093.01 8.185 0 12.277q-.005 2.928.01 5.856c.01 2.735-.006 5.469-.028 8.203l.024 2.41c-.102 6.822-2.1 12.77-6.472 18.07l-1.945 1.598-1.93 1.653c-5.503 3.535-10.74 3.708-17.103 3.7l-2.653.02c-2.883.02-5.767.024-8.65.026l-6.037.02q-6.323.017-12.645.015c-5.389 0-10.777.027-16.166.061-4.156.022-8.311.026-12.467.025q-2.98.005-5.959.027c-2.783.02-5.565.014-8.348.002l-2.463.034c-6.703-.073-11.884-2.05-16.946-6.485l-1.633-1.973-1.68-1.964C.83 118.849.707 114.158.725 107.99L.71 105.27a1628 1628 0 0 1-.01-8.89l-.014-6.19q-.01-6.486-.002-12.97C.69 71.682.674 66.147.65 60.61.635 56.35.634 52.089.637 47.827q0-3.06-.015-6.122c-.013-2.856-.006-5.71.006-8.566l-.023-2.546c.062-6.962 2.139-11.889 6.831-17.107 5.415-5.147 11.622-6.072 18.806-5.988"/><path fill="#04038c" d="m98.438 8.813 2.486.001c13.675.099 13.675.099 18.263 4.186l1.918 1.625c4.96 6.217 6.492 12.713 6.413 20.516l.02 2.62c.018 2.83.007 5.659-.007 8.489q.005 2.975.012 5.95.008 6.219-.022 12.437c-.022 5.296-.01 10.59.015 15.886.014 4.093.01 8.185 0 12.277q-.005 2.928.01 5.856c.01 2.735-.006 5.469-.028 8.203l.024 2.41c-.102 6.822-2.1 12.77-6.472 18.07l-1.945 1.599-1.93 1.652c-5.557 3.57-10.809 3.696-17.23 3.653l-2.692.006c-2.922.003-5.843-.007-8.765-.019h-6.095q-6.373-.003-12.745-.024c-5.461-.017-10.923-.021-16.384-.02q-6.285-.001-12.57-.013-3.022-.005-6.045-.006-4.205-.004-8.41-.022l-2.55.002c-1.904-.011-3.807-.073-5.709-.147v-1c1.506.01 3.011.091 4.514.195C45.2 135.29 45.2 135.29 67 131c2.66-2.6 3.271-5.348 3.608-8.97.017-2.187-.132-4.293-.358-6.468l-.193-2.197c-.53-4.691-1.32-9.417-4.057-13.365-2.915-1.717-5.11-2.266-8.456-2.653-3.957-.54-5.095-2.304-7.544-5.347l-2.375-2.187L46 88l1-2 1.61 1.68 2.14 2.195 2.11 2.18c2.933 2.666 5.09 3.808 9.015 4.32 7.708-.925 13.91-8.552 19.252-13.747q1.574-1.515 3.18-2.996c3.25-2.997 6.338-5.87 8.693-9.632-.607-2.469-1.537-3.267-3.544-4.786L88 64v-3c-2.043.058-2.043.058-4.437.625-2.485.371-2.485.371-4.563.375-1.187-2.312-1.187-2.312-1-5 2-2 2-2 4.125-2.125L84 55l-.487-2.009c-.625-3.644-.694-7.156-.716-10.846l-.017-2.252q-.015-2.343-.02-4.687c-.01-2.396-.041-4.792-.073-7.188q-.009-2.28-.015-4.561l-.038-2.175c.01-2.013.01-2.013.366-5.282 1.522-1.204 1.522-1.204 3-2l-3-3c5.216-2.139 9.84-2.27 15.438-2.187"/><path fill="#0b00da" d="m25.95 7.741 2.701-.01c2.94-.01 5.881-.003 8.822.003l6.137-.005q6.428-.005 12.854.01c5.494.012 10.987.005 16.48-.007q6.336-.009 12.67 0 3.039.003 6.078-.005c2.83-.005 5.658.003 8.488.014l2.54-.012C109.73 7.78 109.73 7.78 113 10l-2.124-.016q-4.782-.029-9.563-.047l-3.342-.025-3.233-.01-2.967-.016c-2.696.11-5.146.509-7.771 1.114l3 4c-1.981-.254-3.96-.529-5.937-.813l-3.34-.457L75 13l-1-3c-2.119-.417-2.119-.417-4.703-.28l-3.034.041-3.298.094-3.359.066q-3.522.074-7.044.17a925 925 0 0 1-9.056.198c-2.868.053-5.736.123-8.604.191l-3.304.064-3.024.09-2.683.067L24 11v2h2v2h-4v2l3 1-1 2h-2c-.313 1.901-.313 1.901-.259 4.314l-.019 2.852.012 3.115-.005 3.162q-.002 3.318.01 6.638c.011 3.404 0 6.808-.012 10.212q0 3.213.007 6.426l-.012 3.115.02 2.852c0 .834.002 1.67.004 2.53L22 67h2c.26 2.16.375 4.199.414 6.367l.06 2.008c.06 2.166.106 4.333.151 6.5l.11 4.416q.13 5.39.229 10.781.05 2.597.107 5.194.077 3.836.117 7.671l.04 2.197c.002 1.956.002 1.956-.228 4.866l-2 1-3-1v2h3a169 169 0 0 1 2 6h2c.313 2.437.313 2.437 0 5l-3 1 .375-2.438L24 126c-2.967-.911-2.967-.911-6-1l1.5 1.812C21 129 21 129 21 132c-2.937-.125-2.937-.125-6-1l-1-3h-4v-3q2.5-.063 5 0v-2a447 447 0 0 0-6 1c-2.375-.125-2.375-.125-4-1-.125-2.563-.125-2.563 0-5H3c-.252-1.484-.252-1.484-.254-3.607l-.017-2.422.012-2.692-.01-2.808c-.01-3.084-.003-6.168.003-9.252l-.005-6.39q-.005-6.71.01-13.417c.012-5.751.005-11.502-.007-17.253q-.009-6.6 0-13.202.003-3.18-.005-6.363c-.005-2.958.003-5.916.014-8.873l-.012-2.692.017-2.422.002-2.123L3 23h2v-3h2v-2h2a69 69 0 0 0 1-4c.945-2.677 1.501-3.728 4.019-5.101 4.027-1.214 7.746-1.178 11.93-1.158M81 15l3 1c.394 1.587.394 1.587.42 3.662l.048 2.346v2.55l.024 2.605q.015 2.733.009 5.465a517 517 0 0 0 .085 8.382q.008 2.649.008 5.299l.05 2.544C84.616 51.019 84.576 52.91 84 55c-2.475 1.418-2.475 1.418-5 2l-1 2 2 1-1 1 1.863-.176c2.457-.137 4.7-.176 7.137.176 1.875 2.25 1.875 2.25 3 5l1.885 1.81L94 70c-1.592 2.288-3.035 3.897-5.035 5.79-.55.544-1.1 1.088-1.666 1.65a358 358 0 0 1-3.534 3.433 470 470 0 0 0-5.38 5.26q-1.708 1.674-3.42 3.344l-1.623 1.587c-3.517 3.363-6.253 5.663-11.217 6.311-6.972-.837-12.446-7.057-17.375-11.688l-2.238-1.935C40.55 81.887 39.08 80.486 38 78c1.205-3.194 3.273-5.024 6-7 2.414-.902 2.414-.902 4.625-.938l2.227-.09a104 104 0 0 1 4.359.15L57 70l1-2c-1.925-2.224-1.925-2.224-5-3v-3h-2c-.63-2.858-.611-5.832-.75-8.75l-.168-2.5-.129-2.422-.12-2.222c.196-2.468.809-4.043 2.167-6.106 1.754.773 1.754.773 4 2 1.982-.06 3.963-.19 5.938-.375 5.462-.087 5.462-.087 7.957 1.832C73.288 48.415 73.575 53.155 73 59v1l2-2.75c.371-.51.743-1.02 1.125-1.547 1.088-2.117.92-3.312.875-5.703.104-4.461.237-8.921.372-13.382q.065-2.183.125-4.367.088-3.16.187-6.317l.05-1.97c.096-2.91.338-5.179 1.266-7.964z"/><path fill="#030382" d="M89 9c1.633-.13 1.633-.13 3.91-.133l2.502-.004 2.65.012 2.569-.012c13.936.022 13.936.022 18.557 4.137l1.917 1.625c4.96 6.217 6.492 12.713 6.413 20.516l.02 2.62c.018 2.83.007 5.659-.007 8.489q.005 2.975.012 5.95.008 6.219-.022 12.437c-.022 5.296-.01 10.59.015 15.886.014 4.093.01 8.185 0 12.277q-.005 2.928.01 5.856c.01 2.735-.006 5.469-.028 8.203l.024 2.41c-.085 5.686-1.27 10.97-4.542 15.731-2.687-.187-2.687-.187-5-1-.59 1.946-.59 1.946-1 4-1.333.04-2.667.043-4 0v3c-3.591 1.197-6.231 1.071-10 1l1-2c-.063-2.54-.187-5.033-.375-7.562l-.133-2.116c.038-3.456.038-3.456-1.492-6.322a139 139 0 0 1-.281-6.484l-.056-1.978q-.088-3.144-.163-6.288a1900 1900 0 0 0-.163-6.245 608 608 0 0 1-.097-3.89c-.077-2.757-.272-5.25-.91-7.94L100 79c2.438-1.812 2.438-1.812 5-3l-1-1 .25-3.062L104 69c-2.5-.333-2.5-.333-5 0v-2l2-1c.355-2.878.444-5.732.559-8.629L102 55h3c.5-2 .5-2 0-4h-3c-.33-2.328-.441-4.409-.441-6.746l-.04-2.078a643 643 0 0 1-.082-6.614 892 892 0 0 0-.091-6.602q-.038-2.06-.044-4.12c-.026-1.616-.154-3.23-.302-4.84l-2-1v-2h4v-2h-2v-2h-2v-3c-2.287-.33-2.287-.33-5-.125-1.666.07-3.333.119-5 .125z"/><path fill="#0901d0" d="M21 10h21l-4 1v3h3v3l-3 1c-.428 2.037-.428 2.037-.309 4.52l.02 2.912.066 3.166.028 3.224c.03 3.414.08 6.827.133 10.24q.072 5.127.122 10.252.03 3.196.09 6.393l.03 2.903.04 2.574L38 66h-2v3l2.5-.062L41 69c.688 2 .688 2 0 4-3 .25-3 .25-6 0q.425 1.722.875 3.438l.492 1.933c.507 1.846.507 1.846 2.633 2.629 1.144 3.432.778 5.55.438 9.125-.202 3.168-.202 3.168.562 5.875 3.322 1.506 6.414 1.333 10 1l-1 3c-.098 2.019-.13 4.041-.125 6.063l.004 1.813c.05 6.126.423 12.234.853 18.345l.147 2.236.143 2C50 132 50 132 49 133c-2.45.138-4.871.213-7.324.238l-2.24.025q-2.355.02-4.708.032a632 632 0 0 0-7.164.105q-2.287.015-4.576.026l-2.15.053c-6.052-.026-9.273-2.03-13.666-6.225l-1.422-1.692c-.48-.555-.96-1.11-1.453-1.683-3.54-5.129-3.59-9.871-3.572-15.889L.71 105.27a1628 1628 0 0 1-.01-8.89l-.014-6.19q-.01-6.486-.002-12.97C.69 71.682.674 66.147.65 60.61.635 56.35.634 52.089.637 47.827q0-3.06-.015-6.122c-.013-2.856-.006-5.71.006-8.566l-.023-2.546c.058-6.547 1.676-10.895 5.958-15.968l1.253-1.523C9 12 9 12 11 12c-.875 3-.875 3-2 6H7v2H5v3H3c-.31 1.582-.31 1.582-.254 3.607l-.017 2.422.012 2.692-.01 2.808c-.01 3.084-.003 6.168.003 9.252l-.005 6.39q-.005 6.71.01 13.417c.012 5.751.005 11.502-.007 17.253q-.009 6.6 0 13.202.003 3.18-.005 6.363c-.005 2.958.003 5.916.014 8.873l-.012 2.692.017 2.422.002 2.123L3 118h2l-.187 2.488L5 123c2.28.537 2.28.537 5 .188 2.813-.208 2.813-.208 5-.188v2l-2.5-.062L10 125v3h1.813C14 128 14 128 15.5 129.438L17 131c2.103.714 2.103.714 4 1l-1.5-2.375C18 127 18 127 18 125c3 .063 3 .063 6 1 .375 2.563.375 2.563 0 5l2-1c.656-2.527.656-2.527 1-5h-2c-1.894-2.21-2-2.959-2-6h-3v-2l1.97.162L24 117c.609-2.005.609-2.005.486-4.59l.018-3.033-.043-3.314-.003-3.364a802 802 0 0 0-.046-7.061 774 774 0 0 1-.04-9.08c-.001-2.874-.019-5.747-.036-8.62l-.007-3.315-.038-3.033-.024-2.692L24 67h-2c-.254-1.77-.254-1.77-.259-4.283l-.019-2.832.012-3.096-.005-3.147q-.003-3.306.01-6.613c.01-3.382 0-6.764-.012-10.146q0-3.204.007-6.406l-.012-3.085.02-2.85.004-2.517C22 20 22 20 24 18l-2-1v-2h4v-2h-2v-2z"/><path fill="#10019e" d="m20.827 7.866 2.34-.013 2.555.002 2.701-.01q4.428-.013 8.854-.013l6.147-.01q6.444-.009 12.89-.007c5.509 0 11.018-.014 16.527-.031q6.348-.015 12.696-.013 3.046 0 6.094-.013c2.839-.01 5.678-.007 8.517 0 .841-.007 1.683-.012 2.55-.018 7.038.038 7.038.038 10.302 2.26l-2.124-.016q-4.782-.029-9.564-.046l-3.341-.026-3.233-.01-2.967-.016c-2.696.11-5.146.509-7.771 1.114l3 4c-1.981-.254-3.96-.529-5.938-.812l-3.34-.458L75 13l-1-3c-2.41-.41-2.41-.41-5.358-.265l-3.47.052-3.781.104q-1.93.038-3.861.073-4.056.077-8.111.182c-3.458.088-6.915.16-10.373.225-3.302.063-6.604.135-9.905.207l-1.902.04q-2.681.057-5.363.13l-3.08.074c-2.683.17-5.177.583-7.796 1.178 2.973-3.257 5.468-4.123 9.827-4.134M81 15l3 1c.394 1.587.394 1.587.42 3.662l.048 2.346v2.55l.024 2.605q.015 2.733.009 5.465a517 517 0 0 0 .085 8.382q.008 2.649.008 5.299l.05 2.544C84.616 51.019 84.576 52.91 84 55c-2.475 1.418-2.475 1.418-5 2l-1 2 2 1-1 1 1.863-.176c2.457-.137 4.7-.176 7.137.176 1.875 2.25 1.875 2.25 3 5l1.885 1.81L94 70c-1.592 2.288-3.035 3.897-5.035 5.79-.55.544-1.1 1.088-1.666 1.65a358 358 0 0 1-3.534 3.433 470 470 0 0 0-5.38 5.26q-1.709 1.674-3.42 3.344l-1.623 1.587c-3.517 3.363-6.253 5.663-11.217 6.311-6.972-.837-12.446-7.057-17.375-11.687l-2.238-1.936C40.55 81.887 39.08 80.486 38 78c1.205-3.194 3.273-5.024 6-7 2.414-.902 2.414-.902 4.625-.937l2.227-.09a104 104 0 0 1 4.359.148L57 70l1-2c-1.925-2.224-1.925-2.224-5-3v-3h-2c-.63-2.858-.611-5.832-.75-8.75l-.168-2.5-.249-4.644c.196-2.468.809-4.043 2.167-6.106 1.754.773 1.754.773 4 2 1.982-.06 3.963-.19 5.937-.375 5.463-.087 5.463-.087 7.958 1.832C73.288 48.415 73.575 53.155 73 59v1l2-2.75 1.125-1.547c1.088-2.117.92-3.312.875-5.703.104-4.461.237-8.921.372-13.382q.066-2.183.125-4.367.088-3.16.187-6.317l.05-1.97c.096-2.91.338-5.179 1.266-7.964z"/><path fill="#02047a" d="M122 18c1.688.688 1.688.688 3 2 2.095 4.987 2.297 9.434 2.29 14.8l.02 2.619c.02 2.846.024 5.692.026 8.538l.02 5.963q.017 6.246.015 12.49c0 5.32.027 10.639.061 15.958.022 4.105.026 8.21.025 12.315q.005 2.94.027 5.881c.02 2.75.014 5.498.002 8.248l.034 2.423c-.06 5.514-.96 11.351-4.52 15.765-2.076-.134-2.076-.134-4-1-1.4-2.8-.977-5.24-.84-8.32L118 114h-2c-.267-1.496-.267-1.496-.292-3.638l-.043-2.443-.016-2.716-.04-2.832c-.041-3.112-.068-6.224-.093-9.336l-.073-6.45q-.075-6.772-.131-13.546c-.05-5.802-.116-11.604-.189-17.406a4754 4754 0 0 1-.138-13.329q-.031-3.21-.072-6.42a1641 1641 0 0 1-.08-8.958l-.04-2.71-.009-2.451-.02-2.143L115 18c2.714-1.357 4.113-.774 7 0"/><path fill="#0c00e3" d="m13 18-1 2c-.31 2.342-.556 4.649-.75 7l-.207 1.945C10.837 31.03 10.837 31.03 11 34q1.49 1.015 3 2c.304 2.458.419 4.61.375 7.063l.035 1.97C14.398 46.91 14.398 46.91 14 50l-3 1c-.063 2.113.07 3.973.313 6.063.564 6.05.733 12.049.695 18.12l-.013 2.184c-.021 2.956-.047 5.911-.09 8.867-.03 2.11-.048 4.219-.065 6.329l-.041 1.967c-.036 1.938-.036 1.938.201 4.47h2c.293 2.486.47 4.88.563 7.375.03 4.964.03 4.964 1.437 9.625-.85 3.313-1.67 4.739-4.375 6.875C9 124 9 124 6.688 124L5 123c-.125-2.562-.125-2.562 0-5H3c-.252-1.484-.252-1.484-.254-3.607l-.017-2.422.012-2.692-.01-2.808c-.01-3.084-.003-6.168.003-9.252l-.005-6.39q-.005-6.71.01-13.417c.012-5.751.005-11.502-.007-17.253q-.009-6.6 0-13.202.003-3.18-.005-6.363c-.005-2.958.003-5.916.014-8.873l-.012-2.692.017-2.422.002-2.123L3 23h2v-3h2v-2c2.56-.938 3.511-1.244 6 0"/><path fill="#fdfdfd" d="M87 63c3.165 1.467 5.291 2.924 7 6-.724 1.522-.724 1.522-2.238 3.102l-1.733 1.845L88 76l-2.222 2.313a548 548 0 0 1-6.129 6.223 846 846 0 0 0-3.837 3.876l-2.476 2.483-2.233 2.245c-2.929 2.59-5.104 3.73-8.978 4.235-6.972-.837-12.446-7.057-17.375-11.687l-2.238-1.936C40.552 81.888 39.08 80.486 38 78c1.215-3.158 3.267-5.071 6-7 3.221-1.238 5.59-1.733 9-1 2.358 1.693 4.233 3.474 6.176 5.629L61 77c4.027-.938 6.852-4.667 9.625-7.562C75.916 63.957 79.195 61.69 87 63"/><path fill="#0402a0" d="M84 81h2c-.506 2.169-1 4-2 6l2.375.875C89 89 89 89 90.188 90.813 90 93 90 93 88.746 94.3a77 77 0 0 1-3.3 2.55c-1.6 1.106-1.6 1.106-2.446 3.149-.11 2.251-.164 4.47-.168 6.723l-.01 2.002q-.007 2.094-.007 4.188c-.002 2.145-.02 4.288-.04 6.433q-.005 2.033-.005 4.064l-.022 1.954c.008 1.548.12 3.094.252 4.636 2.73 1.365 5.33 1.182 8.32 1.203l1.875.017a917 917 0 0 0 3.919.02c2.01.01 4.02.041 6.03.072q1.9.01 3.801.016l1.837.038c1.83.027 1.83.027 4.218-.366v-3l1.938.063L117 128c.824-1.961.824-1.961 1-4l4 2c-1.03.97-2.075 1.925-3.125 2.875l-1.758 1.617c-5.354 3.813-10.812 3.794-17.152 3.75l-2.692.007c-2.922.003-5.843-.007-8.765-.019h-6.095q-6.373-.003-12.745-.024c-5.461-.017-10.923-.021-16.384-.02q-6.285-.001-12.57-.013-3.022-.005-6.045-.006-4.205-.004-8.41-.022l-2.55.002c-1.904-.011-3.807-.073-5.709-.147v-1c1.506.01 3.011.091 4.514.195C45.2 135.29 45.2 135.29 67 131c2.66-2.6 3.271-5.348 3.608-8.97.017-2.187-.132-4.293-.358-6.468l-.193-2.197c-.53-4.691-1.32-9.417-4.057-13.365-2.915-1.717-5.11-2.266-8.456-2.653-3.957-.54-5.095-2.304-7.544-5.347l-2.375-2.187L46 88l1-2 1.61 1.68 2.14 2.195 2.11 2.18c2.933 2.666 5.09 3.808 9.015 4.32C65.732 95.912 68 94.285 71 92c5.432-3.757 5.432-3.757 8.188-4.937C81.707 85.586 82.56 83.488 84 81"/><path fill="#0702b6" d="M49 60h2v2h2v3q2.495.524 5 1c1.438 1.5 1.438 1.5 2 3l-2 1v1c-1.73-.006-3.46-.057-5.187-.125C48.327 70.84 45.5 70.937 42 74l-2.25 1.75L39 78c1.543 1.983 3.283 3.58 5.145 5.266 2.767 2.586 4.315 5.475 5.792 8.921 1.78 3.035 4.547 3.66 7.825 4.63l2.925.746c5.206 1.33 5.206 1.33 6.313 2.437.064 2.291.066 4.553.027 6.844l-.037 4.215q-.037 3.337-.086 6.676c-.03 2.14-.048 4.28-.064 6.421l-.04 2.03c-.01 1.606.085 3.212.2 4.814l2 1c-3.146.058-6.291.094-9.437.125l-2.721.05-2.588.02-2.396.032L50 132c-1.473-2.947-1.38-6.01-1.562-9.25l-.125-2.147c-.258-4.804-.443-9.605-.5-14.415l-.043-3.395c.221-2.685.473-3.814 2.23-5.793l-2.152.309c-3.154.146-5.039.185-7.848-1.309-.744-3.326-.92-6.155-.8-9.54.1-2.258.1-2.258-.2-5.46-1.902-1.342-1.902-1.342-4-2-.625-3.125-.625-3.125 0-6 3-.125 3-.125 6 0 .167-1.958.167-1.958 0-4a93 93 0 0 1 4-1l-1-3c1.938-.687 1.938-.687 4-1l-.25 2 .25 2c2 .333 2 .333 4 0-.337-2.516-.337-2.516-1-5h-2z"/><path fill="#0802c9" d="M11 12c-.875 3-.875 3-2 6H7v2H5v3H3c-.31 1.582-.31 1.582-.254 3.607l-.017 2.422.012 2.692-.01 2.808c-.01 3.084-.003 6.168.003 9.252l-.005 6.39q-.005 6.71.01 13.417c.012 5.751.005 11.502-.007 17.253q-.009 6.6 0 13.202.003 3.18-.005 6.363c-.005 2.958.003 5.916.014 8.873l-.012 2.692.017 2.422.002 2.123L3 118h2l-.187 2.488L5 123c2.28.537 2.28.537 5 .188 2.813-.208 2.813-.208 5-.188v2l-2.5-.062L10 125v3h4l1.376 1.43c3.455 3.34 8.638 3.15 13.226 3.317 2.548-.184 4.194-.445 6.398-1.747 3.49-6.81 1.878-16.126 1.5-23.5-.088-3.352-.15-6.705-.21-10.057a295 295 0 0 0-.207-6.277l-.116-2.852-.124-2.53L36 84h2l1-3c1.144 3.432.778 5.55.438 9.125-.202 3.168-.202 3.168.562 5.875 3.322 1.506 6.414 1.333 10 1l-1 3c-.098 2.019-.13 4.041-.125 6.063l.004 1.813c.05 6.126.423 12.234.853 18.345l.147 2.236.143 2C50 132 50 132 49 133c-2.45.138-4.871.213-7.324.238l-2.24.025q-2.355.02-4.708.032a632 632 0 0 0-7.164.105q-2.287.015-4.576.026l-2.15.053c-6.052-.026-9.273-2.03-13.666-6.225l-1.422-1.692c-.48-.555-.96-1.11-1.453-1.683-3.54-5.129-3.59-9.871-3.572-15.889L.71 105.27a1628 1628 0 0 1-.01-8.89l-.014-6.19q-.01-6.486-.002-12.97C.69 71.682.674 66.147.65 60.61.635 56.35.634 52.089.637 47.827q0-3.06-.015-6.122c-.013-2.856-.006-5.71.006-8.566l-.023-2.546c.058-6.547 1.676-10.895 5.958-15.968l1.253-1.523C9 12 9 12 11 12"/><path fill="#0a00d6" d="M24 17c4.875 1.875 4.875 1.875 6 3a64 64 0 0 1 .13 4.32l.009 2.781-.006 3.024.003 3.083q0 3.232-.006 6.466-.005 4.967.007 9.935 0 3.133-.004 6.266l.006 3.024-.01 2.78-.002 2.461C30 66 30 66 29 67c-.263 3.948-.09 6.604 2 10l-3-1 .438 3.438.246 1.933c.165 1.665.165 1.665 1.316 2.629.21 2.317.376 4.616.5 6.938.112 4.673.112 4.673 1.5 9.062.42 4.603.568 9.203.68 13.823q.07 2.309.205 4.615c.269 4.694.506 9.036-.885 13.562-3.807 1.687-7.082 1.194-11 0-2.263-2.457-3-3.68-3-7 3 .063 3 .063 6 1 .375 2.563.375 2.563 0 5l2-1c.656-2.527.656-2.527 1-5h-2c-1.894-2.21-2-2.959-2-6h-3v-2l1.97.162L24 117c.609-2.005.609-2.005.486-4.59l.018-3.033-.043-3.314-.003-3.364a802 802 0 0 0-.046-7.061 774 774 0 0 1-.04-9.08c-.001-2.874-.019-5.747-.036-8.62l-.007-3.315-.038-3.033-.024-2.692L24 67h-2c-.254-1.77-.254-1.77-.259-4.283l-.019-2.832.012-3.096-.005-3.147q-.003-3.306.01-6.613c.01-3.382 0-6.764-.012-10.146q0-3.204.007-6.406l-.012-3.085.02-2.85c0-.831.002-1.662.004-2.517C22 20 22 20 24 18z"/><path fill="#050295" d="M90 77v3c1.825-.295 1.825-.295 3.949-1 2.215-.346 2.215-.346 4.051 0 1.363 3.522.944 7.265.816 10.988l-.027 3.42a472 472 0 0 1-.181 9.048c-.06 2.46-.087 4.92-.111 7.38-.051 5.08-.129 10.16-.257 15.24l-.066 2.74C98 130 98 130 97 132c-2.617.266-2.617.266-5.875.25l-3.242.016c-4.043-.373-4.043-.373-5.883-2.266a43 43 0 0 1-.504-6.512l-.03-1.959a360 360 0 0 1-.022-4.113c-.006-2.08-.06-4.155-.118-6.234-.14-11.14-.14-11.14 3.584-15.639C87.538 93 87.538 93 90 93c-.732-1.966-.732-1.966-2-4l-2.187-.812L84 87c.068-3.733.215-5.942 2.438-8.937C88 77 88 77 90 77"/><path fill="#0602ad" d="M62 10c2.688-.363 2.688-.363 6-.312l3.313.011c1.33.15 1.33.15 2.687.301l1 2c1.865.39 1.865.39 4 .5 2.188.156 2.188.156 4 .5l1 2-2.46.036L79 16c-.526 2.67-.674 4.746-.637 7.43l-.031 2.26c-.03 2.396-.026 4.79-.02 7.185a964 964 0 0 1-.051 7.163 284 284 0 0 0-.01 4.464c-.02 3.51-.107 5.702-2.251 8.498l3 1-1.875 1.75c-2.194 2.098-2.194 2.098-3.25 4.563L73 62l-2-1 1-2c.655-5.272.438-10.205-2.46-14.773-2.747-2.19-5.841-1.467-9.188-1.215C58 43 58 43 55.375 41.125 54 39 54 39 54 37l-3-1c3-1 3-1 4.688-.187L57 37v2c2.5.333 2.5.333 5 0v-2c-2-.167-2-.167-4 0l1-3c.404-2.697.6-5.407.813-8.125l.232-2.246c.227-2.362.227-2.362-.045-5.629-1.936-.978-1.936-.978-4-1v-2h7v-2h-2z"/><path fill="#030485" d="M89 9c1.633-.13 1.633-.13 3.91-.133l2.502-.004 2.65.012 2.569-.012c13.947.022 13.947.022 18.869 4.575l2.094 1.87L123 17l-1 2c-1.96-.61-1.96-.61-4.375-1.75l-2.398-1.11C113 15 113 15 111.277 13.75L110 13c-1.142 1.782-1.142 1.782-2 4l-2 2 1 1c.101 2.706.14 5.387.133 8.094l.003 2.487q0 2.617-.006 5.235-.005 3.968.007 7.934 0 2.547-.004 5.094l.006 2.368a95 95 0 0 1-1.12 14.141L106 67h2c.26 1.898.26 1.898.275 4.59l.029 3.033-.003 3.314.013 3.364q.01 3.53.002 7.061c-.006 3.027.01 6.054.034 9.08.018 2.874.015 5.747.013 8.62l.028 3.315-.019 3.033.002 2.692L108 117h-3l-1 3c-1.67-4.388-2.314-8.266-2.379-12.973l-.051-1.956a909 909 0 0 1-.132-6.133q-.067-3.073-.143-6.145a488 488 0 0 1-.08-3.806c-.064-2.716-.254-5.151-.883-7.801L100 79c2.438-1.812 2.438-1.812 5-3l-1-1 .25-3.062L104 69c-2.5-.333-2.5-.333-5 0v-2l2-1c.355-2.878.444-5.732.559-8.629L102 55h3c.5-2 .5-2 0-4h-3c-.33-2.328-.441-4.409-.441-6.746l-.04-2.078a643 643 0 0 1-.082-6.614 892 892 0 0 0-.091-6.602q-.038-2.06-.044-4.12c-.026-1.616-.154-3.23-.302-4.84l-2-1v-2h4v-2h-2v-2h-2v-3c-2.287-.33-2.287-.33-5-.125-1.666.07-3.333.119-5 .125z"/><path fill="#050394" d="m86.434 9.867 3.004.008 2.996-.008C95 10 95 10 97 11v2h-2v2h2l-.988 1.523c-1.394 3.413-1.266 6.455-1.2 10.102l.002 2.063C94.803 32.47 94.803 32.47 96 36c.098 2.304.14 4.571.125 6.875l.012 1.895c-.006 2.59-.07 4.966-.707 7.484-.688 2.796.662 5.079 1.57 7.746l-1 3c-2.547.074-2.547.074-5.75-.312-4.53-.526-4.53-.526-9.082-.583L79 62c-.937-2.375-.937-2.375-1-5 2-2 2-2 4.125-2.125L84 55l-.487-2.009c-.625-3.644-.694-7.156-.716-10.846l-.017-2.252q-.015-2.343-.02-4.687c-.01-2.396-.041-4.792-.073-7.188q-.009-2.28-.015-4.561l-.038-2.175c.01-2.013.01-2.013.366-5.282 1.522-1.204 1.522-1.204 3-2l-1.562-1.437L83 11c1-1 1-1 3.434-1.133"/><path fill="#0b00e0" d="m13 17 3 1c.424 2.472.611 4.693.688 7.188l.103 2.384c.301 8.151.237 16.308.2 24.464a835 835 0 0 0 .447 30.652l.065 2.04c.297 8.997.67 17.988 1.28 26.97.322 5.093.322 5.093-.783 7.302l2.063.25L22 120c-.062 2-.062 2-1 4l-3 1 1.5 1.813C21 129 21 129 21 132c-2.937-.125-2.937-.125-6-1l-1-3h-4v-3q2.5-.063 5 0v-2l-4 1 1.438-1.687C14.135 119.8 14.676 117.995 15 115l-1-1c-.026-3.244.03-6.474.127-9.717.029-1.761-.04-3.524-.127-5.283h-2c-.26-2.183-.375-4.246-.414-6.437l-.059-2.038c-.06-2.175-.106-4.35-.152-6.525l-.117-4.219a943 943 0 0 1-.222-10.6 1040 1040 0 0 0-.083-4.474c-.044-2.236-.075-4.471-.101-6.707l-.047-2.088c-.012-1.638.081-3.277.195-4.912l2-1c.23-2.364.324-4.573.313-6.937l.048-1.96c.038-2.11.038-2.11-.361-5.103l-1.531-1.008L10 34a45.6 45.6 0 0 1 .188-6.937l.134-1.92c.534-6.264.534-6.264 2.678-8.143"/><path fill="#0702bd" d="M51.16 9.902q1.952.01 3.903.036l2.01.013q2.463.02 4.927.049l-1 3h2v2h-7v2l2.504.133L61 18c.607 2.638.228 5.205-.062 7.875l-.163 2.223c-.31 3.579-.554 5.985-2.775 8.902l2-.125L62 37v2c-2.312.313-2.312.313-5 0-1.687-1.5-1.687-1.5-3-3h-2l1.313 1.023L55 38.375l1.688 1.336L58 41v2l-6-3-.113 1.715-.2 2.222-.175 2.215L51 48l-3 1a64 64 0 0 0 0 4h-2v-6h-2c-.125-2-.125-2 0-4l1.875.813L48 44c1.325-2.395 1.325-2.395 2-5h-2v-2h-3c-.265-1.513-.265-1.513-.11-3.613l.153-2.283.207-2.416.16-2.381c.244-3.338.525-6.111 1.59-9.307l-3-1 5-2-1.062-1.437L47 11c1-1 1-1 4.16-1.098"/><path fill="#04038b" d="M88 62c3.37-.225 5.781-.073 9 1h3l-1.062 2.313C97.676 68.048 97.676 68.048 99 71h-2c-.993 2.96-.993 2.96-1 6 1.956.667 1.956.667 4 0v-2c2.438-.25 2.438-.25 5 0l1 2-3.062.813L100 79a124 124 0 0 0 2 5c.218 2.373.347 4.642.379 7.016l.051 1.989c.053 2.081.094 4.163.132 6.245q.065 3.144.143 6.288.049 1.95.08 3.903c-.165 3.052-.165 3.052 1.215 5.559.4 2.649.515 5.328.688 8l.181 2.273.143 2.165.14 1.996L105 131c-3.036 1.518-4.684 1.842-8 1-.988-3.55-.715-7.173-.621-10.832l.018-3.342c.023-2.944.072-5.886.133-8.83.043-2.397.06-4.794.077-7.192.034-4.958.089-9.916.184-14.874l.048-2.671C97 82 97 82 98 79l-1.75.324-2.25.364-2.25.386L90 80v-3c-5.765 4.35-5.765 4.35-8 11-2.312.688-2.312.688-5 1a86 86 0 0 0-4 2c3.063-3.77 6.209-7.283 9.824-10.535l1.924-1.764q1.978-1.798 4.008-3.539C91.243 72.851 91.243 72.851 93 70c-.89-2.086-2.009-3.22-3.684-4.736L88 64z"/><path fill="#02047e" d="M110 13c2.987.996 4.908 2.699 7 5h-2l1 2c.117 1.714.117 1.714.107 3.81l-.005 2.404-.02 2.642-.01 2.78q-.01 2.991-.027 5.984-.026 4.725-.036 9.452a12076 12076 0 0 1-.105 26.877q-.04 8.211-.055 16.424-.009 3.14-.03 6.28c-.019 2.916-.026 5.833-.03 8.75l-.027 2.654.004 2.388-.01 2.093L116 114h2c.516 2.351.507 4.648 0 7-2 .438-2 .438-4 0l1-3h2v-3l-2.464-.144L112 114c-.839-2.845-.639-5.75-.583-8.695l-.008-2.764c-.001-3.032.033-6.063.068-9.096q.01-3.148.014-6.296.016-6.61.077-13.22c.05-5.656.076-11.31.09-16.966q.025-8.071.069-16.143l.014-3.125q.026-4.371.066-8.741l.013-2.626.026-2.405.017-2.089C112 20 112 20 113 17l-2-.5-2-.5z"/><path fill="#160772" d="M123 19c2 1 2 1 3.107 3.512 1.232 4.063 1.188 8.073 1.184 12.288l.02 2.619c.019 2.846.023 5.692.025 8.538l.02 5.963q.017 6.246.015 12.49c0 5.32.027 10.639.061 15.958.022 4.105.026 8.21.025 12.315q.005 2.94.027 5.881c.02 2.75.014 5.498.002 8.248l.034 2.423c-.066 5.987-1.765 10.48-4.52 15.765l-1-4h2c.285-2.746.285-2.746.188-6l-.02-3.375L124 109h-1a77 77 0 0 1-.316-4.852l-.127-3.224-.12-3.549-.065-1.81c-.367-10.306-.425-20.598-.36-30.909.055-8.903-.114-17.752-.832-26.632-.304-4.312-.021-7.02 1.82-11.024.238-2.209.238-2.209.125-4.312l-.055-2.114z"/><path fill="#fefdfe" d="M62.25 43.688c3.188.025 5.22.186 7.75 2.187 3.325 3.533 3.33 6.172 3.293 10.863-.454 3.502-1.75 4.87-4.293 7.262-3.46 1.73-7.217 1.484-11 1-2.277-1.077-3.251-2.087-5-4-1.254-3.763-1.712-7.07-1-11 1.457-2.15 2.94-3.342 5-5 1.56-1.56 3.09-1.245 5.25-1.312"/><path fill="#0503a8" d="M74 95v2l1.966-.322L78 97c.431 2.512.557 4.622.54 7.148l.035 2.206c.035 2.34.044 4.68.05 7.021q.022 3.5.072 7 .03 2.184.027 4.367c-.08 4.08-.08 4.08 2.276 7.258-1.604.054-3.208.093-4.812.125l-2.708.07c-3.606-.284-3.606-.284-5.48-2.195a44 44 0 0 1-.434-6.582l-.015-1.973q-.01-2.07.003-4.139c.008-2.1-.02-4.2-.052-6.3q-.003-2.013.002-4.026l-.034-1.89C67.536 100.905 68.848 95 74 95"/><path fill="#0802ca" d="m36.625 9.938 3.04.027L42 10l-2 .313L38 11v3h3v3l-3 1c-.428 2.037-.428 2.037-.309 4.52l.02 2.912.066 3.166.028 3.224c.03 3.414.08 6.827.133 10.24q.072 5.127.122 10.252.03 3.196.09 6.393l.03 2.903.04 2.574L38 66h-2v3l2.5-.062L41 69c.688 2 .688 2 0 4l-2.937-.062L35 73c-.827 2.468-.827 2.468-1 5h-2l.625-2.437L33 73l-2-1 1.563-1.312L34 69l-1-3a80 80 0 0 1-.19-4.516l-.05-2.76-.041-2.974-.056-3.06c-.079-4.325-.146-8.65-.215-12.975q-.08-4.733-.167-9.465l-.04-2.974-.052-2.76-.038-2.43c-.079-2.28-.079-2.28-1.151-5.086l3-1 1-2-2.437-.375L30 13l-1-2c2.645-1.322 4.678-1.097 7.625-1.062"/><path fill="#0503a6" d="m83 13 1 2-2.46.036L79 16c-.526 2.67-.674 4.746-.637 7.43l-.031 2.26c-.03 2.396-.026 4.79-.02 7.185a964 964 0 0 1-.051 7.163 284 284 0 0 0-.01 4.464c-.02 3.51-.107 5.702-2.251 8.498l3 1-1.875 1.75c-2.194 2.098-2.194 2.098-3.25 4.563L73 62l-2-1 1-2c.556-5.439.465-9.525-3-14h3v-3c-1.97-.743-1.97-.743-4-1 .75-2 .75-2 2-4 2.125-.125 2.125-.125 4 0v-2l-2.477.324L69 35c-.44-2.61-.515-4.584-.375-7.187l.043-2.042c.107-3.66.31-7.237 1.332-10.771 3.8-2.418 8.593-2.7 13-2"/><path fill="#0a01e9" d="m3 25 3 1c.04 1.333.043 2.667 0 4h2c2.036 3.844 2.244 7.144 2.227 11.443v1.893c0 2.051-.016 4.102-.032 6.152l-.008 4.284c-.008 3.746-.028 7.493-.05 11.24-.02 3.827-.03 7.655-.04 11.482Q10.066 87.747 10 99l-2-1c-.22-2.474-.22-2.474-.18-5.805l.014-1.833q.017-1.975.046-3.95c.03-2.08.047-4.158.06-6.238.04-5.913.105-11.827.176-17.74q.063-5.418.09-10.838.017-2.072.05-4.144c.031-1.926.044-3.85.053-5.776l.038-3.329L8 36H5c-.306 2.485-.388 4.728-.356 7.22l-.007 2.325c-.003 2.556.016 5.11.035 7.666q.005 2.65.006 5.3.007 5.565.04 11.132c.029 4.764.04 9.528.044 14.292q.008 5.476.026 10.953l.015 5.27q.01 3.681.036 7.363l.003 2.217C4.818 113.494 4.818 113.494 6 117H3c-.37-1.437-.37-1.437-.36-3.493l-.013-2.345.032-2.607v-2.72c.001-2.987.025-5.973.048-8.96q.009-3.094.013-6.188c.011-5.445.04-10.89.074-16.335.03-5.55.044-11.1.06-16.649Q2.904 41.352 3 25"/><path fill="#040487" d="M89 9c1.633-.13 1.633-.13 3.91-.133l2.502-.004 2.65.012 2.569-.012c13.947.022 13.947.022 18.869 4.575l2.094 1.87L123 17l-1 2c-1.96-.61-1.96-.61-4.375-1.75l-2.398-1.11C113 15 113 15 111.277 13.75L110 13c-1.142 1.782-1.142 1.782-2 4l-2 2c-.283 1.673-.283 1.673-.211 3.576l.01 2.215.04 2.393.017 2.458c.017 2.599.049 5.197.082 7.796q.042 3.892.07 7.784.019 2.424.054 4.848l.02 2.225.025 1.953C106 56 106 56 105 59c-.068 1.499-.085 3-.062 4.5l.027 2.344L105 68v3l-1-2h-5v-2l2-1c.355-2.878.444-5.732.559-8.629L102 55h3c.5-2 .5-2 0-4h-3c-.33-2.328-.441-4.409-.441-6.746l-.04-2.078a643 643 0 0 1-.082-6.614 892 892 0 0 0-.091-6.602q-.038-2.06-.044-4.12c-.026-1.616-.154-3.23-.302-4.84l-2-1v-2h4v-2h-2v-2h-2v-3c-2.287-.33-2.287-.33-5-.125-1.666.07-3.333.119-5 .125z"/><path fill="#0a01e4" d="M5 36h3c.392 2.347.392 2.347.417 5.676l.026 1.827c.025 2.008.029 4.016.034 6.024q.021 2.082.047 4.163c.042 3.664.067 7.328.087 10.993.036 5.862.097 11.724.159 17.587.019 2.054.03 4.11.041 6.164l.031 3.761.02 3.331C8.722 97.943 8.722 97.943 10 99c.126 2.534.185 5.028.188 7.563l.037 2.154c.005 1.762-.1 3.525-.225 5.283H8c-.167 2.5-.167 2.5 0 5l-5-1 3-1-2-1a85 85 0 0 1-.183-7.457l.014-2.365c.019-2.592.052-5.184.087-7.776l.054-5.376q.06-5.64.14-11.281c.066-4.835.11-9.67.147-14.505.031-3.701.077-7.403.126-11.104q.034-2.676.051-5.35c.02-2.487.057-4.972.1-7.458l.005-2.262C4.588 39.03 4.588 39.03 5 36"/><path fill="#0900d2" d="m28 83 2 1a84 84 0 0 1 .563 6.938c.069 4.673.069 4.673 1.437 9.062.42 4.603.568 9.203.68 13.823q.07 2.309.205 4.615c.269 4.694.506 9.036-.885 13.562-3.807 1.687-7.082 1.194-11 0-2.263-2.457-3-3.68-3-7 3 .063 3 .063 6 1 .375 2.563.375 2.563 0 5l2-1c.656-2.527.656-2.527 1-5h-2c-1.894-2.21-2-2.959-2-6h-3v-2l2.968.816L26 118c.59-2.617.652-4.413.516-7.05l-.04-2.21a379 379 0 0 0-.226-7.052q-.106-3.51-.183-7.02a251 251 0 0 0-.14-4.384c-.051-1.761.002-3.524.073-5.284z"/><path fill="#2700d7" d="M11 12c-.875 3-.875 3-2 6H7v2H5v3H3c-.31 1.582-.31 1.582-.254 3.607l-.017 2.422.012 2.692-.01 2.808c-.01 3.084-.003 6.168.003 9.252l-.005 6.39q-.005 6.71.01 13.417c.012 5.751.005 11.502-.007 17.253q-.009 6.6 0 13.202.003 3.18-.005 6.363c-.005 2.958.003 5.916.014 8.873l-.012 2.692.017 2.422.002 2.123L3 118h2l-.187 2.488L5 123c2.28.537 2.28.537 5 .188 2.813-.208 2.813-.208 5-.188v2l-2.5-.062L10 125v3h1.813c2.187 0 2.187 0 3.937 1.375C17 131 17 131 17 133c-5.772-1.267-9.457-4.29-13-9-2.881-5.586-3.434-10.003-3.388-16.237l-.016-2.722c-.013-2.953-.005-5.905.006-8.857Q.599 93.093.592 90 .588 83.535.61 77.068c.017-5.52.007-11.04-.01-16.56-.012-4.253-.008-8.506 0-12.758q.004-3.054-.008-6.106c-.008-2.846.004-5.691.02-8.537l-.018-2.536c.071-6.531 1.699-10.885 5.97-15.946l1.253-1.523C9 12 9 12 11 12"/><path fill="#0802b2" d="M52 40c1.738.754 1.738.754 4 2 3.16.095 6.26-.066 9.418-.223L68 42l1 3-2.3-.035-3.013-.028-2.988-.035C57.9 44.877 57.9 44.877 55 46c-2.674 3.518-2.561 7.78-2 12 1.73 3.745 1.73 3.745 5 6 2.076.198 2.076.198 4.375.188l2.336.042c2.507-.252 4.122-.978 6.289-2.23v2h2l1-3a52 52 0 0 1 7.063-.187l2.01.04c1.642.036 3.285.09 4.927.147l-1 3c-1.785.047-1.785.047-4.062-.25-4.126-.137-5.97.582-9.063 3.313-2.006 1.95-3.902 3.966-5.79 6.03l-1.835 1.97-1.61 1.847L63 78c-3.929-1.262-6.233-4.08-9-7l3-1 1-2c-1.925-2.224-1.925-2.224-5-3v-3h-2c-.63-2.858-.611-5.832-.75-8.75l-.168-2.5-.129-2.422-.12-2.222c.196-2.467.81-4.042 2.167-6.106"/><path fill="#0a00d8" d="m22 17 3 1-1 2h-2c-.313 1.901-.313 1.901-.259 4.314l-.019 2.852.012 3.115-.005 3.162q-.003 3.318.01 6.638c.011 3.404 0 6.808-.012 10.212q0 3.213.007 6.426l-.012 3.115.02 2.852c0 .834.002 1.67.004 2.53L22 67h2c.26 2.194.375 4.27.414 6.473l.059 2.044c.06 2.182.106 4.364.152 6.546l.117 4.244c.096 3.52.162 7.041.218 10.563.04 2.18.104 4.357.168 6.536l.083 4.153.072 1.97c.023 1.785.023 1.785-.283 4.471h-3a60 60 0 0 1-.625-7.437c.25-4.656.25-4.656-1.375-8.563a163 163 0 0 1-.145-7.226l-.01-2.291q-.013-3.769-.013-7.538l-.01-5.22q-.009-5.48-.007-10.96c0-4.687-.014-9.374-.031-14.06q-.015-5.395-.013-10.79 0-2.59-.013-5.183c-.01-2.416-.007-4.831 0-7.247-.007-.717-.012-1.434-.018-2.173.038-5.98.038-5.98 2.26-8.312"/><path fill="#fcfcfd" d="M53 70c1.992 1.633 1.992 1.633 4.063 3.625C59.008 75.567 59.008 75.567 61 77c2.99-.341 2.99-.341 5-2-.875 3-.875 3-2 6h-2v2h-2l-1 2-3 1c-1.25-1.75-1.25-1.75-2-4l1-3h-9l1 3 2.5-.5L52 81l1 3c-1.437 1.188-1.437 1.188-3 2l2.375 2.25C54.471 90.334 55.872 92.232 57 95c-4.834-2.195-8.292-5.581-12.125-9.187l-2.266-1.963C40.62 81.955 39.11 80.52 38 78c1.249-3.122 3.318-5.034 6-7 3.503-1.168 5.322-1.555 9-1"/><path fill="#0b01de" d="M15 19h1c.263 2.218.437 4.397.563 6.625l.13 2.256c.37 7.393.342 14.782.307 22.182a877 877 0 0 0 .438 32.624l.065 2.04c.297 8.997.67 17.989 1.28 26.971.322 5.093.322 5.093-.783 7.302l2.063.25L22 120c-.062 2-.062 2-1 4l-3 1 1.5 1.813C21 129 21 129 21 132c-2.937-.125-2.937-.125-6-1l-1-3h-4v-3q2.5-.063 5 0v-2l-4 1 1.438-1.75c2.489-3.585 2.687-6.8 2.691-11.094l.01-2.902-.006-3.11.003-3.204q0-3.347-.006-6.695c-.005-3.43 0-6.86.007-10.29q0-3.249-.004-6.498l.006-3.128-.01-2.873-.002-2.54C15.211 67.99 15.211 67.99 14 67a67 67 0 0 1-.13-4.412l-.009-2.842.006-3.09-.003-3.15q0-3.303.006-6.607c.005-3.384 0-6.769-.007-10.153q0-3.201.004-6.402l-.006-3.09.01-2.842.002-2.514C14 20 14 20 15 19"/><path fill="#060399" d="M88.188 12.563 90 13c.438 1.938.438 1.938 0 4l-3 1 2 1c.276 2.471.423 4.837.484 7.316l.073 2.216q.073 2.32.131 4.643c.062 2.382.145 4.762.23 7.143l.129 4.498.078 2.178c.035 1.669-.033 3.34-.125 5.006h-2v-2l-2 2 2 2v3l-3 1 3 3c-3.013.615-5.918 1.15-9 1-1.187-2.312-1.187-2.312-1-5 2-2 2-2 4.125-2.125L84 55l-.487-2.011c-.623-3.632-.694-7.131-.716-10.81l-.017-2.243q-.015-2.338-.02-4.675c-.01-2.385-.041-4.77-.073-7.156q-.009-2.274-.015-4.55l-.038-2.16c.023-4.912.023-4.912 1.75-7.34C86 13 86 13 88.187 12.563"/><path fill="#0900d2" d="M26 18c2.047.664 2.047.664 4 2 .494 1.98.494 1.98.486 4.434l.018 2.78-.043 3.009-.003 3.078q-.01 3.225-.046 6.448a885 885 0 0 0-.04 9.91q-.015 3.125-.036 6.251l-.007 3.015-.038 2.77-.024 2.452L30 66l-2 1-2-1a86 86 0 0 1-.562-7c.175-4.354.175-4.354-1.438-8a131 131 0 0 1-.168-6.555l-.01-1.992q-.007-2.09-.007-4.181c-.002-2.131-.02-4.262-.04-6.393q-.005-2.03-.005-4.059l-.022-1.932c.013-2.487.144-4.597 1.016-6.94z"/><path fill="#fefdfd" d="M84.648 62.488c3.488.76 5.868 2.123 8.348 4.683L94 69c-.785 1.588-.785 1.588-2.348 3.219l-1.73 1.844L88 76l-1.911 1.97a524 524 0 0 1-5.964 5.968l-2.086 2.072Q75.523 88.509 73 91l-1-2c.96-1.437.96-1.437 2.375-3 1.501-1.677 2.614-2.977 3.625-5l-.5-2c-.5-2-.5-2 .5-4h-2c.506-2.169 1-4 2-6h2v-3c-3.02.253-3.02.253-6 1 3-4.174 5.757-4.749 10.648-4.512"/><path fill="#0602b2" d="M65.167 98.379C67 100 67 100 67.422 103.057Q67.4 105 67.32 106.94l-.031 2.07a476 476 0 0 1-.164 6.551 828 828 0 0 0-.142 6.563q-.037 2.043-.107 4.087c-.034 1.596.035 3.194.124 4.788l2 1c-1.312.054-2.625.093-3.938.125l-2.214.07L61 132c-1.38-2.76-1.182-5.411-1.203-8.434l-.017-1.92q-.014-2.01-.02-4.022c-.01-2.05-.041-4.1-.073-6.15q-.009-1.953-.015-3.908l-.038-1.856c.015-2.698.194-4.434 1.637-6.745C63 98 63 98 65.167 98.379"/><path fill="#0802c3" d="M49 60h2v2h2v3q2.495.524 5 1c1.438 1.5 1.438 1.5 2 3l-2 1v1c-1.73-.006-3.46-.057-5.187-.125C48.327 70.84 45.5 70.937 42 74l-2.25 1.75L39 78c1.543 1.983 3.283 3.58 5.145 5.266 2.808 2.625 4.331 5.594 5.917 9.046L51 94h2v2l-9-2v2c-1.969.586-1.969.586-4 0-.47-3.224-.506-6.245-.488-9.492-.04-1.905-.087-3.65-.512-5.508-1.92-1.34-1.92-1.34-4-2-.625-3.125-.625-3.125 0-6 3-.125 3-.125 6 0 .167-1.958.167-1.958 0-4a93 93 0 0 1 4-1l-1-3c1.938-.687 1.938-.687 4-1l-.25 2 .25 2c2 .333 2 .333 4 0-.337-2.516-.337-2.516-1-5h-2zm-5 36 2 1Z"/><path fill="#05029c" d="M88 97h3l-1 3h-2zm-5 1 1 2 2.01-.312L88 100c.533 2.457.746 4.51.828 7l.117 2.152c.12 2.282.213 4.565.305 6.848q.114 2.313.234 4.625c.193 3.791.36 7.582.516 11.375l-3.437-.437-1.934-.247C83 131 83 131 82 130c-.1-2.207-.14-4.382-.133-6.59l-.003-1.999q0-2.097.006-4.194.005-3.213-.007-6.426 0-2.034.004-4.068l-.006-1.948c.024-4.545.024-4.545 1.139-6.775"/><path fill="#0701b6" d="M52 10h10l-1 3h2v2h-7v2l2.504.133L61 18c.607 2.638.228 5.205-.062 7.875l-.163 2.223c-.31 3.579-.554 5.985-2.775 8.902l2-.125L62 37v2c-2.312.313-2.312.313-5 0-1.625-1.375-1.625-1.375-3-3l-1.602-.664C51 34 51 34 50.891 30.813q.155-1.91.359-3.813l.16-1.945c.425-4.725.425-4.725 1.59-7.055-1.407-1.16-1.407-1.16-3-2l2.125-.75L54 14z"/><path fill="#0801c1" d="M48 10c1.688 1.875 1.688 1.875 2 4-2.375 1.25-2.375 1.25-5 2l2 1c.151 1.626.151 1.626.012 3.71l-.143 2.274-.181 2.391-.147 2.367C46.316 31.074 46.064 33.81 45 37h3v2h2c-.75 2.563-.75 2.563-2 5-2.125-.187-2.125-.187-4-1-.167 2-.167 2 0 4h2l-1 3-3-1v2h2c.313 3 .313 3 0 6h-3c-.582-2.625-.582-2.625-.812-6l-.27-3.375L40 45h2c-.024-1.74-.024-1.74-.437-3.812-.53-3.055-.582-4.132.437-7.188.07-1.458.085-2.92.063-4.379l-.024-2.54L42 24.437a948 948 0 0 1-.062-5.192l-.036-2.322C42 15 42 15 43 13l-2.5.125L38 13v-2c3.262-1.255 6.552-1.375 10-1"/><path fill="#0d02c0" d="M47 97h3l-1 3c-.098 2.019-.13 4.041-.125 6.063l.004 1.813c.05 6.126.423 12.234.853 18.345l.147 2.236.143 2C50 132 50 132 49 133c-2.376.1-4.722.14-7.098.133l-2.148.003q-2.25 0-4.501-.006-3.464-.005-6.927.007-2.18 0-4.361-.004l-2.112.006A124 124 0 0 1 17 133v-1a158 158 0 0 1 5.941.246c10.641.523 10.641.523 21.059-1.246 1.52-1.786 1.576-2.757 1.54-5.083-.496-2.96-1.17-5.826-1.99-8.713-.836-3.35-.886-6.58-.862-10.016l-.114-3.395C43 101 43 101 45.02 99.176L47 98z"/><path fill="#020377" d="m121 18 2 1c.45 2.18.45 2.18.688 4.875l.261 2.68C124 29 124 29 123 32h-2l1 3c.244 2.278.428 4.527.563 6.813l.13 2.199c.382 7.495.342 14.986.307 22.488-.046 9.97.05 19.912.438 29.875l.119 3.26.127 2.95.11 2.596L124 107h1c.103 1.58.13 3.166.125 4.75l.008 2.672c-.122 2.367-.312 4.354-1.133 6.578h-2c-.662 1.98-.662 1.98-1 4q-.063-3 0-6h1c.03-2.55-.006-5.073-.086-7.621l-.064-2.347a1679 1679 0 0 0-.147-4.93c-.078-2.525-.145-5.049-.21-7.573l-.141-4.775-.06-2.304c.194-3.521.194-3.521-1.292-6.45-.1-1.917-.128-3.838-.13-5.757l-.005-1.819q-.004-2.99.002-5.979 0-2.072-.003-4.144-.001-4.35.006-8.7.006-5.578-.004-11.155-.005-4.282 0-8.565 0-2.055-.002-4.112-.003-2.876.007-5.753l.002-3.308C120 21 120 21 121 18"/><path fill="#6427a3" d="m118 124 4 2c-1.03.97-2.075 1.925-3.125 2.875l-1.758 1.617c-5.354 3.813-10.812 3.794-17.152 3.75l-2.692.007c-2.922.003-5.843-.007-8.765-.019h-6.095q-6.373-.003-12.745-.024c-5.461-.017-10.923-.021-16.384-.02q-6.285-.001-12.57-.013-3.022-.005-6.045-.006-4.205-.004-8.41-.022l-2.55.002c-1.904-.011-3.807-.073-5.709-.147v-1c1.859-.16 3.724-.244 5.588-.303l1.804-.06q2.993-.094 5.987-.176l4.213-.127c10.144-.294 20.288-.447 30.435-.545l4.224-.043c5.703-.058 11.405-.115 17.108-.147q5.355-.032 10.708-.101 2.014-.021 4.028-.026c1.841-.005 3.681-.028 5.522-.055l3.162-.025L113 131v-3l1.938.063L117 128c.824-1.961.824-1.961 1-4"/><path fill="#04038e" d="M88 62c3.37-.225 5.781-.073 9 1h3l-1.062 2.313C97.676 68.048 97.676 68.048 99 71h-2c-.993 2.96-.993 2.96-1 6 1.956.667 1.956.667 4 0v-2c2.438-.25 2.438-.25 5 0l1 2c-1.49.729-2.984 1.453-4.496 2.137C99.419 80.333 98.769 81.77 98 84l-1-2 1-3-1.75.324-2.25.364-2.25.386L90 80v-3c-5.765 4.35-5.765 4.35-8 11-2.312.688-2.312.688-5 1a86 86 0 0 0-4 2c3.063-3.77 6.209-7.283 9.824-10.535l1.924-1.764q1.978-1.798 4.008-3.539C91.243 72.851 91.243 72.851 93 70c-.89-2.086-2.009-3.22-3.684-4.736L88 64z"/><path fill="#0802cc" d="M34 79c2 .813 2 .813 4 2v3h-2c-.277 1.896-.277 1.896-.18 4.299l.03 2.841.06 3.106.06 6.412q.066 5.093.146 10.186c.049 3.259.079 6.518.107 9.777l.066 3.1.02 2.851.038 2.523L36 131l-3 1-.076-2.883q-.144-5.41-.296-10.82-.065-2.319-.125-4.639c-.23-8.705-.521-17.382-1.264-26.061-.345-4.385-.345-4.385.761-6.597h2z"/><path fill="#0901ce" d="M21 10h10l-1 2 2.5.938L35 14l-1 3h-3l.985 1.215c1.284 2.258 1.262 3.757 1.258 6.348l.01 2.79-.023 3.002v3.082q-.006 3.22-.024 6.443c-.018 3.305-.02 6.61-.02 9.915q-.008 3.124-.018 6.248l-.003 3.02-.02 2.762-.011 2.449L33 66h-1c-.082-1.469-.082-1.469-.027-3.5l.037-2.187q.052-2.313.117-4.626l.033-2.187.051-2.031L32 50h-2c-.232-2.224-.326-4.333-.344-6.562l-.044-2.018c-.063-2.868-.102-5.735-.144-8.603-.033-2.085-.078-4.17-.124-6.254l-.016-1.989c-.02-1.98-.02-1.98-.328-4.574h-2l-1-2-2.062-.5L22 17v-2h4v-2h-2v-2z"/><path fill="#fdfdfc" d="M78 66h2v3h-2v2h-2c.875-3.875.875-3.875 2-5m-4 5h2v4h2c.898 2.749 1.337 4.2 1 7-1.337 2.064-2.814 3.689-4.555 5.422C72.757 89.05 72.757 89.05 72 92c-2.5 1-2.5 1-5 1-.687-2.25-.687-2.25-1-5l-1.187-1.75L64 85l2-1 1-3 2-2-3-1c2.363-2.526 3.665-3.888 7-5z"/><path fill="#040290" d="M95 83h3c.381 1.784.381 1.784.388 4.314l.029 2.852-.019 3.115.01 3.162q.002 3.318-.017 6.638c-.016 3.404 0 6.807.02 10.212q-.004 3.213-.013 6.426l.019 3.115-.029 2.852-.007 2.53L98 130h-3a60 60 0 0 1-.125-7.437c.078-2.525.12-5.037.125-7.563l-1-1c-.1-2.219-.14-4.406-.133-6.625l-.003-2.006q0-2.104.006-4.207.005-3.23-.007-6.459 0-2.04.004-4.078l-.006-1.963c.024-4.547.024-4.547 1.139-5.662"/><path fill="#0a079f" d="M74 17c2.507-.762 2.507-.762 5 0 .44 2.583.49 4.532.34 7.113-.025.726-.05 1.451-.074 2.198a311 311 0 0 1-.206 4.623 389 389 0 0 0-.285 7.072q-.09 2.241-.185 4.482l-.083 2.14c-.186 3.418-.441 5.64-2.507 8.372l3 1-1.875 1.75c-2.194 2.098-2.194 2.098-3.25 4.563L73 62l-2-1 1-2c.556-5.439.465-9.525-3-14l1.938.813L73 46c1.075-3.613 1.063-6.998.922-10.738l-.078-3.233a508 508 0 0 0-.235-6.742l-.062-3.213-.099-2.95z"/><path fill="#0701c4" d="M40 96c2.516-.514 4.716-.163 7 1v3l-3 1c-.3 2.297-.396 4.325-.363 6.625l-.002 2.006q.004 2.104.029 4.207c.023 2.153.02 4.305.014 6.459q.008 2.04.021 4.078l-.003 1.963c.025 1.557.155 3.112.304 4.662l2 1c-2.437.125-2.437.125-5 0-2.335-4.67-1.395-11.544-1.46-16.732a285 285 0 0 0-.123-4.927 305 305 0 0 1-.136-7.071l-.1-2.25c.008-2.044.008-2.044.819-5.02"/><path fill="#0702bc" d="M44 93c5.273.977 5.273.977 7 2 1.808 4.339 2.265 8.217 2.16 12.86l-.016 1.91a775 775 0 0 1-.081 5.98q-.043 3.012-.072 6.023-.018 1.867-.053 3.733c-.053 3.363-.053 3.363 1.062 6.494-1.937.125-1.937.125-4 0-1.473-2.947-1.38-6.01-1.562-9.25l-.125-2.147c-.258-4.804-.443-9.605-.5-14.415l-.043-3.395c.221-2.685.473-3.814 2.23-5.793l-3-.312L44 96z"/><path fill="#040487" d="m100 79 2 2 2.105-.326L106 81c.354 2.542.415 4.676.32 7.219l-.031 2.22a559 559 0 0 1-.164 7.061 969 969 0 0 0-.142 7.062q-.037 2.204-.107 4.407c-.033 1.677.034 3.356.124 5.031h2v3h-3l-1 3c-1.67-4.388-2.314-8.266-2.379-12.973l-.051-1.956a909 909 0 0 1-.132-6.133q-.067-3.073-.143-6.145a488 488 0 0 1-.08-3.806c-.08-3.438-.432-6.639-1.215-9.987"/><path fill="#0a00d5" d="M24 17h2l-.492 1.568c-.653 3.125-.651 6.173-.64 9.35l-.004 1.993q0 2.077.006 4.153.005 3.19-.007 6.38 0 2.017.004 4.036l-.006 1.935C24.634 49.48 24.634 49.48 26 52c.25 3.16.185 6.332.188 9.5l.037 2.707.005 2.574.013 2.377L26 71l-2 1 .125-2.5L24 67h-2c-.254-1.77-.254-1.77-.259-4.283l-.019-2.832.012-3.096-.005-3.147q-.003-3.306.01-6.613c.01-3.382 0-6.764-.012-10.146q0-3.204.007-6.406l-.012-3.085.02-2.85c0-.831.002-1.662.004-2.517C22 20 22 20 24 18z"/><path fill="#0603a8" d="M62 10c2.688-.434 2.688-.434 6-.437l3.313-.06c.886.165 1.773.328 2.687.497 1.031 1.996 1.031 1.996 1 4l-5 1c.176 2.039.176 2.039 1 4l-1 1a132 132 0 0 0-.875 7.563l-.258 2.154c-.25 2.24-.25 2.24.133 5.283 2.495.453 2.495.453 5 0v2a156 156 0 0 1-5 2l-2 2-2-6h2c.124-2.492.137-4.887.063-7.375-.184-7.382-.184-7.382.937-9.625l-2.5-.25L63 17c-.187-2.062-.187-2.062 0-4h-2z"/><path fill="#7821bb" d="M11 12c-.875 3-.875 3-2 6H7v2H5v3H3c-.318 1.564-.318 1.564-.272 3.569l-.03 2.396-.001 2.664-.026 2.778c-.025 3.052-.038 6.104-.05 9.156l-.051 6.322a6536 6536 0 0 0-.113 16.69q-.078 13.36-.188 26.72-.033 4.686-.055 9.373l-.04 5.703-.008 2.664-.021 2.396-.012 2.101L2 117H1a216 216 0 0 1-.161-8.442l-.015-2.72q-.021-4.485-.027-8.97L.78 90.654q-.015-6.53-.02-13.06C.754 72.02.73 66.446.702 60.87a3216 3216 0 0 1-.026-12.848Q.672 44.94.652 41.858c-.017-2.88-.015-5.76-.008-8.64l-.028-2.57C.662 24.07 2.26 19.723 6.563 14.625l1.253-1.523C9 12 9 12 11 12"/><path fill="#040291" d="M91 10c3 .375 3 .375 6 1v2h-2v2h-2c-1.125-2.5-1.125-2.5-2-5m6 5-.988 1.523c-1.394 3.413-1.266 6.455-1.2 10.102l.002 2.063C94.803 32.47 94.803 32.47 96 36c.15 2.308.231 4.566.25 6.875.03.938.03.938.063 1.895.034 4.056-.494 6.278-3.313 9.23l-1-3 1-1c.126-2.347.185-4.652.188-7l.037-1.984c.005-1.674-.102-3.347-.225-5.016l-2-1c-.673-2.93-.747-5.942-.937-8.937l-.245-2.538c-.148-2.277-.238-4.28.182-6.525 2.528-1.67 4.01-2 7-2m-2 41c1.063 1.813 1.063 1.813 2 4l-1 3-3-1v-3h2z"/><path fill="#0b07a2" d="m79 90 1 2-2-1zm-33-4 1.32 1.172c6.564 6.111 6.564 6.111 14.68 9.328 3.927-.655 5.825-2.119 9-4.5l2-1v2l2.438-.75L78 92c1.125 1.875 1.125 1.875 1 4-2.437.75-2.437.75-5 1v-2c-4.128 3.383-4.128 3.383-5.536 8.413q.022 1.93.118 3.857l.036 2.063c.04 2.161.116 4.32.195 6.48q.094 3.265.162 6.532.044 2.03.123 4.057c.042 1.532-.016 3.067-.098 4.598h-2c-.117-2.26-.105-4.42-.027-6.676q.02-2.099.033-4.197c.02-2.221.056-4.436.141-6.656.166-4.683.226-8.962-1.147-13.471-2.845-1.841-4.992-2.285-8.344-2.657C53.598 96.819 52.507 95.115 50 92l-2.312-2.187C46 88 46 88 46 86m23 45 2 1Z"/><path fill="#050297" d="M88.188 12.563 90 13c.438 1.938.438 1.938 0 4l-3 1 2 1c.276 2.471.423 4.837.484 7.316l.073 2.216q.073 2.32.131 4.643c.062 2.382.145 4.762.23 7.143l.129 4.498.078 2.178c.035 1.669-.033 3.34-.125 5.006h-2v-2h-2c-.231-2.428-.326-4.75-.344-7.184l-.044-2.212c-.047-2.347-.08-4.694-.112-7.041a1378 1378 0 0 0-.156-9.247l-.016-2.171C85.293 20.427 85.156 18.71 85 17l-2-1c1.685-2.022 2.566-2.913 5.188-3.437"/><path fill="#8d43a7" d="m20.827 7.866 2.34-.013 2.555.002 2.701-.01q4.428-.013 8.854-.013l6.147-.01q6.444-.009 12.89-.007c5.509 0 11.018-.014 16.527-.031q6.348-.015 12.696-.013 3.046 0 6.094-.013c2.839-.01 5.678-.007 8.517 0 .841-.007 1.683-.012 2.55-.018 7.038.038 7.038.038 10.302 2.26l-3.101-.007q-14.541-.03-29.082-.045-7.474-.007-14.948-.023-7.226-.016-14.452-.02-2.743-.003-5.486-.01C28.364 9.692 28.364 9.692 11 12c2.973-3.257 5.468-4.123 9.827-4.134"/><path fill="#0503a3" d="M72 95h2v2l1.962-.34L78 97c.456 2.604.605 4.815.61 7.438l.05 2.286c.048 2.426.07 4.85.09 7.276q.042 2.457.09 4.914c.074 4.029.123 8.057.16 12.086-1.97-.088-1.97-.088-4-1-.398-2.34-.51-4.244-.469-6.59l-.021-1.999c-.03-2.833-.013-5.665 0-8.498.002-2.064-.02-4.127-.041-6.19l.034-1.948c.022-2.013.022-2.013-.503-4.775-1.97-1.366-1.97-1.366-4-2 .625-1.625.625-1.625 2-3m7 36 2 1Z"/><path fill="#fdfef8" d="M59 45c3.067-.34 5.952-.556 9 0 1.625 2.875 1.625 2.875 2 6l-1 2h2c.813 2.375.813 2.375 1 5-1.312 1.438-1.312 1.438-3 2l-2-2-2 3h2v2c-2.562-.062-2.562-.062-5-1-.047-1.958.324-3.607.8-5.504L63 55h-2l1-2 2 1c.167-3 .167-3 0-6h-2v-2z"/><path fill="#0801bb" d="M49.875 9.688C52 10 52 10 53.75 12L55 14l-4 2 1.563 1.438L54 19l-1 1a55 55 0 0 0-.246 3.816l-.1 2.315q-.091 2.437-.172 4.875l-.103 2.31-.076 2.14L52 37c-2 0-2 0-3.113-1.062-1.333-2.912-1.136-5.801-1.075-8.938l.002-1.906c.029-2.97.24-5.254 1.186-8.094h-5c1.255-2.51 2.5-2.871 5-4l-2-2c1-1 1-1 2.875-1.312M47 34v3Z"/><path fill="#04039f" d="M78 19h2c.195 1.469.195 1.469.125 3.5-.015.722-.03 1.444-.047 2.188l-.156 4.625-.047 2.187-.07 2.031L80 35h2c.763 2.933.843 5.984 1.063 9l.294 2.602c.306 4.23.306 4.23-.357 6.398-2.413.866-4.527.512-7 0l1-3a182 182 0 0 0 .246-7.074l.1-4.21q.072-3.317.13-6.636c.04-2.135.092-4.27.145-6.404l.026-2.027c.042-1.553.186-3.104.353-4.649"/><path fill="#994a9c" d="M123 19c2 1 2 1 3.11 3.504 1.246 4.111 1.162 8.175 1.133 12.439l.006 2.663c.003 2.889-.007 5.778-.019 8.667v6.028q-.003 6.302-.024 12.604-.023 8.1-.02 16.202-.001 6.216-.013 12.43l-.006 5.979q-.004 4.158-.022 8.317l.002 2.522c-.011 1.882-.073 3.764-.147 5.645h-1c-.117-2.72-.165-5.416-.174-8.138l-.02-2.621a2586 2586 0 0 1-.036-5.662q-.026-4.474-.065-8.95-.105-12.726-.182-25.453-.049-7.77-.12-15.542a1564 1564 0 0 1-.037-5.94 1553 1553 0 0 0-.063-8.297l-.002-2.5-.03-2.278-.012-1.983c-.137-1.906-.137-1.906-2.259-3.636-.125-3.125-.125-3.125 0-6"/><path fill="#03039c" d="M84 81h2c-.506 2.169-1 4-2 6l2.375.875C89 89 89 89 90.063 90.875 90 93 90 93 88.187 95.313L86 97c-2.106-1.053-2.882-1.98-4.375-3.75L79 91c-2.25 1.167-2.25 1.167-4 3l-2-1v-2c2.648-2.362 4.615-3.872 8-5a396 396 0 0 0 3-5"/><path fill="#0502ae" d="M63 98c1.98.566 1.98.566 4 2 .34 2.464.42 4.485.32 6.941l-.031 2.07a476 476 0 0 1-.164 6.552 828 828 0 0 0-.142 6.562q-.037 2.043-.107 4.087c-.034 1.596.035 3.194.124 4.788l2 1c-1.937.125-1.937.125-4 0-1.472-2.944-1.238-5.963-1.316-9.195l-.063-2.144q-.097-3.393-.184-6.786l-.13-4.598A4767 4767 0 0 1 63 98"/><path fill="#000470" d="m123 25 2 1c.197 2.552.262 4.996.243 7.55l.006 2.394c.003 2.624-.007 5.248-.019 7.872v5.444q-.003 5.712-.024 11.422-.023 7.343-.02 14.687-.001 5.62-.013 11.243l-.006 5.418q-.004 3.775-.022 7.55l.002 2.29c-.011 1.711-.073 3.421-.147 5.13h-1a128 128 0 0 1-.174-6.454l-.02-2.08q-.021-2.246-.036-4.493-.026-3.555-.065-7.11a6938 6938 0 0 1-.182-20.227q-.049-6.175-.12-12.352-.024-2.355-.037-4.712c-.012-2.2-.036-4.4-.063-6.6l-.002-1.969c-.057-3.575-.627-5.88-2.301-9.003.875-2.625.875-2.625 2-5z"/><path fill="#0701b9" d="M53 100h1a254 254 0 0 1-.127 9.668c-.029 1.778.04 3.556.127 5.332h2c.319 1.56.319 1.56.414 3.719l.117 2.324.094 2.457.117 2.457q.142 3.02.258 6.043c-3.875-.875-3.875-.875-5-2-.1-2.146-.14-4.26-.133-6.406l-.003-1.94q0-2.032.006-4.065c.005-2.08 0-4.16-.007-6.241q0-1.971.004-3.942l-.006-1.897c.024-4.394.024-4.394 1.139-5.509"/><path fill="#0d00df" d="M16.86 118.75c1.953.188 1.953.188 5.14 1.25.125 2 .125 2-1 4l-3 1 1.5 1.813C21 129 21 129 21 132c-2.937-.125-2.937-.125-6-1l-1-3h-4v-3q2.5-.063 5 0v-2l-4 1c2.964-4.86 2.964-4.86 5.86-5.25"/><path fill="#040375" d="M121 67h1c.19 1.519.19 1.519.281 3.672l.112 2.427.107 2.651.123 2.69c.175 3.823.338 7.647.502 11.47q.183 4.17.375 8.34l.107 2.651.112 2.427.092 2.153L124 107h1c.103 1.58.13 3.166.125 4.75l.008 2.672c-.122 2.367-.312 4.354-1.133 6.578h-2c-.662 1.98-.662 1.98-1 4q-.063-3 0-6h1c.03-2.55-.006-5.073-.086-7.621l-.064-2.347a1679 1679 0 0 0-.147-4.93c-.078-2.525-.145-5.049-.21-7.573l-.141-4.775-.06-2.304c.194-3.521.194-3.521-1.292-6.45-.1-2.511-.139-4.989-.125-7.5l-.012-2.129c.01-5.244.01-5.244 1.137-6.371"/><path fill="#030385" d="M105 20h2c.26 1.822.26 1.822.275 4.406l.029 2.912-.003 3.182.013 3.229q.008 3.39.002 6.779c-.003 3.477.02 6.953.045 10.43q.004 3.281.002 6.562l.028 3.182-.019 2.912.002 2.584L107 68h-3c-.328-1.652-.328-1.652-.25-3.937.015-.731.03-1.462.047-2.215.11-1.545.236-3.09.445-4.626 1.11-8.274.794-16.57.662-24.899-.03-2.026-.048-4.051-.064-6.077l-.04-1.903c-.011-1.732-.011-1.732.2-4.343"/><path fill="#0602a6" d="M74 61a52 52 0 0 1 7.063-.187l2.01.04c1.642.036 3.285.09 4.927.147l-1 3c-1.785.047-1.785.047-4.062-.25-4.195-.153-6.008.639-9.126 3.438A376 376 0 0 0 70 71q-1.73 1.492-3.5 2.938L64 76c-.334-3.061-.587-5.962 0-9 3-.937 3-.937 6-1v-2h3z"/><path fill="#05029a" d="M88 97h3l-1 3h-2zm-1 3h1c.252 2.196.432 4.358.563 6.563l.122 2.017c.276 4.95.478 9.9.565 14.858l.065 1.988c.013 1.82.013 1.82-.315 4.574h-3c-.295-2.193-.371-4.111-.328-6.309l.006-1.943q.01-2.042.04-4.083c.032-2.09.042-4.179.048-6.269l.03-3.955.014-1.906c.073-4.418.073-4.418 1.19-5.535"/><path fill="#14017f" d="M89 9c1.633-.13 1.633-.13 3.91-.133l2.502-.004 2.65.012 2.569-.012c13.947.022 13.947.022 18.869 4.575l2.094 1.87L123 17l-1 2c-1.96-.61-1.96-.61-4.375-1.75l-2.398-1.11c-1.851-.947-3.534-1.939-5.227-3.14l-1 3c-2-2.75-2-2.75-2-5-1.747-.362-1.747-.362-3.937-.379l-2.461-.103-2.602-.08q-2.532-.09-5.062-.192l-2.286-.072L89 10z"/><path fill="#0902b1" d="M49 60h2v2h2v3q2.495.524 5 1c1.438 1.5 1.438 1.5 2 3l-2 1v1c-2.738.076-5.465-.005-8.203-.062-2.471.055-4.447.346-6.797 1.062l1.063-1.812c1.27-2.296 1.27-2.296-.063-5.188 1.938-.687 1.938-.687 4-1l-.25 2 .25 2c2 .333 2 .333 4 0-.337-2.516-.337-2.516-1-5h-2z"/><path fill="#0801d0" d="M32 79h2v2l-3-1zm-2 2c2.651 2.651 2.445 4.944 2.617 8.504l.114 2.003c.38 7.38.42 14.763.4 22.151-.006 2.33 0 4.659.006 6.988q0 2.223-.004 4.444l.006 2.11c-.008 1.601-.067 3.201-.139 4.8h-1a152 152 0 0 1-.281-6.93l-.056-2.138a1986 1986 0 0 1-.163-6.807q-.102-4.465-.219-8.93l-.04-2.09C31.186 101.43 31.186 101.43 30 98c-.352-2.675-.466-5.37-.625-8.062l-.156-2.26-.133-2.15-.124-1.977C29 82 29 82 30 81"/><path fill="#0901bc" d="M50 50h1c.128 1.663.176 3.332.188 5l.042 2.813L51 60h-2v3h2c.625 2.5.625 2.5 1 5-2 .25-2 .25-4 0v-4c-1.961-.824-1.961-.824-4-1v2h-2c-.25-2-.25-2 0-4h2c.728-1.3 1.375-2.646 2-4a229 229 0 0 1 2.063-3.75l1.035-1.86z"/><path fill="#0503ad" d="M51 35c2.438.313 2.438.313 5 1l1 3c2.542.417 2.542.417 5 0v-2c2.5-.625 2.5-.625 5-1l-.312 2.438L67 41q2.486.572 5 1c.813 2.063.813 2.063 1 4-1.937-.375-1.937-.375-4-1l-1-2c-2.233-.09-2.233-.09-4.812.125-4.857.111-4.857.111-7.813-2C54 39 54 39 54 37l-3-1z"/><path fill="#060285" d="M104 120c1.922.371 1.922.371 4 1 1.25 2.063 1.25 2.063 2 4h-2v2h2v2l3 1c-2.137 2.012-3.87 2.136-6.687 2.125L103 132l1-2a95 95 0 0 0 .063-5.125l-.028-2.758zm6 5h2v2h-2z"/><path fill="#f9fafe" d="M54 87c2.563.188 2.563.188 5 1v2h2v4l10-2c-4.734 4.892-4.734 4.892-8.937 5.25C59 97 59 97 57.313 95.75L56 94l-1.75-2L53 90z"/><path fill="#0801c4" d="M38 13c2.467-.303 2.467-.303 5 0 .583 2.032.583 2.032.523 4.855l-.035 3.077-.113 3.256-.043 3.197c-.146 7.702-.146 7.702-.876 11.284-.532 2.72-.14 4.669.544 7.331l-3-1c-.373-2.16-.537-4.049-.582-6.223l-.069-1.879a369 369 0 0 1-.112-3.936c-.05-2.02-.125-4.038-.204-6.058q-.06-1.907-.115-3.814l-.07-1.847c-.03-1.689-.03-1.689.152-4.243h2v-3z"/><path fill="#0702ac" d="M59 66c3.125.313 3.125.313 6 2 .458 3.141.264 6.074-1 9-1.867.43-1.867.43-4 0-1.703-1.094-1.703-1.094-3.25-2.5l-1.578-1.406L54 72l1.438-.875c1.72-1.056 1.72-1.056 2.562-3.125z"/><path fill="#fdfdfb" d="M46 79c3.043-.277 5.972-.484 9 0 .813 2.438.813 2.438 1 5 2.015.733 2.015.733 4 1v2h2v2c-1.645-.059-1.645-.059-3.812-.437-3.055-.53-4.132-.582-7.188.437-1.375-2.375-1.375-2.375-2-5l3-1v-2c-1.958-.333-1.958-.333-4 0l-1 2z"/><path fill="#0801cd" d="M33 100h2c.296 2.284.448 4.45.52 6.746l.08 2.078q.079 2.182.143 4.366c.07 2.235.165 4.468.263 6.703q.072 2.114.139 4.228c.03.673.062 1.346.094 2.04.042 1.88.042 1.88-.239 4.839l-3 1q-.075-6.835-.11-13.672-.016-2.328-.04-4.656a973 973 0 0 1-.045-6.672l-.032-2.121c0-1.628.102-3.256.227-4.879"/><path fill="#0b00e3" d="m10 34 4 2c.418 2.51.56 4.498.5 7l.047 1.945C14.53 46.812 14.53 46.812 14 50l-4 2z"/><path fill="#040197" d="M90 77q.53 1.993 1 4l2 2h-2c-.246 2.289-.246 2.289-.125 5l.055 2.813L91 93l-3.71-3.809C85.987 87.878 85.987 87.878 84 87c.34-6.11.34-6.11 2.438-8.937C88 77 88 77 90 77"/><path fill="#0403a4" d="M73 20h2c.498 3.381.324 6.837.313 10.25l.048 2.934.002 2.832.01 2.602C74.926 41.465 73.875 42.856 72 45v-3c-1.97-.743-1.97-.743-4-1 .75-2 .75-2 2-4 2.125-.25 2.125-.25 4 0l-1-3a146 146 0 0 1-.187-7.187l-.038-1.983c-.005-1.612.1-3.223.225-4.83"/><path fill="#0702d0" d="M21 10h10l-1 2 2.5.938L35 14l-1 3c-2.723.363-2.723.363-6.062.313L24.59 17.3 22 17v-2h4v-2h-2v-2z"/><path fill="#080684" d="M88 62c3.37-.225 5.781-.073 9 1h3c-.875 1.5-.875 1.5-2 3h-2l-.375 2.813C95 72 95 72 93.063 73.937L91 75l-2-1 2.313-2.187L93 69c-1.032-1.674-2.228-2.67-3.766-3.887L88 64z"/><path fill="#fdfcfe" d="M45 81h3l2.125-.187L52 81l1 3c-1.437 1.188-1.437 1.188-3 2l2.375 2.25C54.471 90.334 55.872 92.232 57 95c-3.878-1.602-6.453-4.086-9.375-7l-1.441-1.367C44.852 85.313 44.852 85.313 43 83z"/><path fill="#3510dc" d="M2 118h3l-.125 2.488L5 123c2.28.537 2.28.537 5 .188 2.813-.208 2.813-.208 5-.188v2l-2.5-.062L10 125v3h1.813c2.187 0 2.187 0 3.937 1.375C17 131 17 131 17 133c-5.831-1.28-9.335-4.33-13-9-1.014-2.051-1.506-3.748-2-6"/><path fill="#010580" d="M105 117c1.938.313 1.938.313 4 1l1 3h2l.313 2 .687 2c2.542.333 2.542.333 5 0l-1 3a64 64 0 0 1-4 0l-1 2-2-1v-2h2v-2h-2c-3.744-3.299-3.744-3.299-5-5zm3 8h2v2h-2z"/><path fill="#0503aa" d="M68 20h1c-.077 3.228-.182 6.446-.39 9.668-.127 2.264-.127 2.264.39 5.332 2.51.458 2.51.458 5 0v2a156 156 0 0 1-5 2l-2 2-2-6h2a81 81 0 0 0 .063-6.937C67 25.703 66.98 23.36 67 21z"/><path fill="#02048c" d="M98 68c3.063.063 3.063.063 6 1 .625 3.063.625 3.063 0 6-2 .25-2 .25-4 0v2c-2.012.371-2.012.371-4 0-.207-1.715-.207-1.715.188-3.937l.355-2.215C97 69 97 69 98 68"/><path fill="#7c44d3" d="M11 12c-.875 3-.875 3-2 6H7v2H5v3H3c-.246 2.518-.246 2.518-.125 5.5l.055 3.094L3 34l-2-1C.09 27.392.915 22.787 4 18c4.386-6 4.386-6 7-6"/><path fill="#0802c2" d="m44 39 2 2h-2zm-2 2h2v6h2l-1 3-3-1v2h2c.313 3 .313 3 0 6h-3c-.582-2.625-.582-2.625-.812-6l-.27-3.375L40 45h2v-4"/><path fill="#fbfdfc" d="M59 45c3.067-.34 5.952-.556 9 0 1.625 2.875 1.625 2.875 2 6l-1 2c-2.562.438-2.562.438-5 0-.187-2.5-.187-2.5 0-5h-2v-2z"/><path fill="#9b4fbe" d="m22.98 7.867 1.736-.003q1.81 0 3.619.006c1.856.005 3.713 0 5.57-.007q1.756 0 3.513.004l3.243.004L43 8v1c-1.904.223-3.817.374-5.73.5l-1.78.123q-2.839.194-5.678.377-2.811.184-5.623.377-2.57.175-5.143.342c-2.748.254-5.355.68-8.046 1.281 3.628-3.974 6.754-4.127 11.98-4.133"/><path fill="#0603a1" d="M81.75 52.625 84 53v2q-2.491 1.021-5 2l-1 2 2 1-1 2-2.5-.625L74 61c-.914 1.907-.914 1.907-1 4l-2-1v-2h2l.875-2.25c1.67-4.081 3.368-6.51 7.875-7.125"/><path fill="#0901de" d="M16 98h2c.685 3.066.704 6.243.875 9.375l.219 2.695.148 2.578.152 2.38L19 117c-2.015 1.272-2.015 1.272-4 2 .11-3.5.24-7 .375-10.5l.094-3.035.117-2.871.095-2.666z"/><path fill="#e9ebfe" d="M86 74h2c-1.321 2.932-2.746 4.987-5.04 7.234l-1.757 1.739-1.828 1.777-1.852 1.824Q75.27 88.794 73 91l-1-2c.926-1.473.926-1.473 2.313-3.062l1.363-1.598C77 83 77 83 79 82l1-3 1.938-.437L84 78c1.134-2.017 1.134-2.017 2-4"/><path fill="#04039d" d="M80 35h2c.736 2.935.796 5.987 1 9l.27 2.602c.288 4.226.288 4.226-.27 6.398-3 .563-3 .563-6 0l1-3h2c.096-2.53.091-4.974 0-7.5s-.096-4.97 0-7.5"/><path fill="#0900d5" d="M26 66h2c.265 1.721.522 3.445.715 5.176C29.06 73.387 29.853 75.088 31 77l-2.937-.125L25 77l-1 2c-.195-4.864.031-8.516 2-13"/><path fill="#030488" d="m105 54 1 2-1 3c-.068 1.499-.085 3-.062 4.5l.027 2.344L105 68v3l-1-2h-5v-2l2-1c.356-2.845.444-5.667.559-8.531.145-.815.29-1.63.441-2.469z"/><path fill="#0701b6" d="M52 10h10l-1 3h2v2c-3.032.593-5.968.57-9 0-1.562-2.5-1.562-2.5-2-5"/><path fill="#04039a" d="M80 55c1.875.063 1.875.063 4 1 2.25 2.563 2.25 2.563 4 5-3.013.615-5.918 1.15-9 1-1.187-2.312-1.187-2.312-1-5z"/><path fill="#050376" d="m121 18 2 1c.45 2.18.45 2.18.688 4.875l.261 2.68C124 29 124 29 123 32h-2c-.662 1.98-.662 1.98-1 4q-.04-3.657-.062-7.312l-.026-2.092-.01-2.022-.016-1.856C120 21 120 21 121 18"/><path fill="#0602b1" d="M61 17h2c.359 3.316.037 6.674-.125 10l-.07 2.89-.125 2.735-.102 2.54L62 37c-2.042.273-2.042.273-4 0l1-3c.202-2.337.37-4.66.5-7 .194-3.499.38-6.642 1.5-10"/><path fill="#fdfcfe" d="M46 72c2.625 1.438 2.625 1.438 5 3-1.312 1.5-1.312 1.5-3 3h-3c-.25 2-.25 2 0 4-2.062-.687-2.062-.687-4-2 .125-2.625.125-2.625 1-5h2v-2z"/><path fill="#ececfd" d="M68 45c4.677 3.624 4.677 3.624 5.508 7.16.163 3.25.21 5.77-1.64 8.531C70.5 62.062 70.5 62.062 68 64l.938-2.312C70.16 58.596 71 56.348 71 53h-2c-.414-1.75-.414-1.75-.625-4l-.227-2.25z"/><path fill="#04039b" d="M74 10q2.5-.079 5-.125l2.813-.07L84 10v2c1.458 1.625 1.458 1.625 3 3-1.981-.254-3.96-.529-5.937-.812l-3.34-.458L75 13zm7 5 3 1-5 1z"/><path fill="#e5e6fa" d="m60.066 43.867 2.496.008 2.504-.008L67 44v1c-1.29.081-2.583.14-3.875.188-2.197.15-2.197.15-4.125.812-1.384 2.984-1.384 2.984-2 6h-3c-.664 2.987-.664 2.987-1 6h-1c-.583-3.354-.869-6.708 1.082-9.61C54.437 47.063 54.437 47.063 57 45c1-1 1-1 3.066-1.133"/><path fill="#0a01d6" d="M25 100h2c.494 2.94.324 5.961.313 8.938l.048 2.576.002 2.45.01 2.27L27 118l-3 1c.11-3.167.24-6.334.375-9.5.03-.906.062-1.812.094-2.746l.117-2.598.095-2.412z"/><path fill="#05039f" d="m79 90 1 2-2-1zm-7 1 1 2 2.5-.625L78 92c1.125 1.875 1.125 1.875 1 4-2.437.75-2.437.75-5 1v-2l-1.812 1C70 97 70 97 67 97v-2a105 105 0 0 1 5-4"/><path fill="#1c1897" d="M74 61a52 52 0 0 1 7.063-.187l2.01.04c1.642.036 3.285.09 4.927.147l-1 3c-1.82.117-1.82.117-4.125-.125-5.284-.22-8.04 1.673-11.875 5.125-.125-2.5-.125-2.5 0-5h2z"/><path fill="#120d86" d="M88 75v3a183 183 0 0 1-3.84 3.664c-1.413 1.398-1.413 1.398-1.66 4.086L82 88c-2.312.688-2.312.688-5 1a86 86 0 0 0-4 2c4.66-5.684 9.753-10.858 15-16"/><path fill="#0801b9" d="m52 17 2 2-1 1a55 55 0 0 0-.246 3.816l-.1 2.315q-.091 2.437-.172 4.875l-.103 2.31-.076 2.14L52 37h-2c-.259-1.513-.259-1.513-.266-3.613l-.007-2.283.023-2.416-.023-2.381.007-2.295.007-2.11c.29-2.131.942-3.23 2.259-4.902"/><path fill="#a157a4" d="M123 19c2 1 2 1 3.113 3.414 1.391 4.56 1.138 9.24 1.075 13.961l-.002 2.809c-.034 4.989-.034 4.989-.186 6.816h-1a58 58 0 0 1-.246-4.086l-.1-2.57q-.09-2.708-.172-5.414l-.103-2.578-.076-2.38c-.14-2.203-.14-2.203-2.303-3.972-.125-3.125-.125-3.125 0-6"/><path fill="#5f3a97" d="m118 124 4 2c-7.114 6.704-7.114 6.704-12 7v-2h3v-3l1.938.063L117 128c.824-1.961.824-1.961 1-4"/><path fill="#030290" d="M91 10c3 .375 3 .375 6 1v2h-2v2h-2c-1.125-2.5-1.125-2.5-2-5m6 5c-1.008 2.605-1.466 3.757-4.062 4.938L91 20l-1-3c2.409-1.237 4.276-2 7-2"/><path fill="#0f00d8" d="M16 10c1.848.05 1.848.05 4.063.313l2.222.238L24 11v2h2v2c-4.973.452-4.973.452-7 0l-1-3-3-1z"/><path fill="#0901e6" d="M9 103h1c.128 1.83.176 3.666.188 5.5l.042 3.094L10 114H8c-.23-2.152-.23-2.152-.187-4.937l.019-2.778C8 104 8 104 9 103m-2 11h1q.063 2.5 0 5l-5-1 3-1z"/><path fill="#0b00d7" d="M22 121c1.5.875 1.5.875 3 2v2h2c.313 2.438.313 2.438 0 5l-3 1 .25-2.5L24 126c-2-.417-2-.417-4 0z"/><path fill="#05029b" d="M84 88c2.438.25 2.438.25 5 1 1.063 1.813 1.063 1.813 1 4-1.812 2.313-1.812 2.313-4 4-2-1-2-1-3-3 1.438-1.625 1.438-1.625 3-3h-2z"/><path fill="#f8f7fe" d="M53 70c-2.31 1.283-4.129 2.023-6.75 2.5L44 73v2h-2c-.663 2.484-.663 2.484-1 5-1.664-1.305-1.664-1.305-3-3 .914-1.57.914-1.57 2.625-3.125l1.664-1.57C45.694 69.708 48.886 69.909 53 70"/><path fill="#060392" d="m96 66 3 4-2 1-.875 2.5C95 76 95 76 92.875 76.813L91 77c.313-1.937.313-1.937 1-4l3-1c.74-3.023.74-3.023 1-6"/><path fill="#0602d8" d="M14 12c1.938-.25 1.938-.25 4 0l1 2 3 1c-.312 2.563-.312 2.563-1 5-2-.812-2-.812-4-2v-3l-3-1z"/><path fill="#0601ae" d="M62 10c2.582-.743 4.268-.397 7 0 .813 2.5.813 2.5 0 5-3 .438-3 .438-6 0v-2h-2z"/><path fill="#0702c7" d="m42 10-2 .313L38 11v3h3v3c-2.437.438-2.437.438-5 0-.625-1.875-.625-1.875-1-4-1.478-1.265-1.478-1.265-3-2 3.591-1.197 6.231-1.071 10-1"/><path fill="#fffffb" d="M78 66h2v3h-2v2h-2c.875-3.875.875-3.875 2-5m-4 5h2v4h2l-1 3c-2.062-1.25-2.062-1.25-4-3 .125-2.187.125-2.187 1-4"/><path fill="#040498" d="m87 78 2 1c.625 2.563.625 2.563 1 5h-2v3c-2.062.625-2.062.625-4 0 .23-6.23.23-6.23 3-9"/><path fill="#040386" d="M99 10c2.697-.375 5.307-.414 8 0 1.125 1.75 1.125 1.75 1 4-.937 2.25-.937 2.25-2 4-1.467-2.054-2.178-3.535-3-6-2.025-.652-2.025-.652-4-1z"/><path fill="#251ea4" d="m70 62 1 2c-1.113 1.602-1.113 1.602-3 3-2.48.398-2.48.398-5.187.375l-2.731.023L58 67v-3c1.863-.223 1.863-.223 4.313-.062 3.456.217 4.87.012 7.687-1.938"/><path fill="#06027f" d="M111 119h2v2l2.5-.125 2.5.125c.625 2 .625 2 0 4-2.375.625-2.375.625-5 0-1.312-3-1.312-3-2-6"/><path fill="#040486" d="M107 67h1c.203 1.969.203 1.969.25 4.5l.078 2.531L108 76h-3c-.875-2.25-.875-2.25-1-5 1.375-2.312 1.375-2.312 3-4"/><path fill="#0d00e7" d="m3 25 3 1c.04 1.333.043 2.667 0 4h2c.25 2.5.25 2.5 0 5H6c-.125-2-.125-2 0-4l-3 1z"/><path fill="#6b4297" d="M113 10c4.55 1.264 7.012 3.485 10 7l-1 2c-2.437-.562-2.437-.562-5-2a78 78 0 0 1-2-5l-3-1z"/><path fill="#0402a0" d="M78 92c2.38.41 3.925.949 5.938 2.313L85 96c-1.312 2.188-1.312 2.188-3 4-4-4.625-4-4.625-4-8"/><path fill="#e6e9ff" d="M46 85c4.586 1.441 6.89 3.457 10 7l1 3c-3.187-1.403-5.322-3.078-7.75-5.562l-1.86-1.88C46 86 46 86 46 85"/><path fill="#e0e2fc" d="M85 63c4.48 1.37 6.735 2.962 9 7-1.75 1.813-1.75 1.813-4 3l.125-2.5L90 68h-2v-3l-3-1z"/><path fill="#1a12a5" d="M51 50h1c.515 2.757.906 5.525 1.305 8.3C54.05 61.2 54.874 62.027 57 64l-1 2-3-1v-3h-2c-.23-2.625-.23-2.625-.187-6l.019-3.375z"/><path fill="#020481" d="M113 114c2.125.125 2.125.125 4 1v3c-2 1.688-2 1.688-4 3v-2h-2l-1 2c1.043-5.043 1.043-5.043 3-7"/><path fill="#f9f9fe" d="m67 57 2 1c-.581 5.581-.581 5.581-2 7-1.666.04-3.334.043-5 0 .813-1.562.813-1.562 2-3l3 1v-2h-2c.875-2.062.875-2.062 2-4"/><path fill="#0e0895" d="m63.625 41.75 2.414-.078L68 42l1 3a639 639 0 0 1-6.5.125c-.62.017-1.24.034-1.879.05-1.541.018-3.083-.07-4.621-.175v-2c2.793-.931 4.72-1.193 7.625-1.25"/><path fill="#0802e3" d="M6 23c2 1 2 1 3.125 3.188.958 3.08 1.024 5.605.875 8.812l-2-1v-4H6c-.195-1.531-.195-1.531-.125-3.5l.055-1.969z"/><path fill="#030488" d="M99 11c2.438-.25 2.438-.25 5 0l1 2h-2v2h-2v-2h-2zm5 3 2 2-3 1zm-5 3 4 1-4 1z"/><path fill="#0802c1" d="m48 10 1 3c-1.833.054-3.666.093-5.5.125l-3.094.07L38 13v-2c3.257-1.253 6.554-1.306 10-1"/><path fill="#0901bf" d="M42 82c2.371 1.53 3.785 2.543 5 5.125V89c-1.812.938-1.812.938-4 1-1.312-1.125-1.312-1.125-2-3 .375-2.687.375-2.687 1-5"/><path fill="#05038f" d="M89 75h2v2l2.438-1.25L96 75c1.25 1.813 1.25 1.813 1 4-2.316 1.054-4.482 1.38-7 1-.937-2.437-.937-2.437-1-5"/><path fill="#1b15bb" d="M41 69h2c-.376 2.782-.673 4.588-2.437 6.813C39 77 39 77 37 77c-1.125-2-1.125-2-2-4l3 .25 3-.25c.333-2 .333-2 0-4"/><path fill="#0603bf" d="m45 58 3 1c.438 2.063.438 2.063 0 4-2 .125-2 .125-4 0v2h-2c-.25-2-.25-2 0-4h2z"/><path fill="#0402a2" d="m79 12.813 2.188-.043L83 13l1 2c-2.25 1.188-2.25 1.188-5 2-3-1-3-1-5-3 1.518-1.518 2.897-1.169 5-1.187"/><path fill="#040394" d="M84 10c4.725-.525 4.725-.525 7 0 1.227 1.523 1.227 1.523 2 3-1.5.08-3 .139-4.5.188l-2.531.105L84 13z"/><path fill="#0701c6" d="M40 96c2.701.05 4.522.103 7 1l1 2-8 2c-.437-2.562-.437-2.562 0-5"/><path fill="#02048a" d="m103 71 1 4-2-.125-2 .125v2c-2 .125-2 .125-4 0 .188-1.937.188-1.937 1-4 2.5-.687 2.5-.687 5-1z"/><path fill="#0d08b4" d="M48 64c.625 2.5.625 2.5 1 5h-2v2c-2 .625-2 .625-4 1l1.063-1.812c1.27-2.296 1.27-2.296-.063-5.188 2-1 2-1 4-1"/><path fill="#010572" d="m123 25 2 1c.3 2.066.3 2.066.313 4.563l.05 2.503L125 35h-3c-.512-3.33.403-6.716 1-10"/><path fill="#0701a2" d="m78 87 3 1-2 1-1 2c-1 2-1 2-3 3l-2-1v-2c2.313-2.187 2.313-2.187 5-4"/><path fill="#fdfef9" d="M46 79c1.5-.08 3-.139 4.5-.187l2.531-.106L55 79v3c-3.437-.437-3.437-.437-5.371-.871L48 81l-1 2z"/><path fill="#1d18a3" d="M54 71c2-.125 2-.125 4 0v2l3-1c1.188 2.938 1.188 2.938 2 6-3.89-1.585-6.156-3.998-9-7"/><path fill="#2f03bd" d="m21.688 8.75 2.126.016c1.73.027 3.46.124 5.186.234v1c-2.068.218-4.113.38-6.187.5-4.03.253-7.872.61-11.813 1.5 2.755-4.01 6.281-3.382 10.688-3.25"/><path fill="#040497" d="m88 55 4 1c-.687 2.063-.687 2.063-2 4-2.562-.125-2.562-.125-5-1l-1-2 2 .125L88 57z"/><path fill="#fefcfe" d="m65 47 1 2 3 1v3c-2.5.5-2.5.5-5 0-.375-2.437-.375-2.437 0-5z"/><path fill="#0702b1" d="M51 35c2.71.155 4.466.482 6.445 2.402A88 88 0 0 1 61 42l-3 1c-2.187-1.812-2.187-1.812-4-4v-2l-3-1z"/><path fill="#0901d3" d="M20 117c2.169.506 4 1 6 2 .125 3.063.125 3.063 0 6-1.5-1.312-1.5-1.312-3-3v-3h-3z"/><path fill="#0701c0" d="M47 89c2 1.375 2 1.375 4 3v2h2v2c-2.46-.411-4.776-.841-7-2 .063-2.625.063-2.625 1-5"/><path fill="#0a00cf" d="m35 76 1 3c-2.25 1.063-2.25 1.063-5 2-1.735 1.044-1.735 1.044-3 2 .188-3 .188-3 1-6 2.5-.312 2.5-.312 5 0z"/><path fill="#0d04b6" d="M35 74c5.429 5.286 5.429 5.286 7 8-4.75-.75-4.75-.75-7-3-.125-2.625-.125-2.625 0-5"/><path fill="#0501a5" d="M84 53v2c-2.882 1.402-4.77 2-8 2l1-3c2.49-1.245 4.25-1.217 7-1"/><path fill="#01067e" d="M110 13c2.987.996 4.908 2.699 7 5h-2l-1 2v-3l-2.562-.5L109 16z"/><path fill="#0701e0" d="M17 121c2.563-.25 2.563-.25 5 0-.75 2-.75 2-2 4-2.125.25-2.125.25-4 0 .188-2 .188-2 1-4"/><path fill="#fdfdfd" d="M42 75c2.125-.187 2.125-.187 4 1-.25 3.063-.25 3.063-1 6-2.062-.687-2.062-.687-4-2 0-2.687 0-2.687 1-5"/><path fill="#f7f7fd" d="M90 70c-.25 2.5-.25 2.5-1 5-2.062.563-2.062.563-4 0-.437-1.937-.437-1.937 0-4 3-1 3-1 5-1"/><path fill="#030397" d="M88.188 12.5 90 13c.688 2 .688 2 0 4-2.353.397-4.632.217-7 0 2.417-3.867 2.417-3.867 5.188-4.5"/><path fill="#0d00e9" d="M12.125 116.688 14 117v2l-1.937.375L10 120c-.814 2.006-.814 2.006-1 4-1.202-3.486-1.202-3.486-.312-5.75C10 117 10 117 12.125 116.688"/><path fill="#0c00dd" d="M16.824 118.855c1.926.27 1.926.27 5.176 1.145v1a181 181 0 0 1-11 3c3-4.92 3-4.92 5.824-5.145"/><path fill="#15119c" d="m72 91 1 2 2 1c-4.625 3-4.625 3-8 3v-2a105 105 0 0 1 5-4"/><path fill="#030486" d="M105 59h1c.422 1.969.422 1.969.75 4.5l.36 2.531L107 68h-3c-.328-1.715-.328-1.715-.25-3.937.015-.731.03-1.462.047-2.215C104 60 104 60 105 59"/><path fill="#0a02b7" d="M50 50h1c.476 5.351.476 5.351-1.375 7.875C48 59 48 59 46 59c1.197-3.077 2.395-6.11 4-9"/><path fill="#0801ae" d="M63 41c6.517-.241 6.517-.241 9 1 .625 2.063.625 2.063 1 4-1.937-.375-1.937-.375-4-1l-1-2c-1.66-.364-3.327-.7-5-1z"/><path fill="#1811b2" d="m54 41 2 1c.625 2.063.625 2.063 1 4h-2l-1 3h-1c-.176-4.841-.176-4.841 0-7z"/><path fill="#4011cb" d="M9 12h2c-.875 3-.875 3-2 6H7v2l-2-1c2.333-5.333 2.333-5.333 4-7"/><path fill="#0503a6" d="M69 10c2.438-.437 2.438-.437 5 0l1 3c-2.937.938-2.937.938-6 1-.687-1.937-.687-1.937 0-4"/><path fill="#0701b2" d="M58 10c2.063.313 2.063.313 4 1l-1 2h2v2c-2.169-.506-4-1-6-2z"/><path fill="#7241cf" d="M10 128c2.605-.27 3.65-.275 5.75 1.375C17 131 17 131 17 133c-2.937-.812-2.937-.812-6-2z"/><path fill="#050379" d="M118 117h2c1.354 2.709 1.065 5.01 1 8-1.5-1.187-1.5-1.187-3-3-.312-2.687-.312-2.687 0-5"/><path fill="#fcfef9" d="m58 84 2 1v2h2v2c-2.937-.25-2.937-.25-6-1l-1-2c1.313-1.187 1.313-1.187 3-2"/><path fill="#120c98" d="m69 69 2 1-7 6v-6l1 2 1.875-1.562z"/><path fill="#e5e8ff" d="m73 67 1 4c-1.145 1.3-1.145 1.3-2.812 2.313l-1.645 1.05L68 75l-2-1z"/><path fill="#0703ca" d="M37 69c2.063-.437 2.063-.437 4 0 .25 2 .25 2 0 4-2.562-.312-2.562-.312-5-1z"/><path fill="#fdfeff" d="m74 67 3 1-1 3-3-1zm-2 4h2l-1 2z"/><path fill="#08068a" d="M88 62c3-.125 3-.125 6 0l-2 5c-2-1.375-2-1.375-4-3z"/><path fill="#fefefd" d="M67 55c2.563.313 2.563.313 5 1-.75 2.125-.75 2.125-2 4-2.187-.562-2.187-.562-4-2z"/><path fill="#0c00e3" d="m11 17 2 1c-.46 2.066-.46 2.066-1.375 4.563l-.898 2.503L10 27c-.826-3.1-1.261-5.775-1-9z"/><path fill="#000686" d="M105 117c1.938.25 1.938.25 4 1 .75 2.063.75 2.063 1 4-2.5-.812-2.5-.812-5-2z"/><path fill="#0704b8" d="M44 93c3 .875 3 .875 6 2v2c-3-.187-3-.187-6-1z"/><path fill="#e9eafe" d="M78 83c0 3 0 3-1.312 4.387L75 88.687l-1.687 1.325L72 91c1.27-3.914 2.512-5.79 6-8"/><path fill="#eaecff" d="m58 75 2.313 1.125c2.582 1.184 2.582 1.184 4.5 0L66 75c-.75 1.938-.75 1.938-2 4-2 .875-2 .875-4 1l-2-2z"/><path fill="#e2e4fd" d="M53 58c2.207 1.104 3.087 2.16 4.625 4.063l1.352 1.66L60 65c-2.915-1.074-4.778-1.778-7-4z"/><path fill="#fefef8" d="M59 46h3v2h2v3h-3v-2h-2z"/><path fill="#0603e2" d="M10 125c4.75 1.875 4.75 1.875 7 3v2h-3v-2c-.99.03-.99.03-2 .063L10 128z"/><path fill="#5b3a92" d="m118 124 4 2-5 4z"/><path fill="#0801c7" d="m47 89 1 3c-1 1-1 1-3.562 1.188L42 93v-2c1.813-1.484 2.623-2 5-2"/><path fill="#fefefd" d="M65 87c1.625 1.188 1.625 1.188 3 3-.062 2.25-.062 2.25-1 4-2.062-.25-2.062-.25-4-1h3l-1.062-2.437L64 88z"/><path fill="#05029d" d="M84 81h2c-.25 1.875-.25 1.875-1 4-2.062 1.25-2.062 1.25-4 2 1.875-4.875 1.875-4.875 3-6"/><path fill="#fefffa" d="m70 74 2 1v2c-1.312 1.188-1.312 1.188-3 2l-3-1c1.875-2.062 1.875-2.062 4-4"/><path fill="#0900d2" d="M29 73h4l-2 4zm-1 3 2 1c-.875 2.063-.875 2.063-2 4z"/><path fill="#0a00cc" d="M28 67h3c.375 3 .375 3 0 6h-3c-.375-3-.375-3 0-6"/><path fill="#fefef9" d="m83 69 2 2-1 2h-2v2h-2l-1-3c1.813-1.812 1.813-1.812 4-3"/><path fill="#e8eafc" d="m81 63-1 3c-3.062.688-3.062.688-6 1 3.625-4 3.625-4 7-4"/><path fill="#fefefa" d="m62 58 3 1v2h2v2c-2.5-.25-2.5-.25-5-1-.312-2.062-.312-2.062 0-4"/><path fill="#06029c" d="M84 53c2.063.125 2.063.125 4 1v3c-2.562-.312-2.562-.312-5-1z"/><path fill="#633c8e" d="m123 19 2 1c.588 2.314.74 4.62 1 7-1.5-.625-1.5-.625-3-2-.187-3.125-.187-3.125 0-6"/><path fill="#010575" d="M119.188 17.25 121 18l-1 3c-2.562-.187-2.562-.187-5-1v-2c2-1 2-1 4.188-.75"/><path fill="#0602af" d="M56 15c1.531-.266 1.531-.266 3.5-.25l1.969-.016L63 15v2c-3.084 1.028-4.059 1.116-7 0z"/><path fill="#06039e" d="M74 10q2.5-.04 5-.062l2.813-.036L84 10v1c-1.934.64-1.934.64-4.437 1.25l-2.497.64L75 13z"/><path fill="#0602ab" d="M65 10c2 .25 2 .25 4 1 .438 2.063.438 2.063 0 4h-3c-.687-2.5-.687-2.5-1-5"/><path fill="#1300de" d="M17 128c2 .313 2 .313 4 1v3c-3-.312-3-.312-6-1l2-1z"/><path fill="#040385" d="M106 124h2l-1 5-2-1c.25-2.062.25-2.062 1-4m2 4 1 4c-1.062-1.437-1.062-1.437-2-3z"/><path fill="#7c4ddb" d="M2 118h3c.043 1.666.04 3.334 0 5l2 1H4c-1.187-3-1.187-3-2-6"/><path fill="#0802d9" d="M18 114h2l-.062 2.5L20 119h3l-1 2c-2.625-.562-2.625-.562-5-2 .063-2.625.063-2.625 1-5"/><path fill="#0c00e7" d="M7 114h1q.063 2.5 0 5l-5-1 3-1z"/><path fill="#fefeff" d="M81 75c.75 1.875.75 1.875 1 4-1.937 1.25-1.937 1.25-4 2-.75-1.875-.75-1.875-1-4 1.938-1.25 1.938-1.25 4-2"/><path fill="#fefef8" d="m74 72 2 1v2h2l-1 3c-2.062-1.312-2.062-1.312-4-3z"/><path fill="#fafcfc" d="m81 63 5 1-2 1-1 3-2-2z"/><path fill="#0505d1" d="M18 125c2.5.313 2.5.313 5 1v3c-1.937-.312-1.937-.312-4-1z"/><path fill="#0701c5" d="M39 82h3l1 3c-1.437 1.688-1.437 1.688-3 3-.687-3-.687-3-1-6"/><path fill="#fcfdf6" d="M49 71c2 .313 2 .313 4 1v3c-2-.312-2-.312-4-1z"/><path fill="#c1c0f4" d="M53 70c-2.967 1.648-5.656 2.443-9 3v-2c3.196-1.065 5.657-1.074 9-1"/><path fill="#0900d4" d="M32 67h3c-.812 2-.812 2-2 4h-3v-2h2z"/><path fill="#030488" d="M104 128c2 .875 2 .875 4 2v2c-2.5.125-2.5.125-5 0z"/><path fill="#0903e0" d="M5 119h3c.188 2.5.188 2.5 0 5l-3-1c-.375-2.062-.375-2.062 0-4"/><path fill="#fefdf5" d="M62 90c2.063.125 2.063.125 4 1v2c-2.5.625-2.5.625-5 1 .25-2.062.25-2.062 1-4"/><path fill="#fcfdfc" d="M82 73h3c-.312 2.563-.312 2.563-1 5l-3-1c.125-2.062.125-2.062 1-4"/><path fill="#0900d9" d="M26 66h2c-.023 1.531-.023 1.531-.375 3.5l-.336 1.969L27 73l-2-2c.25-2.625.25-2.625 1-5"/><path fill="#07049a" d="M81 59c2.938-.125 2.938-.125 6 0l1 2c-2.375.688-2.375.688-5 1-1.312-1.437-1.312-1.437-2-3"/><path fill="#040391" d="M97 58c-.312 2.563-.312 2.563-1 5l-3-1v-3c2-1 2-1 4-1"/><path fill="#0704a0" d="M70 37h2c.375 2 .375 2 0 4-2 .25-2 .25-4 0 .875-2 .875-2 2-4"/><path fill="#0700ba" d="M53 37a105 105 0 0 1 5 4v2c-2.468-1.152-4.048-2.048-6-4z"/><path fill="#05028f" d="M90 17c3-.125 3-.125 6 0-1.312 1.563-1.312 1.563-3 3l-3-1z"/><path fill="#08027b" d="M113 12c2.063.25 2.063.25 4 1-.25 2.063-.25 2.063-1 4-1.5-.812-1.5-.812-3-2z"/><path fill="#0602d6" d="M23 126h1c.25 3 .25 3 0 6h-3v-3h2z"/><path fill="#030497" d="M82 91c2-.125 2-.125 4 0l-1 3-3-1z"/><path fill="#0c05ac" d="m42 82 4 4-4 1z"/><path fill="#fdfef3" d="M66 84c1.625 1.313 1.625 1.313 3 3v2c-3.875-1.75-3.875-1.75-5-4z"/><path fill="#0803b6" d="M54 66c2.438.375 2.438.375 5 1l1 2c-2.437.188-2.437.188-5 0z"/><path fill="#04019b" d="m80 58 3 1v3l-5-1 2-1z"/><path fill="#fdfefa" d="M55 57c2.063-.125 2.063-.125 4 0l-1 3c-2.062-.312-2.062-.312-4-1z"/><path fill="#0802c6" d="M44 48c1.25 1.813 1.25 1.813 2 4l-2 2v-3h-2v-2z"/><path fill="#0602a6" d="m72 38 2 1c-.375 3.063-.375 3.063-1 6l-1-3-2-1h2z"/><path fill="#03026f" d="m123 25 2 1c.125 3.063.125 3.063 0 6l-3-1c.313-3.062.313-3.062 1-6"/><path fill="#000582" d="M110 16c-.312 2.063-.312 2.063-1 4l-3-1v-2c2-1 2-1 4-1"/><path fill="#04038a" d="M99 13h2v2h2v2c-2 .375-2 .375-4 0-.375-2-.375-2 0-4"/><path fill="#000580" d="M110 121h2c.625 2 .625 2 1 4h-3l-1-3z"/><path fill="#00067c" d="M115 118h3v3c-2 .188-2 .188-4 0z"/><path fill="#020375" d="M124 107c.625 1.875.625 1.875 1 4l-2 2-1-4h2z"/><path fill="#0403a3" d="M78 92c2.063.313 2.063.313 4 1l-1 3c-1.5-.875-1.5-.875-3-2z"/><path fill="#04019b" d="M91 74c2-.187 2-.187 4 0l-1 3h-3z"/><path fill="#040583" d="M104 71h3c-.375 2-.375 2-1 4h-2c-.312-2-.312-2 0-4"/><path fill="#0a02a9" d="M70 64h1c.25 2.5.25 2.5 0 5h-3v-3h2z"/><path fill="#0801c4" d="M48 65c2 .375 2 .375 4 1v2c-2 .313-2 .313-4 0z"/><path fill="#090b94" d="m71 64 3 1c-.75 2.063-.75 2.063-2 4h-1a100 100 0 0 1 0-5"/><path fill="#0e089e" d="M53 61c2.063 1.375 2.063 1.375 4 3l-1 2-3-1c-.187-2.062-.187-2.062 0-4"/><path fill="#040298" d="M88 55c2.063.313 2.063.313 4 1l-1 3-3-1z"/><path fill="#fafefd" d="M54 51c1.188 1.25 1.188 1.25 2 3-1.375 2.188-1.375 2.188-3 4-.043-2-.04-4 0-6z"/><path fill="#0b03dd" d="m10 14 3 1c-.875 1.5-.875 1.5-2 3H9c.313-2.062.313-2.062 1-4"/><path fill="#af85db" d="m14 9 3 1-2 2c-2.125-.375-2.125-.375-4-1 1.313-1.062 1.313-1.062 3-2"/><path fill="#0f00db" d="m22 121 2 1v3l-4-1c.875-1.562.875-1.562 2-3"/><path fill="#0a00e4" d="M18 121c2-.125 2-.125 4 0l-1 3-3-1z"/><path fill="#0702d7" d="m25 114 2 1c-.25 2.063-.25 2.063-1 4h-2z"/><path fill="#f0f2ff" d="m68 92 3 1-5 3c.813-2.062.813-2.062 2-4"/><path fill="#0502a0" d="M84 88c2 .875 2 .875 4 2v2c-2-.312-2-.312-4-1z"/><path fill="#0704d0" d="m35 80 3 1v3h-3c-.187-2-.187-2 0-4"/><path fill="#e1e1ff" d="m45 81 2 2-2 2c-1.125-1.437-1.125-1.437-2-3z"/><path fill="#fffff7" d="M50 79c2.5-.25 2.5-.25 5 0v3a125 125 0 0 1-5-2z"/><path fill="#020390" d="M101 69h3l-1 3h-3z"/><path fill="#f9fefd" d="m61 61 2 1-1 3-3-1c.875-1.562.875-1.562 2-3"/><path fill="#0701c7" d="m45 52 2 1c-.25 2.063-.25 2.063-1 4h-2z"/><path fill="#0701da" d="m19 16 3 1-1 3-3-1z"/><path fill="#0802e0" d="M14 12c2-.125 2-.125 4 0l-1 3-3-1z"/><path fill="#0703e2" d="m10 120 4 1-4 2z"/><path fill="#f3f2fe" d="M79 80h2l-1 4-3-2h2z"/><path fill="#e1dfff" d="m38 77 4 1-2 2z"/><path fill="#0a02c9" d="M34 73c.688 1.938.688 1.938 1 4l-3 1z"/><path fill="#0603b0" d="M61 68c2-.312 2-.312 4 0v2c-2 .625-2 .625-4 1z"/><path fill="#0702bd" d="m48 62 3 1v2l-5-1z"/><path fill="#0603c4" d="m42 57 4 1-3 3z"/><path fill="#0901b0" d="M59 34h2l1 3h-4z"/><path fill="#0c02e7" d="m11 17 2 1-3 3-1-3z"/><path fill="#04038c" d="M104 81h2v3h-3z"/><path fill="#0900d1" d="M29 73h4l-1 3z"/><path fill="#0703bc" d="m44 44 3 1v2h-3z"/><path fill="#0c00ef" d="m3 25 3 1-3 3z"/><path fill="#b386de" d="M9 12h2l-1 3-3-1z"/><path fill="#080082" d="M108 115h3l-1 3-2-1z"/><path fill="#0803e1" d="m10 114 3 1-1 2h-2z"/><path fill="#0802be" d="M39 82h3l-1 3-2-1z"/><path fill="#0901d8" d="M25 77h3l-1 3-2-1z"/><path fill="#f0f5ff" d="m58 75 3 3h-3z"/><path fill="#fefefa" d="M76 75h2l-1 3-2-2z"/><path fill="#fefcff" d="m49 74 2 2-3 2z"/><path fill="#0903ad" d="M66 69h2l-1 3h-2z"/><path fill="#0703b8" d="M47 56h2l-1 3h-2z"/><path fill="#060394" d="M86 50h2v3l-3-1z"/><path fill="#0302a6" d="m80 93 2 2h-3z"/></svg>