<svg width="763" height="671" viewBox="0 0 763 671" fill="none" xmlns="http://www.w3.org/2000/svg">
<rect x="238.5" y="266.5" width="206" height="47" rx="23.5" fill="#8EC5FF" fill-opacity="0.5"/>
<rect x="238.5" y="266.5" width="206" height="47" rx="23.5" stroke="black"/>
<path d="M265 284.167C265.001 283.833 264.935 283.503 264.807 283.196C264.678 282.888 264.49 282.609 264.252 282.376C264.014 282.142 263.732 281.958 263.422 281.835C263.112 281.713 262.781 281.653 262.448 281.66C262.115 281.667 261.786 281.74 261.482 281.876C261.177 282.012 260.903 282.207 260.675 282.45C260.448 282.693 260.271 282.98 260.155 283.293C260.04 283.605 259.988 283.938 260.003 284.271C259.513 284.397 259.058 284.632 258.673 284.96C258.287 285.288 257.982 285.699 257.779 286.162C257.576 286.626 257.481 287.129 257.502 287.634C257.523 288.14 257.658 288.634 257.898 289.079C257.476 289.421 257.145 289.862 256.932 290.361C256.719 290.861 256.632 291.405 256.678 291.947C256.723 292.488 256.901 293.01 257.194 293.467C257.487 293.924 257.888 294.302 258.361 294.569C258.302 295.021 258.337 295.48 258.463 295.918C258.589 296.356 258.804 296.763 259.093 297.115C259.383 297.467 259.741 297.755 260.147 297.963C260.552 298.171 260.996 298.293 261.451 298.323C261.906 298.352 262.361 298.288 262.79 298.135C263.219 297.981 263.612 297.741 263.945 297.43C264.277 297.118 264.543 296.742 264.724 296.324C264.906 295.906 265 295.456 265 295V284.167Z" stroke="black" stroke-width="1.66667" stroke-linecap="round" stroke-linejoin="round"/>
<path d="M265 284.167C264.999 283.833 265.065 283.503 265.193 283.196C265.322 282.888 265.51 282.609 265.748 282.376C265.986 282.142 266.268 281.958 266.578 281.835C266.888 281.713 267.219 281.653 267.552 281.66C267.885 281.667 268.214 281.74 268.518 281.876C268.823 282.012 269.097 282.207 269.325 282.45C269.553 282.693 269.729 282.98 269.845 283.293C269.961 283.605 270.012 283.938 269.998 284.271C270.487 284.397 270.942 284.632 271.327 284.96C271.713 285.288 272.018 285.699 272.221 286.162C272.424 286.626 272.519 287.129 272.498 287.634C272.477 288.14 272.342 288.634 272.103 289.079C272.524 289.421 272.855 289.862 273.068 290.361C273.281 290.861 273.368 291.405 273.322 291.947C273.277 292.488 273.099 293.01 272.806 293.467C272.513 293.924 272.112 294.302 271.639 294.569C271.698 295.021 271.663 295.48 271.537 295.918C271.411 296.356 271.196 296.763 270.907 297.115C270.617 297.467 270.259 297.755 269.853 297.963C269.448 298.171 269.004 298.293 268.549 298.323C268.095 298.352 267.639 298.288 267.21 298.135C266.781 297.981 266.388 297.741 266.055 297.43C265.723 297.118 265.457 296.742 265.276 296.324C265.094 295.906 265 295.456 265 295V284.167Z" stroke="black" stroke-width="1.66667" stroke-linecap="round" stroke-linejoin="round"/>
<path d="M267.5 290.833C266.8 290.587 266.189 290.139 265.744 289.546C265.299 288.953 265.04 288.241 265 287.5C264.96 288.241 264.701 288.953 264.256 289.546C263.811 290.139 263.2 290.587 262.5 290.833" stroke="black" stroke-width="1.66667" stroke-linecap="round" stroke-linejoin="round"/>
<path d="M269.666 285.417C269.868 285.067 269.982 284.674 269.999 284.271" stroke="black" stroke-width="1.66667" stroke-linecap="round" stroke-linejoin="round"/>
<path d="M260.002 284.271C260.019 284.674 260.133 285.067 260.334 285.417" stroke="black" stroke-width="1.66667" stroke-linecap="round" stroke-linejoin="round"/>
<path d="M257.897 289.08C258.05 288.956 258.213 288.845 258.385 288.75" stroke="black" stroke-width="1.66667" stroke-linecap="round" stroke-linejoin="round"/>
<path d="M271.615 288.75C271.787 288.845 271.95 288.956 272.103 289.08" stroke="black" stroke-width="1.66667" stroke-linecap="round" stroke-linejoin="round"/>
<path d="M260 295C259.426 295 258.861 294.852 258.361 294.57" stroke="black" stroke-width="1.66667" stroke-linecap="round" stroke-linejoin="round"/>
<path d="M271.639 294.57C271.139 294.852 270.574 295 270 295" stroke="black" stroke-width="1.66667" stroke-linecap="round" stroke-linejoin="round"/>
<path d="M287.24 295H285.332L288.805 285.136H291.011L294.488 295H292.581L289.946 287.159H289.869L287.24 295ZM287.302 291.133H292.504V292.568H287.302V291.133ZM297.574 285.136V295H295.787V285.136H297.574ZM303.916 289.351V290.786H299.475V289.351H303.916ZM305.827 295V285.136H309.525C310.283 285.136 310.919 285.278 311.433 285.56C311.95 285.843 312.34 286.231 312.603 286.726C312.87 287.217 313.003 287.776 313.003 288.402C313.003 289.034 312.87 289.596 312.603 290.087C312.337 290.579 311.943 290.966 311.423 291.248C310.903 291.527 310.262 291.667 309.501 291.667H307.05V290.198H309.261C309.704 290.198 310.066 290.121 310.349 289.967C310.632 289.813 310.84 289.601 310.975 289.331C311.113 289.062 311.182 288.752 311.182 288.402C311.182 288.052 311.113 287.744 310.975 287.477C310.84 287.211 310.63 287.003 310.344 286.856C310.062 286.705 309.697 286.629 309.251 286.629H307.613V295H305.827ZM317.599 295.144C316.876 295.144 316.25 294.986 315.72 294.668C315.191 294.35 314.78 293.905 314.487 293.334C314.198 292.762 314.054 292.094 314.054 291.33C314.054 290.566 314.198 289.896 314.487 289.322C314.78 288.747 315.191 288.301 315.72 287.983C316.25 287.665 316.876 287.506 317.599 287.506C318.321 287.506 318.947 287.665 319.477 287.983C320.007 288.301 320.416 288.747 320.705 289.322C320.997 289.896 321.143 290.566 321.143 291.33C321.143 292.094 320.997 292.762 320.705 293.334C320.416 293.905 320.007 294.35 319.477 294.668C318.947 294.986 318.321 295.144 317.599 295.144ZM317.608 293.748C318 293.748 318.327 293.64 318.591 293.425C318.854 293.207 319.05 292.915 319.178 292.549C319.31 292.183 319.376 291.775 319.376 291.325C319.376 290.872 319.31 290.463 319.178 290.097C319.05 289.728 318.854 289.434 318.591 289.216C318.327 288.997 318 288.888 317.608 288.888C317.207 288.888 316.873 288.997 316.607 289.216C316.343 289.434 316.146 289.728 316.014 290.097C315.886 290.463 315.821 290.872 315.821 291.325C315.821 291.775 315.886 292.183 316.014 292.549C316.146 292.915 316.343 293.207 316.607 293.425C316.873 293.64 317.207 293.748 317.608 293.748ZM323.938 295L321.848 287.602H323.625L324.925 292.804H324.993L326.322 287.602H328.08L329.409 292.775H329.481L330.763 287.602H332.545L330.45 295H328.634L327.247 290.001H327.146L325.759 295H323.938ZM336.825 295.144C336.083 295.144 335.443 294.99 334.903 294.682C334.367 294.371 333.955 293.931 333.666 293.362C333.377 292.791 333.232 292.118 333.232 291.344C333.232 290.584 333.377 289.916 333.666 289.341C333.958 288.763 334.366 288.313 334.889 287.992C335.412 287.668 336.027 287.506 336.734 287.506C337.189 287.506 337.62 287.58 338.024 287.727C338.432 287.872 338.792 288.097 339.103 288.402C339.418 288.707 339.665 289.095 339.845 289.567C340.025 290.036 340.115 290.595 340.115 291.243V291.778H334.051V290.603H338.443C338.44 290.269 338.368 289.972 338.227 289.712C338.085 289.448 337.888 289.241 337.634 289.09C337.384 288.94 337.092 288.864 336.758 288.864C336.401 288.864 336.088 288.951 335.818 289.124C335.549 289.294 335.338 289.519 335.188 289.798C335.04 290.075 334.964 290.378 334.961 290.709V291.735C334.961 292.165 335.04 292.534 335.197 292.842C335.354 293.147 335.574 293.382 335.857 293.545C336.14 293.706 336.47 293.786 336.849 293.786C337.103 293.786 337.332 293.751 337.538 293.68C337.743 293.607 337.922 293.499 338.072 293.358C338.223 293.216 338.337 293.041 338.414 292.833L340.042 293.016C339.94 293.446 339.744 293.822 339.455 294.143C339.169 294.461 338.803 294.708 338.357 294.884C337.91 295.058 337.4 295.144 336.825 295.144ZM341.589 295V287.602H343.28V288.835H343.357C343.492 288.408 343.723 288.079 344.051 287.848C344.381 287.614 344.759 287.496 345.182 287.496C345.279 287.496 345.386 287.501 345.505 287.511C345.627 287.517 345.728 287.528 345.808 287.544V289.148C345.735 289.123 345.617 289.1 345.457 289.081C345.3 289.058 345.147 289.047 344.999 289.047C344.682 289.047 344.396 289.116 344.142 289.254C343.892 289.389 343.694 289.577 343.55 289.818C343.405 290.059 343.333 290.336 343.333 290.651V295H341.589ZM349.937 295.144C349.196 295.144 348.555 294.99 348.016 294.682C347.479 294.371 347.067 293.931 346.778 293.362C346.489 292.791 346.344 292.118 346.344 291.344C346.344 290.584 346.489 289.916 346.778 289.341C347.07 288.763 347.478 288.313 348.001 287.992C348.524 287.668 349.139 287.506 349.846 287.506C350.302 287.506 350.732 287.58 351.136 287.727C351.544 287.872 351.904 288.097 352.215 288.402C352.53 288.707 352.777 289.095 352.957 289.567C353.137 290.036 353.227 290.595 353.227 291.243V291.778H347.163V290.603H351.555C351.552 290.269 351.48 289.972 351.339 289.712C351.197 289.448 351 289.241 350.746 289.09C350.496 288.94 350.204 288.864 349.87 288.864C349.513 288.864 349.2 288.951 348.931 289.124C348.661 289.294 348.451 289.519 348.3 289.798C348.152 290.075 348.077 290.378 348.073 290.709V291.735C348.073 292.165 348.152 292.534 348.309 292.842C348.467 293.147 348.687 293.382 348.969 293.545C349.252 293.706 349.582 293.786 349.961 293.786C350.215 293.786 350.445 293.751 350.65 293.68C350.856 293.607 351.034 293.499 351.185 293.358C351.336 293.216 351.45 293.041 351.527 292.833L353.154 293.016C353.052 293.446 352.856 293.822 352.567 294.143C352.281 294.461 351.915 294.708 351.469 294.884C351.022 295.058 350.512 295.144 349.937 295.144ZM357.447 295.13C356.866 295.13 356.346 294.981 355.886 294.682C355.427 294.384 355.064 293.95 354.798 293.382C354.531 292.813 354.398 292.123 354.398 291.311C354.398 290.489 354.533 289.795 354.803 289.23C355.076 288.662 355.443 288.233 355.906 287.944C356.368 287.652 356.883 287.506 357.452 287.506C357.885 287.506 358.242 287.58 358.521 287.727C358.8 287.872 359.022 288.047 359.186 288.252C359.349 288.455 359.476 288.646 359.566 288.826H359.638V285.136H361.387V295H359.672V293.834H359.566C359.476 294.014 359.346 294.205 359.176 294.408C359.006 294.607 358.781 294.777 358.502 294.918C358.222 295.059 357.871 295.13 357.447 295.13ZM357.933 293.7C358.303 293.7 358.617 293.6 358.877 293.401C359.137 293.199 359.335 292.918 359.47 292.558C359.605 292.199 359.672 291.78 359.672 291.301C359.672 290.823 359.605 290.407 359.47 290.054C359.338 289.701 359.142 289.426 358.882 289.23C358.625 289.034 358.309 288.936 357.933 288.936C357.545 288.936 357.221 289.038 356.96 289.24C356.7 289.442 356.505 289.721 356.373 290.078C356.241 290.434 356.175 290.842 356.175 291.301C356.175 291.763 356.241 292.176 356.373 292.539C356.508 292.899 356.705 293.183 356.965 293.391C357.229 293.597 357.551 293.7 357.933 293.7ZM366.686 285.136H368.872L371.8 292.284H371.916L374.844 285.136H377.031V295H375.316V288.224H375.225L372.499 294.971H371.218L368.492 288.209H368.4V295H366.686V285.136ZM381.028 295.149C380.56 295.149 380.137 295.066 379.762 294.899C379.389 294.729 379.094 294.478 378.876 294.148C378.66 293.817 378.553 293.409 378.553 292.924C378.553 292.507 378.63 292.162 378.784 291.889C378.938 291.616 379.148 291.397 379.415 291.234C379.681 291.07 379.982 290.946 380.316 290.863C380.653 290.776 381.001 290.714 381.361 290.675C381.794 290.63 382.146 290.59 382.415 290.555C382.685 290.516 382.881 290.458 383.003 290.381C383.128 290.301 383.191 290.177 383.191 290.01V289.981C383.191 289.619 383.083 289.338 382.868 289.139C382.653 288.94 382.343 288.84 381.939 288.84C381.512 288.84 381.173 288.933 380.922 289.119C380.675 289.306 380.508 289.526 380.422 289.779L378.794 289.548C378.922 289.099 379.134 288.723 379.429 288.421C379.725 288.116 380.086 287.888 380.513 287.737C380.94 287.583 381.412 287.506 381.929 287.506C382.285 287.506 382.64 287.548 382.993 287.631C383.347 287.715 383.669 287.853 383.961 288.045C384.254 288.235 384.488 288.493 384.665 288.821C384.844 289.148 384.934 289.558 384.934 290.049V295H383.258V293.984H383.2C383.095 294.189 382.945 294.382 382.753 294.562C382.563 294.738 382.324 294.881 382.035 294.99C381.749 295.096 381.414 295.149 381.028 295.149ZM381.481 293.868C381.831 293.868 382.135 293.799 382.391 293.661C382.648 293.52 382.846 293.334 382.984 293.102C383.125 292.871 383.196 292.619 383.196 292.346V291.475C383.141 291.519 383.048 291.561 382.916 291.6C382.788 291.638 382.643 291.672 382.483 291.701C382.322 291.73 382.163 291.755 382.006 291.778C381.849 291.8 381.712 291.82 381.597 291.836C381.337 291.871 381.104 291.929 380.898 292.009C380.693 292.089 380.531 292.202 380.412 292.346C380.293 292.488 380.234 292.671 380.234 292.895C380.234 293.216 380.351 293.459 380.585 293.623C380.82 293.786 381.118 293.868 381.481 293.868ZM390.381 287.602V288.951H386.129V287.602H390.381ZM387.179 285.83H388.922V292.775C388.922 293.009 388.957 293.189 389.028 293.314C389.102 293.436 389.198 293.52 389.317 293.565C389.436 293.61 389.568 293.632 389.712 293.632C389.821 293.632 389.921 293.624 390.011 293.608C390.104 293.592 390.174 293.578 390.223 293.565L390.516 294.928C390.423 294.96 390.29 294.995 390.117 295.034C389.946 295.072 389.738 295.095 389.49 295.101C389.054 295.114 388.66 295.048 388.311 294.904C387.961 294.756 387.683 294.528 387.477 294.22C387.275 293.912 387.175 293.526 387.179 293.064V285.83ZM394.987 295.144C394.249 295.144 393.614 294.982 393.085 294.658C392.558 294.334 392.152 293.886 391.866 293.314C391.584 292.74 391.442 292.078 391.442 291.33C391.442 290.579 391.587 289.916 391.876 289.341C392.165 288.763 392.572 288.313 393.099 287.992C393.629 287.668 394.255 287.506 394.977 287.506C395.578 287.506 396.109 287.617 396.572 287.838C397.037 288.057 397.408 288.366 397.684 288.768C397.96 289.166 398.118 289.632 398.156 290.165H396.49C396.422 289.808 396.262 289.511 396.008 289.274C395.758 289.033 395.422 288.912 395.001 288.912C394.645 288.912 394.332 289.009 394.062 289.201C393.793 289.391 393.582 289.664 393.431 290.02C393.284 290.376 393.21 290.803 393.21 291.301C393.21 291.805 393.284 292.239 393.431 292.602C393.579 292.961 393.786 293.239 394.053 293.435C394.322 293.627 394.639 293.724 395.001 293.724C395.258 293.724 395.488 293.676 395.69 293.579C395.896 293.48 396.067 293.337 396.206 293.151C396.344 292.964 396.438 292.738 396.49 292.471H398.156C398.114 292.995 397.96 293.459 397.694 293.863C397.427 294.265 397.064 294.579 396.605 294.807C396.146 295.032 395.607 295.144 394.987 295.144ZM401.331 290.665V295H399.588V285.136H401.293V288.859H401.379C401.553 288.442 401.821 288.113 402.184 287.872C402.55 287.628 403.015 287.506 403.58 287.506C404.094 287.506 404.542 287.614 404.924 287.829C405.306 288.044 405.602 288.358 405.81 288.773C406.022 289.187 406.128 289.693 406.128 290.29V295H404.385V290.559C404.385 290.062 404.256 289.675 403.999 289.399C403.746 289.119 403.389 288.98 402.93 288.98C402.622 288.98 402.346 289.047 402.102 289.182C401.861 289.314 401.672 289.505 401.533 289.755C401.399 290.006 401.331 290.309 401.331 290.665ZM407.905 295V287.602H409.649V295H407.905ZM408.782 286.552C408.506 286.552 408.268 286.461 408.069 286.278C407.87 286.092 407.77 285.868 407.77 285.608C407.77 285.345 407.87 285.122 408.069 284.939C408.268 284.753 408.506 284.66 408.782 284.66C409.061 284.66 409.299 284.753 409.495 284.939C409.694 285.122 409.793 285.345 409.793 285.608C409.793 285.868 409.694 286.092 409.495 286.278C409.299 286.461 409.061 286.552 408.782 286.552ZM413.185 290.665V295H411.442V287.602H413.108V288.859H413.195C413.365 288.445 413.636 288.116 414.009 287.872C414.384 287.628 414.848 287.506 415.401 287.506C415.911 287.506 416.356 287.615 416.735 287.833C417.117 288.052 417.412 288.368 417.621 288.782C417.833 289.196 417.937 289.699 417.934 290.29V295H416.19V290.559C416.19 290.065 416.062 289.678 415.805 289.399C415.552 289.119 415.2 288.98 414.75 288.98C414.445 288.98 414.174 289.047 413.936 289.182C413.702 289.314 413.517 289.505 413.383 289.755C413.251 290.006 413.185 290.309 413.185 290.665ZM422.924 297.928C422.297 297.928 421.76 297.843 421.31 297.673C420.861 297.506 420.499 297.281 420.226 296.999C419.954 296.716 419.764 296.403 419.658 296.06L421.228 295.679C421.299 295.824 421.402 295.966 421.536 296.108C421.671 296.252 421.853 296.371 422.081 296.464C422.312 296.56 422.602 296.609 422.952 296.609C423.447 296.609 423.856 296.488 424.181 296.247C424.505 296.01 424.667 295.618 424.667 295.072V293.671H424.58C424.49 293.851 424.359 294.035 424.185 294.225C424.015 294.414 423.789 294.573 423.506 294.701C423.227 294.83 422.875 294.894 422.452 294.894C421.883 294.894 421.368 294.761 420.906 294.494C420.446 294.225 420.08 293.823 419.807 293.29C419.538 292.754 419.403 292.083 419.403 291.277C419.403 290.465 419.538 289.779 419.807 289.221C420.08 288.659 420.448 288.233 420.91 287.944C421.373 287.652 421.888 287.506 422.456 287.506C422.89 287.506 423.246 287.58 423.526 287.727C423.808 287.872 424.033 288.047 424.2 288.252C424.367 288.455 424.494 288.646 424.58 288.826H424.677V287.602H426.396V295.12C426.396 295.753 426.245 296.276 425.943 296.69C425.642 297.105 425.229 297.415 424.706 297.62C424.182 297.826 423.588 297.928 422.924 297.928ZM422.938 293.526C423.307 293.526 423.622 293.436 423.882 293.257C424.142 293.077 424.34 292.818 424.474 292.481C424.609 292.144 424.677 291.739 424.677 291.267C424.677 290.802 424.609 290.394 424.474 290.044C424.343 289.694 424.147 289.423 423.887 289.23C423.63 289.034 423.314 288.936 422.938 288.936C422.549 288.936 422.225 289.038 421.965 289.24C421.705 289.442 421.509 289.72 421.378 290.073C421.246 290.423 421.18 290.821 421.18 291.267C421.18 291.72 421.246 292.117 421.378 292.457C421.512 292.794 421.71 293.057 421.97 293.247C422.233 293.433 422.556 293.526 422.938 293.526Z" fill="black"/>
<rect x="461.5" y="94.5" width="165" height="46" rx="23" fill="#8EC5FF" fill-opacity="0.5"/>
<rect x="461.5" y="94.5" width="165" height="46" rx="23" stroke="black"/>
<path d="M484.013 119.167C483.856 119.167 483.701 119.123 483.568 119.039C483.434 118.955 483.327 118.835 483.259 118.693C483.191 118.551 483.164 118.392 483.183 118.236C483.202 118.079 483.264 117.931 483.363 117.808L491.613 109.308C491.675 109.237 491.76 109.189 491.853 109.171C491.946 109.154 492.042 109.169 492.125 109.214C492.208 109.258 492.274 109.33 492.311 109.417C492.348 109.504 492.355 109.601 492.33 109.692L490.73 114.708C490.683 114.835 490.667 114.97 490.684 115.104C490.701 115.238 490.75 115.366 490.827 115.476C490.904 115.587 491.007 115.677 491.126 115.739C491.246 115.802 491.379 115.834 491.513 115.833H497.347C497.504 115.833 497.659 115.877 497.793 115.961C497.926 116.045 498.033 116.165 498.101 116.307C498.169 116.449 498.196 116.608 498.177 116.765C498.159 116.921 498.096 117.069 497.997 117.192L489.747 125.692C489.685 125.763 489.601 125.811 489.508 125.829C489.415 125.846 489.319 125.831 489.235 125.786C489.152 125.742 489.086 125.67 489.049 125.583C489.012 125.496 489.005 125.4 489.03 125.308L490.63 120.292C490.677 120.165 490.693 120.03 490.676 119.896C490.659 119.762 490.61 119.634 490.533 119.524C490.456 119.413 490.354 119.323 490.234 119.261C490.114 119.199 489.982 119.166 489.847 119.167H484.013Z" stroke="black" stroke-width="1.66667" stroke-linecap="round" stroke-linejoin="round"/>
<path d="M511.684 122.5V112.318H513.529V120.954H518.013V122.5H511.684ZM519.535 122.5V114.864H521.334V122.5H519.535ZM520.439 113.78C520.154 113.78 519.909 113.685 519.704 113.496C519.498 113.304 519.395 113.074 519.395 112.805C519.395 112.534 519.498 112.303 519.704 112.114C519.909 111.922 520.154 111.826 520.439 111.826C520.728 111.826 520.973 111.922 521.175 112.114C521.381 112.303 521.483 112.534 521.483 112.805C521.483 113.074 521.381 113.304 521.175 113.496C520.973 113.685 520.728 113.78 520.439 113.78ZM526.506 125.523C525.86 125.523 525.305 125.435 524.841 125.259C524.376 125.087 524.004 124.855 523.722 124.563C523.44 124.272 523.245 123.948 523.135 123.594L524.756 123.201C524.829 123.35 524.935 123.498 525.074 123.643C525.213 123.793 525.401 123.915 525.636 124.011C525.875 124.111 526.175 124.161 526.536 124.161C527.046 124.161 527.469 124.036 527.804 123.788C528.138 123.542 528.306 123.138 528.306 122.575V121.128H528.216C528.123 121.313 527.988 121.504 527.809 121.7C527.633 121.895 527.399 122.059 527.108 122.192C526.819 122.324 526.456 122.391 526.019 122.391C525.432 122.391 524.9 122.253 524.423 121.978C523.949 121.7 523.571 121.285 523.289 120.735C523.011 120.182 522.872 119.489 522.872 118.657C522.872 117.818 523.011 117.111 523.289 116.534C523.571 115.954 523.951 115.515 524.428 115.217C524.905 114.915 525.437 114.764 526.024 114.764C526.471 114.764 526.839 114.84 527.127 114.993C527.419 115.142 527.651 115.323 527.823 115.535C527.996 115.744 528.127 115.941 528.216 116.126H528.316V114.864H530.091V122.624C530.091 123.277 529.935 123.817 529.623 124.245C529.312 124.673 528.886 124.992 528.345 125.205C527.805 125.417 527.192 125.523 526.506 125.523ZM526.521 120.979C526.902 120.979 527.227 120.886 527.495 120.7C527.764 120.515 527.968 120.248 528.107 119.9C528.246 119.552 528.316 119.134 528.316 118.647C528.316 118.166 528.246 117.746 528.107 117.384C527.971 117.023 527.769 116.743 527.5 116.544C527.235 116.342 526.909 116.241 526.521 116.241C526.12 116.241 525.785 116.345 525.517 116.554C525.248 116.763 525.046 117.049 524.91 117.414C524.774 117.775 524.706 118.186 524.706 118.647C524.706 119.114 524.774 119.524 524.91 119.875C525.049 120.223 525.253 120.495 525.522 120.69C525.793 120.883 526.126 120.979 526.521 120.979ZM533.735 118.026V122.5H531.935V112.318H533.695V116.161H533.784C533.963 115.73 534.24 115.391 534.615 115.142C534.992 114.89 535.473 114.764 536.056 114.764C536.587 114.764 537.049 114.875 537.443 115.097C537.838 115.319 538.143 115.644 538.358 116.072C538.577 116.499 538.686 117.021 538.686 117.638V122.5H536.887V117.916C536.887 117.402 536.754 117.003 536.489 116.718C536.227 116.43 535.859 116.286 535.385 116.286C535.067 116.286 534.782 116.355 534.53 116.494C534.282 116.63 534.086 116.827 533.943 117.086C533.804 117.344 533.735 117.658 533.735 118.026ZM544.334 114.864V116.256H539.944V114.864H544.334ZM541.028 113.034H542.828V120.203C542.828 120.445 542.864 120.631 542.937 120.76C543.013 120.886 543.113 120.972 543.235 121.018C543.358 121.065 543.494 121.088 543.643 121.088C543.756 121.088 543.859 121.08 543.951 121.063C544.047 121.047 544.12 121.032 544.17 121.018L544.473 122.425C544.377 122.459 544.24 122.495 544.061 122.535C543.885 122.575 543.67 122.598 543.414 122.604C542.964 122.618 542.558 122.55 542.196 122.401C541.835 122.248 541.548 122.013 541.336 121.695C541.127 121.376 541.025 120.979 541.028 120.501V113.034ZM547.639 118.026V122.5H545.839V114.864H547.559V116.161H547.649C547.825 115.734 548.105 115.394 548.489 115.142C548.877 114.89 549.356 114.764 549.926 114.764C550.453 114.764 550.912 114.877 551.303 115.102C551.697 115.328 552.002 115.654 552.218 116.082C552.437 116.509 552.544 117.028 552.541 117.638V122.5H550.741V117.916C550.741 117.406 550.609 117.006 550.344 116.718C550.082 116.43 549.719 116.286 549.255 116.286C548.94 116.286 548.66 116.355 548.415 116.494C548.173 116.63 547.982 116.827 547.843 117.086C547.707 117.344 547.639 117.658 547.639 118.026ZM554.371 122.5V114.864H556.17V122.5H554.371ZM555.275 113.78C554.99 113.78 554.745 113.685 554.54 113.496C554.334 113.304 554.231 113.074 554.231 112.805C554.231 112.534 554.334 112.303 554.54 112.114C554.745 111.922 554.99 111.826 555.275 111.826C555.564 111.826 555.809 111.922 556.011 112.114C556.217 112.303 556.319 112.534 556.319 112.805C556.319 113.074 556.217 113.304 556.011 113.496C555.809 113.685 555.564 113.78 555.275 113.78ZM559.821 118.026V122.5H558.021V114.864H559.741V116.161H559.831C560.006 115.734 560.286 115.394 560.671 115.142C561.059 114.89 561.537 114.764 562.108 114.764C562.635 114.764 563.094 114.877 563.485 115.102C563.879 115.328 564.184 115.654 564.399 116.082C564.618 116.509 564.726 117.028 564.723 117.638V122.5H562.923V117.916C562.923 117.406 562.79 117.006 562.525 116.718C562.263 116.43 561.9 116.286 561.436 116.286C561.122 116.286 560.841 116.355 560.596 116.494C560.354 116.63 560.164 116.827 560.024 117.086C559.889 117.344 559.821 117.658 559.821 118.026ZM569.873 125.523C569.227 125.523 568.672 125.435 568.208 125.259C567.744 125.087 567.371 124.855 567.089 124.563C566.807 124.272 566.612 123.948 566.502 123.594L568.123 123.201C568.196 123.35 568.302 123.498 568.441 123.643C568.581 123.793 568.768 123.915 569.003 124.011C569.242 124.111 569.542 124.161 569.903 124.161C570.413 124.161 570.836 124.036 571.171 123.788C571.506 123.542 571.673 123.138 571.673 122.575V121.128H571.583C571.491 121.313 571.355 121.504 571.176 121.7C571 121.895 570.766 122.059 570.475 122.192C570.186 122.324 569.823 122.391 569.386 122.391C568.799 122.391 568.267 122.253 567.79 121.978C567.316 121.7 566.938 121.285 566.657 120.735C566.378 120.182 566.239 119.489 566.239 118.657C566.239 117.818 566.378 117.111 566.657 116.534C566.938 115.954 567.318 115.515 567.795 115.217C568.272 114.915 568.804 114.764 569.391 114.764C569.838 114.764 570.206 114.84 570.495 114.993C570.786 115.142 571.018 115.323 571.191 115.535C571.363 115.744 571.494 115.941 571.583 116.126H571.683V114.864H573.458V122.624C573.458 123.277 573.302 123.817 572.99 124.245C572.679 124.673 572.253 124.992 571.713 125.205C571.172 125.417 570.559 125.523 569.873 125.523ZM569.888 120.979C570.269 120.979 570.594 120.886 570.863 120.7C571.131 120.515 571.335 120.248 571.474 119.9C571.613 119.552 571.683 119.134 571.683 118.647C571.683 118.166 571.613 117.746 571.474 117.384C571.338 117.023 571.136 116.743 570.867 116.544C570.602 116.342 570.276 116.241 569.888 116.241C569.487 116.241 569.152 116.345 568.884 116.554C568.615 116.763 568.413 117.049 568.277 117.414C568.141 117.775 568.073 118.186 568.073 118.647C568.073 119.114 568.141 119.524 568.277 119.875C568.417 120.223 568.62 120.495 568.889 120.69C569.161 120.883 569.494 120.979 569.888 120.979ZM578.854 122.5V112.318H585.377V113.864H580.699V116.629H584.93V118.175H580.699V122.5H578.854ZM589.107 122.654C588.623 122.654 588.187 122.568 587.799 122.396C587.415 122.22 587.11 121.961 586.885 121.62C586.663 121.279 586.552 120.858 586.552 120.357C586.552 119.926 586.631 119.57 586.79 119.288C586.949 119.007 587.166 118.781 587.442 118.612C587.717 118.443 588.027 118.316 588.371 118.229C588.719 118.14 589.079 118.075 589.45 118.036C589.898 117.989 590.26 117.948 590.539 117.911C590.817 117.871 591.019 117.812 591.145 117.732C591.275 117.649 591.339 117.522 591.339 117.349V117.32C591.339 116.945 591.228 116.655 591.006 116.45C590.784 116.244 590.464 116.141 590.047 116.141C589.606 116.141 589.256 116.237 588.998 116.43C588.742 116.622 588.57 116.849 588.481 117.111L586.8 116.872C586.933 116.408 587.152 116.02 587.456 115.709C587.761 115.394 588.134 115.159 588.575 115.003C589.016 114.844 589.503 114.764 590.037 114.764C590.405 114.764 590.771 114.807 591.135 114.893C591.5 114.98 591.833 115.122 592.135 115.321C592.436 115.517 592.678 115.783 592.861 116.121C593.046 116.46 593.139 116.882 593.139 117.389V122.5H591.409V121.451H591.349C591.24 121.663 591.086 121.862 590.887 122.048C590.691 122.23 590.444 122.377 590.146 122.49C589.851 122.599 589.505 122.654 589.107 122.654ZM589.574 121.332C589.936 121.332 590.249 121.26 590.514 121.118C590.779 120.972 590.983 120.78 591.125 120.541C591.271 120.303 591.344 120.042 591.344 119.761V118.861C591.288 118.907 591.192 118.95 591.056 118.99C590.923 119.03 590.774 119.065 590.608 119.094C590.443 119.124 590.279 119.151 590.116 119.174C589.954 119.197 589.813 119.217 589.694 119.234C589.425 119.27 589.185 119.33 588.973 119.413C588.761 119.496 588.593 119.612 588.471 119.761C588.348 119.906 588.287 120.095 588.287 120.327C588.287 120.659 588.408 120.909 588.65 121.078C588.892 121.247 589.2 121.332 589.574 121.332ZM600.984 116.882L599.344 117.061C599.297 116.895 599.216 116.74 599.1 116.594C598.987 116.448 598.835 116.33 598.643 116.241C598.45 116.151 598.215 116.107 597.937 116.107C597.562 116.107 597.247 116.188 596.992 116.35C596.74 116.513 596.616 116.723 596.619 116.982C596.616 117.204 596.697 117.384 596.863 117.523C597.032 117.663 597.31 117.777 597.698 117.866L599 118.145C599.723 118.301 600.26 118.548 600.611 118.886C600.966 119.224 601.145 119.666 601.148 120.213C601.145 120.694 601.004 121.118 600.726 121.486C600.451 121.85 600.068 122.135 599.577 122.341C599.087 122.546 598.523 122.649 597.887 122.649C596.952 122.649 596.2 122.454 595.63 122.062C595.06 121.668 594.72 121.12 594.611 120.417L596.366 120.248C596.445 120.593 596.614 120.853 596.873 121.028C597.131 121.204 597.468 121.292 597.882 121.292C598.309 121.292 598.652 121.204 598.911 121.028C599.173 120.853 599.304 120.636 599.304 120.377C599.304 120.158 599.219 119.978 599.05 119.835C598.884 119.693 598.626 119.583 598.275 119.507L596.972 119.234C596.24 119.081 595.698 118.824 595.346 118.463C594.995 118.098 594.821 117.638 594.824 117.081C594.821 116.61 594.949 116.203 595.207 115.858C595.469 115.51 595.832 115.241 596.296 115.053C596.763 114.86 597.302 114.764 597.912 114.764C598.807 114.764 599.511 114.955 600.025 115.336C600.542 115.717 600.862 116.232 600.984 116.882ZM606.445 114.864V116.256H602.056V114.864H606.445ZM603.139 113.034H604.939V120.203C604.939 120.445 604.976 120.631 605.048 120.76C605.125 120.886 605.224 120.972 605.347 121.018C605.469 121.065 605.605 121.088 605.754 121.088C605.867 121.088 605.97 121.08 606.063 121.063C606.159 121.047 606.232 121.032 606.281 121.018L606.585 122.425C606.489 122.459 606.351 122.495 606.172 122.535C605.996 122.575 605.781 122.598 605.526 122.604C605.075 122.618 604.669 122.55 604.308 122.401C603.946 122.248 603.66 122.013 603.448 121.695C603.239 121.376 603.136 120.979 603.139 120.501V113.034Z" fill="black"/>
<rect x="54.5" y="440.5" width="194" height="46" rx="23" fill="#8EC5FF" fill-opacity="0.5"/>
<rect x="54.5" y="440.5" width="194" height="46" rx="23" stroke="black"/>
<path d="M84.903 471V469.333C84.903 468.449 84.5518 467.601 83.9267 466.976C83.3016 466.351 82.4537 466 81.5697 466H76.5697C75.6856 466 74.8378 466.351 74.2126 466.976C73.5875 467.601 73.2363 468.449 73.2363 469.333V471" stroke="black" stroke-width="1.66667" stroke-linecap="round" stroke-linejoin="round"/>
<path d="M84.9033 456.106C85.6181 456.292 86.2511 456.709 86.7031 457.293C87.155 457.877 87.4002 458.595 87.4002 459.333C87.4002 460.072 87.155 460.789 86.7031 461.373C86.2511 461.957 85.6181 462.374 84.9033 462.56" stroke="black" stroke-width="1.66667" stroke-linecap="round" stroke-linejoin="round"/>
<path d="M89.9033 471V469.333C89.9028 468.595 89.6569 467.877 89.2045 467.294C88.752 466.71 88.1184 466.293 87.4033 466.108" stroke="black" stroke-width="1.66667" stroke-linecap="round" stroke-linejoin="round"/>
<path d="M79.0697 462.667C80.9106 462.667 82.403 461.174 82.403 459.333C82.403 457.492 80.9106 456 79.0697 456C77.2287 456 75.7363 457.492 75.7363 459.333C75.7363 461.174 77.2287 462.667 79.0697 462.667Z" stroke="black" stroke-width="1.66667" stroke-linecap="round" stroke-linejoin="round"/>
<path d="M102.118 459.999V458.477H110.115V459.999H107.017V468.5H105.216V459.999H102.118ZM113.816 468.647C113.062 468.647 112.411 468.49 111.863 468.177C111.318 467.861 110.899 467.414 110.605 466.836C110.312 466.255 110.165 465.572 110.165 464.786C110.165 464.012 110.312 463.334 110.605 462.75C110.902 462.162 111.316 461.706 111.848 461.379C112.38 461.05 113.005 460.885 113.723 460.885C114.186 460.885 114.623 460.96 115.034 461.11C115.449 461.257 115.814 461.485 116.13 461.795C116.45 462.105 116.701 462.5 116.884 462.98C117.067 463.456 117.158 464.024 117.158 464.683V465.226H110.997V464.032H115.46C115.457 463.693 115.383 463.391 115.24 463.126C115.096 462.859 114.896 462.649 114.638 462.495C114.383 462.342 114.086 462.265 113.747 462.265C113.385 462.265 113.067 462.353 112.793 462.529C112.519 462.702 112.305 462.931 112.152 463.215C112.002 463.495 111.925 463.803 111.922 464.14V465.182C111.922 465.619 112.002 465.994 112.161 466.308C112.321 466.617 112.545 466.856 112.832 467.022C113.119 467.185 113.455 467.267 113.84 467.267C114.098 467.267 114.331 467.231 114.54 467.159C114.749 467.084 114.93 466.975 115.083 466.831C115.236 466.688 115.352 466.51 115.431 466.298L117.085 466.484C116.98 466.921 116.781 467.303 116.488 467.629C116.197 467.952 115.825 468.203 115.372 468.383C114.918 468.559 114.4 468.647 113.816 468.647ZM120.82 468.652C120.344 468.652 119.915 468.567 119.533 468.397C119.154 468.224 118.854 467.97 118.632 467.634C118.414 467.298 118.305 466.883 118.305 466.391C118.305 465.967 118.383 465.616 118.539 465.339C118.696 465.061 118.91 464.839 119.181 464.673C119.451 464.507 119.756 464.381 120.096 464.296C120.438 464.208 120.792 464.144 121.158 464.105C121.598 464.06 121.955 464.019 122.229 463.983C122.504 463.944 122.703 463.885 122.827 463.807C122.954 463.725 123.017 463.6 123.017 463.43V463.401C123.017 463.032 122.908 462.746 122.689 462.544C122.471 462.342 122.156 462.241 121.745 462.241C121.311 462.241 120.967 462.335 120.712 462.525C120.461 462.714 120.291 462.937 120.203 463.195L118.549 462.96C118.68 462.503 118.895 462.122 119.195 461.815C119.495 461.505 119.862 461.273 120.296 461.12C120.73 460.963 121.21 460.885 121.735 460.885C122.097 460.885 122.458 460.927 122.817 461.012C123.176 461.097 123.504 461.237 123.8 461.433C124.097 461.626 124.335 461.888 124.515 462.221C124.698 462.554 124.789 462.97 124.789 463.469V468.5H123.086V467.467H123.027C122.92 467.676 122.768 467.872 122.572 468.055C122.38 468.234 122.136 468.379 121.843 468.49C121.552 468.598 121.212 468.652 120.82 468.652ZM121.28 467.35C121.636 467.35 121.944 467.28 122.205 467.139C122.466 466.996 122.667 466.807 122.807 466.572C122.951 466.337 123.022 466.081 123.022 465.803V464.918C122.967 464.963 122.872 465.006 122.738 465.045C122.608 465.084 122.461 465.118 122.298 465.148C122.135 465.177 121.973 465.203 121.813 465.226C121.654 465.249 121.515 465.268 121.397 465.285C121.133 465.321 120.897 465.379 120.688 465.461C120.479 465.542 120.314 465.657 120.194 465.803C120.073 465.947 120.013 466.133 120.013 466.361C120.013 466.688 120.132 466.934 120.37 467.1C120.608 467.267 120.911 467.35 121.28 467.35ZM126.57 468.5V460.983H128.264V462.26H128.352C128.508 461.83 128.768 461.494 129.13 461.252C129.492 461.007 129.924 460.885 130.427 460.885C130.936 460.885 131.365 461.009 131.714 461.257C132.066 461.502 132.314 461.836 132.458 462.26H132.536C132.702 461.843 132.983 461.51 133.378 461.262C133.776 461.011 134.247 460.885 134.792 460.885C135.484 460.885 136.048 461.104 136.485 461.541C136.923 461.978 137.141 462.616 137.141 463.454V468.5H135.365V463.728C135.365 463.262 135.241 462.921 134.993 462.706C134.745 462.487 134.441 462.378 134.083 462.378C133.655 462.378 133.321 462.511 133.079 462.779C132.841 463.043 132.722 463.387 132.722 463.812V468.5H130.985V463.655C130.985 463.267 130.867 462.957 130.632 462.725C130.401 462.494 130.097 462.378 129.722 462.378C129.468 462.378 129.236 462.443 129.027 462.573C128.818 462.701 128.652 462.882 128.528 463.117C128.404 463.348 128.342 463.619 128.342 463.929V468.5H126.57ZM151.014 461.859H149.184C149.132 461.559 149.035 461.293 148.895 461.061C148.755 460.826 148.58 460.627 148.372 460.464C148.163 460.301 147.925 460.179 147.657 460.097C147.393 460.012 147.107 459.97 146.801 459.97C146.256 459.97 145.773 460.107 145.352 460.381C144.931 460.652 144.602 461.05 144.363 461.575C144.125 462.097 144.006 462.735 144.006 463.489C144.006 464.255 144.125 464.901 144.363 465.427C144.605 465.949 144.934 466.343 145.352 466.611C145.773 466.875 146.254 467.007 146.796 467.007C147.096 467.007 147.376 466.968 147.637 466.89C147.902 466.808 148.138 466.689 148.347 466.533C148.559 466.376 148.737 466.184 148.88 465.955C149.027 465.727 149.128 465.466 149.184 465.172L151.014 465.182C150.946 465.658 150.797 466.105 150.569 466.523C150.344 466.94 150.048 467.309 149.683 467.629C149.318 467.945 148.89 468.193 148.401 468.373C147.911 468.549 147.368 468.637 146.771 468.637C145.89 468.637 145.104 468.433 144.412 468.025C143.721 467.617 143.176 467.029 142.778 466.259C142.38 465.489 142.181 464.565 142.181 463.489C142.181 462.409 142.381 461.485 142.783 460.719C143.184 459.949 143.73 459.36 144.422 458.952C145.114 458.544 145.897 458.34 146.771 458.34C147.329 458.34 147.848 458.419 148.327 458.575C148.807 458.732 149.234 458.962 149.61 459.265C149.985 459.565 150.293 459.934 150.535 460.371C150.779 460.805 150.939 461.301 151.014 461.859ZM155.878 468.647C155.143 468.647 154.507 468.485 153.969 468.162C153.431 467.839 153.013 467.387 152.716 466.807C152.422 466.226 152.276 465.547 152.276 464.771C152.276 463.994 152.422 463.314 152.716 462.73C153.013 462.146 153.431 461.693 153.969 461.37C154.507 461.047 155.143 460.885 155.878 460.885C156.612 460.885 157.248 461.047 157.786 461.37C158.324 461.693 158.74 462.146 159.034 462.73C159.331 463.314 159.479 463.994 159.479 464.771C159.479 465.547 159.331 466.226 159.034 466.807C158.74 467.387 158.324 467.839 157.786 468.162C157.248 468.485 156.612 468.647 155.878 468.647ZM155.887 467.228C156.285 467.228 156.618 467.118 156.886 466.9C157.153 466.678 157.352 466.381 157.483 466.009C157.617 465.637 157.683 465.223 157.683 464.766C157.683 464.306 157.617 463.89 157.483 463.518C157.352 463.143 157.153 462.844 156.886 462.622C156.618 462.401 156.285 462.29 155.887 462.29C155.48 462.29 155.14 462.401 154.869 462.622C154.602 462.844 154.401 463.143 154.267 463.518C154.137 463.89 154.072 464.306 154.072 464.766C154.072 465.223 154.137 465.637 154.267 466.009C154.401 466.381 154.602 466.678 154.869 466.9C155.14 467.118 155.48 467.228 155.887 467.228ZM162.755 458.477V468.5H160.983V458.477H162.755ZM166.348 458.477V468.5H164.576V458.477H166.348ZM170.333 468.652C169.857 468.652 169.428 468.567 169.046 468.397C168.667 468.224 168.367 467.97 168.145 467.634C167.927 467.298 167.817 466.883 167.817 466.391C167.817 465.967 167.896 465.616 168.052 465.339C168.209 465.061 168.423 464.839 168.693 464.673C168.964 464.507 169.269 464.381 169.609 464.296C169.951 464.208 170.305 464.144 170.671 464.105C171.111 464.06 171.468 464.019 171.742 463.983C172.016 463.944 172.215 463.885 172.339 463.807C172.467 463.725 172.53 463.6 172.53 463.43V463.401C172.53 463.032 172.421 462.746 172.202 462.544C171.984 462.342 171.669 462.241 171.258 462.241C170.824 462.241 170.48 462.335 170.225 462.525C169.974 462.714 169.804 462.937 169.716 463.195L168.062 462.96C168.193 462.503 168.408 462.122 168.708 461.815C169.008 461.505 169.375 461.273 169.809 461.12C170.243 460.963 170.723 460.885 171.248 460.885C171.61 460.885 171.971 460.927 172.33 461.012C172.689 461.097 173.016 461.237 173.313 461.433C173.61 461.626 173.848 461.888 174.028 462.221C174.211 462.554 174.302 462.97 174.302 463.469V468.5H172.599V467.467H172.54C172.432 467.676 172.281 467.872 172.085 468.055C171.892 468.234 171.649 468.379 171.356 468.49C171.065 468.598 170.724 468.652 170.333 468.652ZM170.793 467.35C171.149 467.35 171.457 467.28 171.718 467.139C171.979 466.996 172.18 466.807 172.32 466.572C172.463 466.337 172.535 466.081 172.535 465.803V464.918C172.48 464.963 172.385 465.006 172.251 465.045C172.121 465.084 171.974 465.118 171.811 465.148C171.648 465.177 171.486 465.203 171.326 465.226C171.167 465.249 171.028 465.268 170.91 465.285C170.646 465.321 170.41 465.379 170.201 465.461C169.992 465.542 169.827 465.657 169.707 465.803C169.586 465.947 169.525 466.133 169.525 466.361C169.525 466.688 169.645 466.934 169.883 467.1C170.121 467.267 170.424 467.35 170.793 467.35ZM176.162 468.5V458.477H177.933V462.226H178.007C178.098 462.043 178.227 461.849 178.393 461.644C178.56 461.435 178.785 461.257 179.069 461.11C179.352 460.96 179.715 460.885 180.155 460.885C180.736 460.885 181.259 461.034 181.726 461.33C182.196 461.624 182.568 462.06 182.842 462.637C183.119 463.211 183.258 463.916 183.258 464.751C183.258 465.577 183.122 466.278 182.852 466.856C182.581 467.433 182.212 467.874 181.746 468.177C181.279 468.48 180.75 468.632 180.16 468.632C179.729 468.632 179.372 468.56 179.088 468.417C178.804 468.273 178.576 468.1 178.403 467.898C178.233 467.693 178.101 467.498 178.007 467.316H177.904V468.5H176.162ZM177.899 464.741C177.899 465.228 177.967 465.653 178.104 466.019C178.245 466.384 178.445 466.67 178.706 466.875C178.971 467.078 179.29 467.179 179.666 467.179C180.057 467.179 180.385 467.074 180.649 466.865C180.914 466.653 181.113 466.365 181.246 465.999C181.383 465.631 181.452 465.211 181.452 464.741C181.452 464.275 181.385 463.861 181.251 463.498C181.117 463.136 180.918 462.852 180.654 462.647C180.39 462.441 180.06 462.339 179.666 462.339C179.287 462.339 178.966 462.438 178.702 462.637C178.437 462.836 178.237 463.115 178.1 463.474C177.966 463.833 177.899 464.255 177.899 464.741ZM188.043 468.647C187.309 468.647 186.672 468.485 186.134 468.162C185.596 467.839 185.178 467.387 184.881 466.807C184.588 466.226 184.441 465.547 184.441 464.771C184.441 463.994 184.588 463.314 184.881 462.73C185.178 462.146 185.596 461.693 186.134 461.37C186.672 461.047 187.309 460.885 188.043 460.885C188.777 460.885 189.413 461.047 189.951 461.37C190.49 461.693 190.906 462.146 191.199 462.73C191.496 463.314 191.645 463.994 191.645 464.771C191.645 465.547 191.496 466.226 191.199 466.807C190.906 467.387 190.49 467.839 189.951 468.162C189.413 468.485 188.777 468.647 188.043 468.647ZM188.053 467.228C188.451 467.228 188.783 467.118 189.051 466.9C189.318 466.678 189.517 466.381 189.648 466.009C189.782 465.637 189.849 465.223 189.849 464.766C189.849 464.306 189.782 463.89 189.648 463.518C189.517 463.143 189.318 462.844 189.051 462.622C188.783 462.401 188.451 462.29 188.053 462.29C187.645 462.29 187.305 462.401 187.035 462.622C186.767 462.844 186.566 463.143 186.433 463.518C186.302 463.89 186.237 464.306 186.237 464.766C186.237 465.223 186.302 465.637 186.433 466.009C186.566 466.381 186.767 466.678 187.035 466.9C187.305 467.118 187.645 467.228 188.053 467.228ZM193.148 468.5V460.983H194.866V462.236H194.944C195.081 461.802 195.316 461.467 195.649 461.233C195.985 460.994 196.369 460.875 196.799 460.875C196.897 460.875 197.006 460.88 197.127 460.89C197.251 460.896 197.354 460.908 197.435 460.924V462.554C197.36 462.528 197.241 462.505 197.078 462.485C196.918 462.463 196.763 462.451 196.613 462.451C196.29 462.451 196 462.521 195.742 462.662C195.488 462.799 195.287 462.989 195.14 463.234C194.993 463.479 194.92 463.761 194.92 464.081V468.5H193.148ZM200.641 468.652C200.165 468.652 199.736 468.567 199.354 468.397C198.975 468.224 198.675 467.97 198.453 467.634C198.235 467.298 198.125 466.883 198.125 466.391C198.125 465.967 198.204 465.616 198.36 465.339C198.517 465.061 198.731 464.839 199.001 464.673C199.272 464.507 199.577 464.381 199.917 464.296C200.259 464.208 200.613 464.144 200.979 464.105C201.419 464.06 201.776 464.019 202.05 463.983C202.324 463.944 202.523 463.885 202.647 463.807C202.775 463.725 202.838 463.6 202.838 463.43V463.401C202.838 463.032 202.729 462.746 202.51 462.544C202.292 462.342 201.977 462.241 201.566 462.241C201.132 462.241 200.788 462.335 200.533 462.525C200.282 462.714 200.112 462.937 200.024 463.195L198.37 462.96C198.501 462.503 198.716 462.122 199.016 461.815C199.316 461.505 199.683 461.273 200.117 461.12C200.551 460.963 201.031 460.885 201.556 460.885C201.918 460.885 202.279 460.927 202.638 461.012C202.997 461.097 203.324 461.237 203.621 461.433C203.918 461.626 204.156 461.888 204.336 462.221C204.519 462.554 204.61 462.97 204.61 463.469V468.5H202.907V467.467H202.848C202.74 467.676 202.589 467.872 202.393 468.055C202.2 468.234 201.957 468.379 201.664 468.49C201.373 468.598 201.032 468.652 200.641 468.652ZM201.101 467.35C201.457 467.35 201.765 467.28 202.026 467.139C202.287 466.996 202.488 466.807 202.628 466.572C202.771 466.337 202.843 466.081 202.843 465.803V464.918C202.788 464.963 202.693 465.006 202.559 465.045C202.429 465.084 202.282 465.118 202.119 465.148C201.956 465.177 201.794 465.203 201.634 465.226C201.475 465.249 201.336 465.268 201.218 465.285C200.954 465.321 200.718 465.379 200.509 465.461C200.3 465.542 200.135 465.657 200.014 465.803C199.894 465.947 199.833 466.133 199.833 466.361C199.833 466.688 199.953 466.934 200.191 467.1C200.429 467.267 200.732 467.35 201.101 467.35ZM210.145 460.983V462.353H205.824V460.983H210.145ZM206.89 459.182H208.662V466.239C208.662 466.477 208.698 466.66 208.77 466.787C208.845 466.911 208.943 466.996 209.063 467.042C209.184 467.087 209.318 467.11 209.465 467.11C209.576 467.11 209.677 467.102 209.768 467.086C209.863 467.069 209.934 467.055 209.983 467.042L210.282 468.427C210.187 468.459 210.052 468.495 209.876 468.534C209.703 468.573 209.491 468.596 209.24 468.603C208.796 468.616 208.396 468.549 208.041 468.402C207.685 468.252 207.403 468.02 207.194 467.707C206.988 467.394 206.887 467.002 206.89 466.533V459.182ZM211.627 468.5V460.983H213.398V468.5H211.627ZM212.517 459.916C212.237 459.916 211.995 459.823 211.793 459.637C211.591 459.448 211.489 459.221 211.489 458.957C211.489 458.689 211.591 458.463 211.793 458.277C211.995 458.087 212.237 457.993 212.517 457.993C212.801 457.993 213.042 458.087 213.242 458.277C213.444 458.463 213.545 458.689 213.545 458.957C213.545 459.221 213.444 459.448 213.242 459.637C213.042 459.823 212.801 459.916 212.517 459.916ZM218.499 468.647C217.765 468.647 217.128 468.485 216.59 468.162C216.052 467.839 215.634 467.387 215.337 466.807C215.044 466.226 214.897 465.547 214.897 464.771C214.897 463.994 215.044 463.314 215.337 462.73C215.634 462.146 216.052 461.693 216.59 461.37C217.128 461.047 217.765 460.885 218.499 460.885C219.233 460.885 219.869 461.047 220.407 461.37C220.946 461.693 221.362 462.146 221.655 462.73C221.952 463.314 222.101 463.994 222.101 464.771C222.101 465.547 221.952 466.226 221.655 466.807C221.362 467.387 220.946 467.839 220.407 468.162C219.869 468.485 219.233 468.647 218.499 468.647ZM218.509 467.228C218.907 467.228 219.239 467.118 219.507 466.9C219.774 466.678 219.973 466.381 220.104 466.009C220.238 465.637 220.305 465.223 220.305 464.766C220.305 464.306 220.238 463.89 220.104 463.518C219.973 463.143 219.774 462.844 219.507 462.622C219.239 462.401 218.907 462.29 218.509 462.29C218.101 462.29 217.761 462.401 217.491 462.622C217.223 462.844 217.022 463.143 216.889 463.518C216.758 463.89 216.693 464.306 216.693 464.766C216.693 465.223 216.758 465.637 216.889 466.009C217.022 466.381 217.223 466.678 217.491 466.9C217.761 467.118 218.101 467.228 218.509 467.228ZM225.376 464.095V468.5H223.604V460.983H225.298V462.26H225.386C225.559 461.839 225.834 461.505 226.213 461.257C226.595 461.009 227.066 460.885 227.627 460.885C228.146 460.885 228.598 460.996 228.983 461.218C229.371 461.44 229.671 461.761 229.883 462.182C230.099 462.603 230.205 463.113 230.201 463.714V468.5H228.43V463.988C228.43 463.485 228.299 463.092 228.038 462.808C227.78 462.525 227.423 462.383 226.966 462.383C226.657 462.383 226.381 462.451 226.139 462.588C225.901 462.722 225.714 462.916 225.577 463.171C225.443 463.425 225.376 463.733 225.376 464.095Z" fill="black"/>
<path d="M181 671V523.319C181 522.766 181.448 522.319 182 522.319H337.179C337.732 522.319 338.179 521.871 338.179 521.319V351.066C338.179 350.514 338.627 350.066 339.179 350.066H518.809C519.361 350.066 519.809 349.618 519.809 349.066V177C519.809 176.448 520.256 176 520.809 176H763" stroke="url(#paint0_linear_221_3)" stroke-width="30"/>
<defs>
<linearGradient id="paint0_linear_221_3" x1="472" y1="176" x2="472" y2="671" gradientUnits="userSpaceOnUse">
<stop stop-color="#5340FF"/>
<stop offset="0.514423" stop-color="#8EC5FF"/>
<stop offset="0.975962" stop-color="#5340FF"/>
</linearGradient>
</defs>
</svg>
