<?xml version="1.0" encoding="UTF-8"?>
<svg version="1.1" xmlns="http://www.w3.org/2000/svg" width="206" height="197">
<path d="M0 0 C1.74179787 -0.01029488 1.74179787 -0.01029488 3.51878357 -0.02079773 C7.31408305 -0.03893026 11.10896386 -0.03524801 14.90429688 -0.02954102 C16.8930221 -0.03295204 18.88174751 -0.03637281 20.87047052 -0.04089409 C27.10916753 -0.05486674 33.34772737 -0.05343828 39.58642578 -0.04199219 C45.98553587 -0.03051002 52.38422687 -0.04460459 58.7832818 -0.07138866 C64.31409192 -0.09365693 69.84477154 -0.10015843 75.37562323 -0.09431225 C78.66293205 -0.09096882 81.94991605 -0.09493256 85.23719788 -0.11056328 C88.90714081 -0.12555977 92.57617777 -0.11473214 96.24609375 -0.09765625 C97.31037094 -0.10732422 98.37464813 -0.11699219 99.47117615 -0.12695312 C110.141872 -0.02379005 120.46690235 2.32530215 128.68945312 9.43139648 C138.21102826 19.14532667 140.08200334 30.46369859 140.02709961 43.64575195 C140.03396286 44.81641205 140.04082611 45.98707214 140.04789734 47.19320679 C140.06607711 51.03184417 140.06234007 54.87006937 140.05664062 58.70874023 C140.0600509 60.71660494 140.06347046 62.72446984 140.0679937 64.73233235 C140.08198495 71.03619925 140.08052338 77.33993049 140.0690918 83.64379883 C140.05761993 90.11216623 140.07168258 96.58011854 140.09848827 103.04843128 C140.12075681 108.63440203 140.12725762 114.22024355 140.12141186 119.80625546 C140.11806699 123.12828885 140.12203836 126.44984585 140.13766289 129.77187729 C140.15265858 133.48274728 140.14183151 137.19272113 140.12475586 140.90356445 C140.13925781 142.51871948 140.13925781 142.51871948 140.15405273 144.16650391 C140.05158781 154.88277177 137.71244716 165.18139446 130.61523438 173.46655273 C120.04207917 183.74946447 108.16626268 184.55537563 94.13330078 184.54931641 C93.00702774 184.55267502 91.8807547 184.55603363 90.72035217 184.55949402 C87.01342655 184.56895887 83.30654631 184.5709448 79.59960938 184.57202148 C77.01183046 184.57523684 74.42405173 184.57860112 71.83627319 184.58210754 C66.41786195 184.58808741 60.99946857 184.58999156 55.58105469 184.58935547 C49.33945751 184.58875496 43.09794683 184.59930721 36.85637152 184.61509913 C30.82610756 184.62980647 24.7958902 184.63334204 18.76560593 184.63274574 C16.2116498 184.63392264 13.65769296 184.63832806 11.10374832 184.64607811 C7.52628728 184.65591899 3.94904693 184.65298381 0.37158203 184.64697266 C-0.67393326 184.65259216 -1.71944855 184.65821167 -2.79664612 184.66400146 C-14.99759598 184.61213181 -25.56808946 182.50152843 -34.77929688 174.08764648 C-43.4895732 164.90884674 -44.83123545 153.23471441 -44.78100586 141.07055664 C-44.78786911 139.89014297 -44.79473236 138.70972931 -44.80180359 137.49354553 C-44.81998523 133.62244362 -44.81624605 129.75175036 -44.81054688 125.88061523 C-44.81302818 123.85598575 -44.81737659 121.83136602 -44.82189995 119.80674016 C-44.83589189 113.45013592 -44.83442904 107.09366622 -44.82299805 100.73706055 C-44.81152606 94.21416288 -44.82558889 87.69167683 -44.85239452 81.16883337 C-44.87466166 75.53615412 -44.88116419 69.90360303 -44.87531811 64.27088296 C-44.87197291 60.92090523 -44.87594629 57.57139992 -44.89156914 54.2214241 C-44.90656285 50.47942357 -44.89573916 46.73831195 -44.87866211 42.99633789 C-44.88833008 41.91021713 -44.89799805 40.82409637 -44.90795898 39.70506287 C-44.79543109 27.84008241 -42.05759793 17.89719754 -33.58789062 9.42749023 C-24.18073217 0.818112 -12.34782745 -0.05222847 0 0 Z " fill="#000ABD" transform="translate(55.376953125,7.595947265625)"/>
<path d="M0 0 C4.94055944 2.53152632 9.31498256 5.83432811 13 10 C11.6066925 13.13727036 9.97631354 15.28032695 7.56347656 17.71118164 C6.8622467 18.42194351 6.16101685 19.13270538 5.4385376 19.86500549 C4.68022644 20.62240524 3.92191528 21.37980499 3.140625 22.16015625 C2.35862732 22.94643906 1.57662964 23.73272186 0.77093506 24.54283142 C-0.88420473 26.2037115 -2.54196821 27.86198049 -4.20214844 29.51782227 C-6.73520809 32.04772651 -9.25467423 34.59063741 -11.7734375 37.13476562 C-13.38460506 38.7482067 -14.9965588 40.36086317 -16.609375 41.97265625 C-17.35958923 42.73208023 -18.10980347 43.49150421 -18.88275146 44.27394104 C-23.87981491 49.22740126 -28.4824168 53.40304809 -35.875 53.5 C-44.32252136 53.19649624 -49.46323317 47.92681613 -55.0703125 42.1015625 C-57.477537 39.47992934 -59.80623813 36.79751093 -62.125 34.09765625 C-65.57942411 30.23301927 -69.29837599 26.62608066 -73 23 C-69.18020671 18.01887762 -65.81647546 14.50710149 -60 12 C-53.66956325 11.19613502 -49.25495498 12.37481237 -44 16 C-41.51288762 18.20394968 -39.22076871 20.52939481 -37 23 C-33.70610069 21.57045136 -31.63248404 19.82524799 -29.171875 17.2265625 C-28.45386719 16.4840625 -27.73585937 15.7415625 -26.99609375 14.9765625 C-25.51004872 13.42073796 -24.02820071 11.86089276 -22.55078125 10.296875 C-16.54278149 4.10681464 -9.33575369 -2.34707504 0 0 Z " fill="#F8F9FC" transform="translate(133,87)"/>
<path d="M0 0 C4.90498706 2.23736252 7.729879 5.11050861 10 10 C10.75381535 15.5997712 10.77303575 20.33499991 8.375 25.5 C3.65577236 30.46760804 0.45931179 32.27699574 -6.4375 32.625 C-11.80273608 32.44758626 -14.98286696 31.70188877 -18.69921875 27.7734375 C-22.34387195 22.80445085 -23.85781301 18.11191767 -23 12 C-18.09873186 1.26965165 -11.48279708 -1.41727218 0 0 Z " fill="#D8D8DD" transform="translate(104,59)"/>
<path d="M0 0 C0 3 0 3 -2.23046875 5.5234375 C-3.20865735 6.48166307 -4.19470881 7.43191209 -5.1875 8.375 C-5.67025391 8.84421875 -6.15300781 9.3134375 -6.65039062 9.796875 C-7.62444657 10.74347434 -8.60111889 11.68738848 -9.58032227 12.62866211 C-11.74916698 14.72365794 -13.87275178 16.86287292 -16 19 C-17.01407242 20.01457336 -18.02840774 21.02888398 -19.04296875 22.04296875 C-19.55923828 22.55923828 -20.07550781 23.07550781 -20.60742188 23.60742188 C-23.73828125 26.73828125 -26.86914062 29.86914062 -30 33 C-30.37511719 32.55269531 -30.75023438 32.10539062 -31.13671875 31.64453125 C-34.28394037 27.92652889 -37.51237235 24.40652003 -41 21 C-42.60552211 19.39718992 -44.2095861 17.79291845 -45.8125 16.1875 C-46.60269531 15.39730469 -47.39289062 14.60710937 -48.20703125 13.79296875 C-48.79871094 13.20128906 -49.39039063 12.60960938 -50 12 C-46.18020671 7.01887762 -42.81647546 3.50710149 -37 1 C-30.66956325 0.19613502 -26.25495498 1.37481237 -21 5 C-18.51288762 7.20394968 -16.22076871 9.52939481 -14 12 C-10.09714233 10.41332422 -7.66479018 7.86649519 -4.75 4.875 C-3.85796875 3.96492188 -2.9659375 3.05484375 -2.046875 2.1171875 C-1.37140625 1.41851562 -0.6959375 0.71984375 0 0 Z " fill="#D9DADF" transform="translate(110,98)"/>
<path d="M0 0 C0.99 0 1.98 0 3 0 C0.76693984 7.36909854 -4.55860994 12.24692431 -11.0625 16.00390625 C-19.67083337 20.42956151 -29.09889222 20.14751655 -38.53735352 20.12939453 C-39.66844543 20.13114685 -40.79953735 20.13289917 -41.96490479 20.13470459 C-45.68625443 20.13908901 -49.40755616 20.13619731 -53.12890625 20.1328125 C-55.72387196 20.13348647 -58.31883761 20.13445728 -60.9138031 20.13571167 C-66.3448045 20.13718398 -71.77578803 20.13514497 -77.20678711 20.13037109 C-83.47227653 20.12492706 -89.73773341 20.12669494 -96.00322205 20.1321975 C-102.04951014 20.13729355 -108.09578239 20.13673993 -114.14207268 20.13381577 C-116.70687807 20.13314945 -119.2716843 20.13396458 -121.83648872 20.13629532 C-125.42169511 20.13883875 -129.00683926 20.13495744 -132.59204102 20.12939453 C-134.17649269 20.13243088 -134.17649269 20.13243088 -135.79295349 20.13552856 C-140.97143101 20.12066634 -145.89749188 19.9006053 -151 19 C-151 18.67 -151 18.34 -151 18 C-150.3397775 17.99761165 -149.679555 17.99522329 -148.99932575 17.99276257 C-132.93294539 17.93362064 -116.8667385 17.85807587 -100.80052662 17.76428509 C-93.03101266 17.71932384 -85.26154458 17.67990998 -77.49194336 17.65356445 C-70.7197734 17.63058698 -63.94774856 17.59719187 -57.17569369 17.55129844 C-53.59008201 17.52736267 -50.00461408 17.50863629 -46.41892433 17.50238609 C-42.41554918 17.49521261 -38.41267424 17.46478103 -34.40942383 17.43237305 C-33.22115494 17.43380814 -32.03288605 17.43524323 -30.80860901 17.4367218 C-29.71630981 17.42418365 -28.62401062 17.41164551 -27.49861145 17.39872742 C-26.55193006 17.39411845 -25.60524866 17.38950949 -24.62987995 17.38476086 C-21.50218541 16.92716794 -19.62156229 15.72058457 -17 14 C-14.31350447 13.38580992 -11.75958041 13.23386275 -9 13 C-9 12.34 -9 11.68 -9 11 C-7.7934375 10.319375 -7.7934375 10.319375 -6.5625 9.625 C-3.87334478 8.27266232 -3.87334478 8.27266232 -3.1875 5.9375 C-2.96789194 3.9926419 -2.96789194 3.9926419 -3 2 C-2.34 2 -1.68 2 -1 2 C-0.67 1.34 -0.34 0.68 0 0 Z " fill="#040881" transform="translate(188,172)"/>
<path d="M0 0 C6.15958618 6.43956737 5.29345218 16.76878502 5.2746582 25.04638672 C5.27976913 26.21996735 5.28488007 27.39354797 5.29014587 28.60269165 C5.30398562 32.46174291 5.3030893 36.32061445 5.30078125 40.1796875 C5.30309409 42.19360818 5.30659812 44.20752452 5.310188 46.2214433 C5.32124966 52.54722383 5.32173957 58.87294496 5.31567383 65.19873047 C5.30963729 71.6976979 5.32194447 78.19644865 5.3432439 84.69537914 C5.36092836 90.29994634 5.36685051 95.90444501 5.36360615 101.50903904 C5.3618039 104.84550458 5.36566043 108.18169288 5.37832069 111.51815414 C5.3907239 115.2438783 5.38386956 118.96910736 5.37231445 122.69482422 C5.37995819 123.78192688 5.38760193 124.86902954 5.39547729 125.98907471 C5.34712856 133.07936698 4.19637101 139.26006952 2 146 C1.67 146 1.34 146 1 146 C0.95745644 144.00045254 0.95919217 141.99958364 1 140 C1.33 139.67 1.66 139.34 2 139 C2.09743747 137.66707582 2.12631568 136.3290496 2.12698364 134.99256897 C2.12980347 134.12845398 2.13262329 133.26433899 2.13552856 132.3740387 C2.13350433 131.41795212 2.1314801 130.46186554 2.12939453 129.47680664 C2.13114685 128.47479218 2.13289917 127.47277771 2.13470459 126.44039917 C2.13913578 123.09696765 2.13617522 119.7535884 2.1328125 116.41015625 C2.13348649 114.07490529 2.13445732 111.7396544 2.13571167 109.40440369 C2.1371914 104.48207946 2.13503015 99.5597733 2.13037109 94.63745117 C2.12475202 88.40388784 2.12790039 82.1703683 2.13394356 75.93680668 C2.13760954 71.0949828 2.13638203 66.25316876 2.13381577 61.41134453 C2.1331589 59.11902295 2.13393031 56.82670041 2.13629532 54.53437996 C2.14615054 42.26568056 2.00376902 30.0169071 1.55419922 17.75561523 C1.49611682 16.12082639 1.49611682 16.12082639 1.43686104 14.45301151 C1.23874112 9.55958313 0.98858177 4.81218062 0 0 Z " fill="#030984" transform="translate(190,26)"/>
<path d="M0 0 C1.13162064 -0.00137466 2.26324127 -0.00274933 3.42915344 -0.00416565 C5.29247314 0.00122726 5.29247314 0.00122726 7.19343567 0.00672913 C9.15456047 0.00651009 9.15456047 0.00651009 11.15530396 0.00628662 C14.74180249 0.00599937 18.32826767 0.01188445 21.91475844 0.01886058 C25.66237835 0.02510612 29.40999899 0.02569887 33.15762329 0.02688599 C40.25489061 0.02999575 47.35214256 0.03820438 54.44940311 0.04823548 C62.52912336 0.0594076 70.60884433 0.06490984 78.68857038 0.06993091 C95.30974868 0.08038727 111.9309115 0.09797987 128.55207825 0.12025452 C128.55207825 0.45025452 128.55207825 0.78025452 128.55207825 1.12025452 C127.55043137 1.12245436 127.55043137 1.12245436 126.52854919 1.12469864 C110.2608071 1.16179234 93.9933067 1.22084084 77.72573853 1.30415726 C69.85876637 1.34392261 61.99189389 1.37632776 54.12483215 1.39125061 C47.26580815 1.40428018 40.40700368 1.43127791 33.54810333 1.47486758 C29.91819909 1.49745336 26.28856533 1.51316695 22.65858459 1.51213837 C18.60063786 1.51125075 14.54348636 1.54155536 10.485672 1.57435608 C9.28948746 1.56932571 8.09330292 1.56429535 6.86087036 1.55911255 C0.26585728 1.64153343 -4.9972299 2.17783842 -10.44792175 6.12025452 C-11.20215172 6.92937475 -11.20215172 6.92937475 -11.97161865 7.75484085 C-13.44792175 9.12025452 -13.44792175 9.12025452 -16.44792175 9.12025452 C-16.60260925 10.01744202 -16.60260925 10.01744202 -16.76042175 10.93275452 C-17.54616208 13.43283737 -18.41711028 14.49560534 -20.44792175 16.12025452 C-21.10792175 16.12025452 -21.76792175 16.12025452 -22.44792175 16.12025452 C-22.44792175 17.77025452 -22.44792175 19.42025452 -22.44792175 21.12025452 C-23.43792175 21.45025452 -24.42792175 21.78025452 -25.44792175 22.12025452 C-24.23246163 14.13294512 -18.73052442 8.63088589 -12.62760925 3.62806702 C-8.42739294 0.73646081 -5.01292111 -0.00468936 0 0 Z " fill="#020CB0" transform="translate(38.44792175292969,9.879745483398438)"/>
<path d="M0 0 C2.97 0.495 2.97 0.495 6 1 C7.00388333 6.52135831 7.05007864 11.81795786 6.9375 17.42578125 C6.81711818 19.98871324 6.81711818 19.98871324 8 22 C7.39421747 24.01927511 6.73080266 26.02253397 6 28 C6.7425 27.505 7.485 27.01 8.25 26.5 C11 25 11 25 15 25 C15 24.34 15 23.68 15 23 C17.64 23.33 20.28 23.66 23 24 C23 24.33 23 24.66 23 25 C22.3709375 25.07476562 21.741875 25.14953125 21.09375 25.2265625 C14.31882921 26.26728828 10.10624189 28.46428793 5 33 C3.68 32.34 2.36 31.68 1 31 C1.33 29.68 1.66 28.36 2 27 C0.02 27.66 -1.96 28.32 -4 29 C-4 29.66 -4 30.32 -4 31 C-6.08304538 31.05418326 -8.16649768 31.09287551 -10.25 31.125 C-11.41015625 31.14820312 -12.5703125 31.17140625 -13.765625 31.1953125 C-16.82786046 31.0103949 -18.44202751 30.60823023 -21 29 C-21 28.34 -21 27.68 -21 27 C-20.01 27.33 -19.02 27.66 -18 28 C-12.10649263 28.47997857 -6.79908849 28.83750671 -1.375 26.3125 C1.81473185 23.20670846 3.7584837 20.59705375 4.43359375 16.1328125 C4.44220084 9.50535099 3.92901784 5.40239953 0 0 Z M5 20 C6 22 6 22 6 22 Z " fill="#1017AF" transform="translate(109,62)"/>
<path d="M0 0 C0.66 0.33 1.32 0.66 2 1 C1.649375 1.94875 1.29875 2.8975 0.9375 3.875 C-0.46358424 8.64652464 0.27854203 13.1545323 1 18 C-6.48291572 11.84965831 -6.48291572 11.84965831 -9 8 C-7.87811441 6.85111717 -6.75238316 5.70598863 -5.625 4.5625 C-4.99851562 3.92441406 -4.37203125 3.28632812 -3.7265625 2.62890625 C-2 1 -2 1 0 0 Z " fill="#D2D5E9" transform="translate(69,101)"/>
<path d="M0 0 C0.66 0.33 1.32 0.66 2 1 C-0.27963761 4.41945641 -1.32597111 4.56623263 -5 6 C-5.53625 6.53625 -6.0725 7.0725 -6.625 7.625 C-7.07875 8.07875 -7.5325 8.5325 -8 9 C-8.99 9 -9.98 9 -11 9 C-11.1546875 9.8971875 -11.1546875 9.8971875 -11.3125 10.8125 C-12.09824033 13.31258286 -12.96918853 14.37535082 -15 16 C-15.66 16 -16.32 16 -17 16 C-17 17.65 -17 19.3 -17 21 C-17.99 21.33 -18.98 21.66 -20 22 C-18.78453987 14.0126906 -13.28260267 8.51063137 -7.1796875 3.5078125 C-4.84731264 1.90210719 -2.69289685 0.89763228 0 0 Z " fill="#05078B" transform="translate(33,10)"/>
<path d="M0 0 C4.18171174 0.53372529 6.11594107 1.5394498 9.15234375 4.40234375 C9.15234375 4.73234375 9.15234375 5.06234375 9.15234375 5.40234375 C7.50234375 5.40234375 5.85234375 5.40234375 4.15234375 5.40234375 C3.82234375 4.74234375 3.49234375 4.08234375 3.15234375 3.40234375 C-5.39590091 3.24361287 -5.39590091 3.24361287 -13.84765625 4.40234375 C-9.74509157 -0.64080893 -6.15529617 -0.17309607 0 0 Z " fill="#CDD2F2" transform="translate(100.84765625,58.59765625)"/>
<path d="M0 0 C0.66 0 1.32 0 2 0 C2.66 1.65 3.32 3.3 4 5 C5.65 4.67 7.3 4.34 9 4 C8.8453125 5.3303125 8.8453125 5.3303125 8.6875 6.6875 C9.0971319 11.02959813 10.79821097 12.18867305 14 15 C14.33 15.66 14.66 16.32 15 17 C7.89192825 13.99273887 3.38256142 8.78008992 0 2 C0 1.34 0 0.68 0 0 Z " fill="#03099B" transform="translate(14,170)"/>
<path d="M0 0 C2.97 0.495 2.97 0.495 6 1 C7.05471681 6.93278207 7.73205602 12.9914363 7 19 C5 21.6875 5 21.6875 3 23 C3.15855469 22.45988281 3.31710938 21.91976562 3.48046875 21.36328125 C4.8298649 15.22505063 5.21724066 8.30911902 2 2.75 C1.34 1.8425 0.68 0.935 0 0 Z " fill="#252AA8" transform="translate(109,62)"/>
<path d="M0 0 C2.63043465 2.51606793 3.91585918 3.90455126 4.203125 7.64453125 C4.21859375 8.68996094 4.2340625 9.73539063 4.25 10.8125 C4.27578125 11.85019531 4.3015625 12.88789062 4.328125 13.95703125 C3.95961897 17.37448595 3.01564596 19.24630186 1 22 C0.67 22 0.34 22 0 22 C0 20.35 0 18.7 0 17 C0.66 17 1.32 17 2 17 C2.25287193 10.93107371 1.69832609 5.83799592 0 0 Z " fill="#C7CEF3" transform="translate(110,64)"/>
<path d="M0 0 C0.33 0.66 0.66 1.32 1 2 C0.34 2 -0.32 2 -1 2 C-1 2.66 -1 3.32 -1 4 C-4.18824568 5.59412284 -7.62896662 5.10174735 -11.125 5.0625 C-11.87910156 5.05798828 -12.63320312 5.05347656 -13.41015625 5.04882812 C-15.27347127 5.03703499 -17.13674555 5.01909942 -19 5 C-19.66 3.68 -20.32 2.36 -21 1 C-20.38125 1.33 -19.7625 1.66 -19.125 2 C-13.36797881 3.84224678 -7.96209073 3.81189961 -2.375 1.5 C-1.59125 1.005 -0.8075 0.51 0 0 Z " fill="#1E22A7" transform="translate(108,136)"/>
<path d="M0 0 C3.80635497 3.20760251 7.54563567 6.40746109 11 10 C10.01 10.33 9.02 10.66 8 11 C7.401875 10.360625 6.80375 9.72125 6.1875 9.0625 C4.09189663 6.79689611 4.09189663 6.79689611 1 6 C0.67 4.02 0.34 2.04 0 0 Z " fill="#C3C7ED" transform="translate(87,102)"/>
<path d="M0 0 C0.99 0.495 0.99 0.495 2 1 C1.9175 1.969375 1.835 2.93875 1.75 3.9375 C1.71005093 8.81128713 3.83373385 12.73516351 6 17 C4.02 17.99 4.02 17.99 2 19 C1.855625 17.865625 1.71125 16.73125 1.5625 15.5625 C1.38828522 12.19222799 1.38828522 12.19222799 0 11 C-0.07226502 9.14712498 -0.0838122 7.29166122 -0.0625 5.4375 C-0.05347656 4.42558594 -0.04445313 3.41367188 -0.03515625 2.37109375 C-0.02355469 1.58863281 -0.01195313 0.80617188 0 0 Z " fill="#1116A7" transform="translate(80,70)"/>
<path d="M0 0 C0.125 3.375 0.125 3.375 0 7 C-0.66 7.66 -1.32 8.32 -2 9 C-2.99 9 -3.98 9 -5 9 C-5.33 8.01 -5.66 7.02 -6 6 C-5.34 6 -4.68 6 -4 6 C-4 4.35 -4 2.7 -4 1 C-2 0 -2 0 0 0 Z " fill="#0109BE" transform="translate(111,89)"/>
<path d="M0 0 C0.66 0 1.32 0 2 0 C1.75 2.375 1.75 2.375 1 5 C-1.0625 6.3125 -1.0625 6.3125 -3 7 C-3.99 5.68 -4.98 4.36 -6 3 C-5.38125 2.87625 -4.7625 2.7525 -4.125 2.625 C-1.80879168 2.12802644 -1.80879168 2.12802644 0 0 Z " fill="#070DAB" transform="translate(99,104)"/>
<path d="M0 0 C4.95 0 9.9 0 15 0 C15 0.33 15 0.66 15 1 C14.43152344 1.03738281 13.86304687 1.07476562 13.27734375 1.11328125 C7.91564807 1.56978622 3.8330492 2.63489082 -1 5 C-0.67 3.35 -0.34 1.7 0 0 Z " fill="#0F129F" transform="translate(67,98)"/>
<path d="M0 0 C0.99 0 1.98 0 3 0 C4.06652192 2.30368736 5.06421005 4.64018187 6 7 C5.67 7.66 5.34 8.32 5 9 C2.4375 9.625 2.4375 9.625 0 10 C0.99 8.68 1.98 7.36 3 6 C2.690625 5.38125 2.38125 4.7625 2.0625 4.125 C1.375 2.75 0.6875 1.375 0 0 Z " fill="#070BA9" transform="translate(142,93)"/>
<path d="M0 0 C0.66 0.66 1.32 1.32 2 2 C1.625 4.625 1.625 4.625 1 7 C-2 6 -2 6 -3.1875 3.9375 C-3.5896875 2.9784375 -3.5896875 2.9784375 -4 2 C-2.68 1.34 -1.36 0.68 0 0 Z " fill="#D2D4E6" transform="translate(74,117)"/>
<path d="M0 0 C3.7952131 1.49097658 5.61042731 3.75700849 8 7 C5 7 5 7 2.3125 4.625 C0 2 0 2 0 0 Z " fill="#2228AD" transform="translate(64,115)"/>
<path d="M0 0 C0.99 0.33 1.98 0.66 3 1 C1.02 3.31 -0.96 5.62 -3 8 C-3.66 7.01 -4.32 6.02 -5 5 C-3.74458443 2.48916886 -2.49936512 2.12874554 0 1 C0 0.67 0 0.34 0 0 Z " fill="#060CAA" transform="translate(110,94)"/>
<path d="M0 0 C0.99 0 1.98 0 3 0 C1.75023244 3.65316671 1.32901247 4.78065836 -2 7 C-2.33 5.35 -2.66 3.7 -3 2 C-2.34 2 -1.68 2 -1 2 C-0.67 1.34 -0.34 0.68 0 0 Z " fill="#030A9A" transform="translate(188,172)"/>
<path d="M0 0 C0.804375 0.309375 1.60875 0.61875 2.4375 0.9375 C6.62249087 2.18565517 10.66306101 2.6337696 15 3 C15 3.33 15 3.66 15 4 C13.25034642 4.05429959 11.50020213 4.09292823 9.75 4.125 C8.77546875 4.14820312 7.8009375 4.17140625 6.796875 4.1953125 C3.9803502 3.99862781 2.39050964 3.44568916 0 2 C0 1.34 0 0.68 0 0 Z " fill="#0B12A3" transform="translate(88,89)"/>
<path d="M0 0 C0.66 0.33 1.32 0.66 2 1 C2 1.66 2 2.32 2 3 C1.01 3.495 1.01 3.495 0 4 C0.66 5.32 1.32 6.64 2 8 C0.02 6.35 -1.96 4.7 -4 3 C-2.68 2.01 -1.36 1.02 0 0 Z " fill="#070DA9" transform="translate(91,99)"/>
<path d="M0 0 C4.875 4.75 4.875 4.75 6 7 C4.02 7 2.04 7 0 7 C0 4.69 0 2.38 0 0 Z " fill="#171BAD" transform="translate(73,123)"/>
<path d="M0 0 C0.66 0.33 1.32 0.66 2 1 C1.67 2.65 1.34 4.3 1 6 C-0.98 5.34 -2.96 4.68 -5 4 C-4.0409375 3.8453125 -4.0409375 3.8453125 -3.0625 3.6875 C-2.381875 3.460625 -1.70125 3.23375 -1 3 C-0.67 2.01 -0.34 1.02 0 0 Z " fill="#0E17B1" transform="translate(138,84)"/>
<path d="M0 0 C2.5 2.3125 2.5 2.3125 5 5 C5 5.99 5 6.98 5 8 C2.5 5.6875 2.5 5.6875 0 3 C0 2.01 0 1.02 0 0 Z " fill="#040885" transform="translate(184,18)"/>
<path d="M0 0 C5.75 1.625 5.75 1.625 8 5 C5.03 4.505 5.03 4.505 2 4 C2 3.34 2 2.68 2 2 C1.01 1.67 0.02 1.34 -1 1 C-0.67 0.67 -0.34 0.34 0 0 Z " fill="#040A90" transform="translate(173,11)"/>
<path d="M0 0 C2.3125 0.1875 2.3125 0.1875 5 1 C6.8125 3.5625 6.8125 3.5625 8 6 C4.63408134 4.55746343 2.48952921 2.66735273 0 0 Z " fill="#030989" transform="translate(21,181)"/>
<path d="M0 0 C2.97 0.495 2.97 0.495 6 1 C6 2.65 6 4.3 6 6 C5.01 6.495 5.01 6.495 4 7 C2.02 3.535 2.02 3.535 0 0 Z " fill="#1216A8" transform="translate(109,62)"/>
</svg>
